<svg xmlns="http://www.w3.org/2000/svg" xmlns:xlink="http://www.w3.org/1999/xlink" width="500" zoomAndPan="magnify" viewBox="0 0 375 374.999991" height="500" preserveAspectRatio="xMidYMid meet" version="1.0"><path fill="#5ce1e6" d="M 266.300781 19.421875 C 260.078125 19.214844 253.566406 20.296875 247.039062 22.414062 C 233.980469 26.648438 220.296875 34.898438 206.257812 46.320312 C 200.753906 50.796875 195.199219 55.914062 189.628906 61.34375 C 184.179688 56.050781 178.742188 51.054688 173.359375 46.679688 C 159.328125 35.265625 145.683594 27.027344 132.65625 22.804688 C 119.628906 18.582031 106.664062 18.449219 96.019531 24.597656 C 85.371094 30.742188 79.003906 42.027344 76.148438 55.421875 C 73.292969 68.816406 73.59375 84.765625 76.460938 102.625 C 77.457031 108.824219 78.894531 115.332031 80.511719 121.960938 C 74.429688 123.804688 68.523438 125.746094 63.042969 127.882812 C 46.511719 134.339844 32.832031 142.066406 22.871094 151.257812 C 12.910156 160.453125 6.476562 171.609375 6.476562 183.859375 C 6.476562 196.109375 12.910156 207.253906 22.871094 216.445312 C 32.832031 225.636719 46.511719 233.378906 63.042969 239.835938 C 68.902344 242.125 75.242188 244.183594 81.789062 246.132812 C 79.4375 254.929688 77.527344 263.46875 76.226562 271.5625 C 73.355469 289.433594 73.054688 305.386719 75.914062 318.8125 C 78.777344 332.238281 85.148438 343.585938 95.847656 349.761719 C 106.546875 355.9375 119.566406 355.785156 132.625 351.554688 C 145.679688 347.320312 159.347656 339.085938 173.390625 327.664062 C 178.84375 323.230469 184.359375 318.167969 189.878906 312.796875 C 195.421875 318.199219 200.964844 323.285156 206.441406 327.742188 C 220.472656 339.15625 234.132812 347.390625 247.164062 351.617188 C 260.191406 355.839844 273.136719 355.96875 283.785156 349.824219 C 294.429688 343.675781 300.796875 332.394531 303.652344 319 C 306.507812 305.605469 306.195312 289.65625 303.324219 271.796875 C 302.019531 263.679688 300.113281 255.128906 297.746094 246.300781 C 304.507812 244.308594 311.050781 242.191406 317.085938 239.835938 C 333.617188 233.378906 347.296875 225.636719 357.257812 216.445312 C 367.222656 207.253906 373.652344 196.109375 373.652344 183.859375 C 373.652344 171.609375 367.222656 160.453125 357.257812 151.257812 C 347.296875 142.066406 333.617188 134.339844 317.085938 127.882812 C 311.527344 125.714844 305.53125 123.75 299.351562 121.882812 C 300.984375 115.214844 302.433594 108.660156 303.433594 102.421875 C 306.304688 84.550781 306.609375 68.582031 303.746094 55.15625 C 300.882812 41.730469 294.5 30.398438 283.800781 24.222656 C 278.449219 21.132812 272.519531 19.632812 266.300781 19.421875 Z M 265.566406 35.660156 C 269.46875 35.769531 272.800781 36.695312 275.648438 38.339844 C 281.347656 41.628906 285.558594 48.03125 287.804688 58.570312 C 290.050781 69.105469 289.972656 83.339844 287.320312 99.847656 C 286.414062 105.5 285.09375 111.492188 283.597656 117.628906 C 267.28125 113.703125 249.402344 110.789062 230.347656 109.074219 C 220.777344 95.8125 210.9375 83.746094 201.019531 73.03125 C 206.261719 67.914062 211.472656 63.125 216.554688 58.988281 C 229.527344 48.4375 241.808594 41.257812 252.054688 37.9375 C 257.179688 36.273438 261.664062 35.554688 265.566406 35.660156 Z M 114.15625 35.707031 C 118.085938 35.597656 122.578125 36.316406 127.714844 37.984375 C 137.992188 41.316406 150.292969 48.492188 163.277344 59.050781 C 168.257812 63.105469 173.351562 67.785156 178.484375 72.78125 C 168.496094 83.582031 158.589844 95.773438 148.957031 109.152344 C 129.96875 110.898438 112.15625 113.839844 95.910156 117.785156 C 94.421875 111.675781 93.121094 105.710938 92.214844 100.082031 C 89.5625 83.558594 89.496094 69.308594 91.75 58.738281 C 94 48.171875 98.246094 41.738281 103.996094 38.417969 C 106.871094 36.757812 110.230469 35.816406 114.15625 35.707031 Z M 189.878906 84.515625 C 196.375 91.585938 202.878906 99.328125 209.324219 107.65625 C 202.992188 107.390625 196.578125 107.234375 190.066406 107.234375 C 183.421875 107.234375 176.886719 107.398438 170.429688 107.671875 C 176.878906 99.335938 183.375 91.59375 189.878906 84.515625 Z M 190.066406 123.347656 C 200.914062 123.347656 211.492188 123.796875 221.777344 124.550781 C 228.855469 134.714844 235.773438 145.5 242.363281 156.914062 C 248.152344 166.945312 253.394531 176.960938 258.164062 186.851562 C 253.34375 196.875 248.015625 207.023438 242.144531 217.191406 C 236.976562 226.144531 231.578125 234.644531 226.09375 242.84375 C 214.472656 243.8125 202.433594 244.355469 190.066406 244.355469 C 177.398438 244.355469 165.085938 243.78125 153.210938 242.765625 C 147.816406 234.6875 142.507812 226.296875 137.425781 217.488281 C 131.566406 207.34375 126.261719 197.226562 121.449219 187.226562 C 126.285156 177.167969 131.609375 166.980469 137.5 156.777344 C 144.058594 145.421875 150.953125 134.695312 157.992188 124.582031 C 168.390625 123.808594 179.089844 123.347656 190.066406 123.347656 Z M 242.332031 126.542969 C 255.480469 128.183594 267.824219 130.464844 279.3125 133.199219 C 275.902344 144.378906 271.699219 156.054688 266.609375 168.105469 C 263.304688 161.734375 259.882812 155.34375 256.183594 148.9375 C 251.707031 141.179688 247.050781 133.769531 242.332031 126.542969 Z M 136.957031 126.667969 C 132.335938 133.765625 127.789062 141.019531 123.398438 148.625 C 119.652344 155.113281 116.160156 161.589844 112.816406 168.042969 C 107.773438 156.0625 103.597656 144.453125 100.210938 133.339844 C 111.617188 130.597656 123.894531 128.328125 136.957031 126.667969 Z M 295.097656 137.4375 C 300.753906 139.148438 306.214844 140.933594 311.226562 142.890625 C 326.464844 148.84375 338.523438 155.890625 346.335938 163.101562 C 354.148438 170.3125 357.539062 177.1875 357.539062 183.859375 C 357.539062 190.53125 354.148438 197.40625 346.335938 204.617188 C 338.523438 211.828125 326.464844 218.875 311.226562 224.828125 C 305.65625 227.003906 299.539062 228.976562 293.179688 230.84375 C 288.644531 216.8125 282.851562 202.171875 275.960938 187.226562 C 283.886719 170.066406 290.285156 153.335938 295.097656 137.4375 Z M 84.765625 137.515625 C 89.523438 153.257812 95.84375 169.820312 103.65625 186.804688 C 96.71875 201.835938 90.898438 216.558594 86.339844 230.671875 C 80.207031 228.851562 74.296875 226.933594 68.902344 224.828125 C 53.664062 218.875 41.605469 211.828125 33.792969 204.617188 C 25.980469 197.40625 22.589844 190.53125 22.589844 183.859375 C 22.589844 177.1875 25.980469 170.3125 33.792969 163.101562 C 41.605469 155.890625 53.664062 148.84375 68.902344 142.890625 C 73.835938 140.964844 79.207031 139.203125 84.765625 137.515625 Z M 190.066406 147.207031 C 168.125 147.207031 150.171875 165.164062 150.171875 187.101562 C 150.171875 209.039062 168.125 226.996094 190.066406 226.996094 C 212.003906 226.996094 229.957031 209.039062 229.957031 187.101562 C 229.957031 165.164062 212.003906 147.207031 190.066406 147.207031 Z M 190.066406 163.164062 C 203.378906 163.164062 214 173.785156 214 187.101562 C 214 200.414062 203.378906 211.039062 190.066406 211.039062 C 176.75 211.039062 166.128906 200.414062 166.128906 187.101562 C 166.128906 173.785156 176.75 163.164062 190.066406 163.164062 Z M 266.8125 205.957031 C 270.996094 215.859375 274.636719 225.550781 277.691406 234.894531 C 268.09375 237.121094 257.878906 238.996094 247.132812 240.472656 C 250.226562 235.539062 253.28125 230.511719 256.261719 225.34375 C 260.003906 218.867188 263.476562 212.398438 266.8125 205.957031 Z M 113.003906 205.972656 C 116.359375 212.453125 119.855469 218.949219 123.617188 225.46875 C 126.5625 230.570312 129.570312 235.550781 132.625 240.425781 C 121.910156 238.941406 111.722656 237.0625 102.160156 234.832031 C 105.199219 225.515625 108.839844 215.847656 113.003906 205.972656 Z M 97.5625 250.324219 C 112 253.742188 127.652344 256.371094 144.25 258.082031 C 155.332031 274.109375 166.867188 288.503906 178.484375 301.09375 C 173.292969 306.160156 168.144531 310.910156 163.105469 315.011719 C 150.132812 325.5625 137.839844 332.726562 127.589844 336.046875 C 117.34375 339.371094 109.695312 338.933594 103.996094 335.640625 C 98.300781 332.351562 94.105469 325.953125 91.859375 315.414062 C 89.609375 304.878906 89.671875 290.660156 92.324219 274.148438 C 93.527344 266.660156 95.328125 258.640625 97.5625 250.324219 Z M 282.304688 250.386719 C 284.554688 258.75 286.359375 266.808594 287.570312 274.335938 C 290.226562 290.859375 290.289062 305.097656 288.039062 315.664062 C 285.785156 326.230469 281.554688 332.679688 275.804688 336 C 270.054688 339.320312 262.347656 339.769531 252.070312 336.4375 C 241.792969 333.105469 229.492188 325.914062 216.511719 315.351562 C 211.433594 311.226562 206.25 306.449219 201.019531 301.34375 C 212.714844 288.707031 224.335938 274.234375 235.492188 258.113281 C 252.128906 256.414062 267.824219 253.800781 282.304688 250.386719 Z M 165.070312 259.71875 C 173.261719 260.167969 181.5625 260.46875 190.066406 260.46875 C 198.285156 260.46875 206.316406 260.183594 214.25 259.765625 C 206.140625 270.707031 197.875 280.652344 189.644531 289.609375 C 181.417969 280.632812 173.167969 270.671875 165.070312 259.71875 Z M 165.070312 259.71875 " fill-opacity="1" fill-rule="nonzero"/></svg>