<svg xmlns="http://www.w3.org/2000/svg" xmlns:xlink="http://www.w3.org/1999/xlink" width="500" zoomAndPan="magnify" viewBox="0 0 375 374.999991" height="500" preserveAspectRatio="xMidYMid meet" version="1.0"><defs><clipPath id="53fa9df64f"><path d="M 31 26 L 344.535156 26 L 344.535156 349 L 31 349 Z M 31 26 " clip-rule="nonzero"/></clipPath></defs><g clip-path="url(#53fa9df64f)"><path fill="#ff3131" d="M 187.933594 348.628906 C 186.050781 348.636719 184.214844 348.347656 182.429688 347.757812 L 77.910156 312.917969 C 76.367188 312.402344 74.925781 311.6875 73.585938 310.773438 C 72.246094 309.855469 71.054688 308.773438 70.015625 307.523438 C 68.980469 306.273438 68.132812 304.902344 67.476562 303.417969 C 66.820312 301.929688 66.382812 300.382812 66.160156 298.773438 L 31.320312 46.1875 C 31.234375 45.570312 31.183594 44.953125 31.164062 44.332031 C 31.144531 43.714844 31.15625 43.09375 31.203125 42.472656 C 31.25 41.855469 31.328125 41.238281 31.441406 40.628906 C 31.554688 40.019531 31.699219 39.414062 31.875 38.820312 C 32.054688 38.226562 32.261719 37.640625 32.5 37.066406 C 32.738281 36.496094 33.007812 35.9375 33.308594 35.394531 C 33.605469 34.847656 33.933594 34.320312 34.289062 33.8125 C 34.644531 33.304688 35.027344 32.816406 35.433594 32.347656 C 35.84375 31.878906 36.273438 31.433594 36.730469 31.011719 C 37.183594 30.589844 37.660156 30.191406 38.15625 29.820312 C 38.65625 29.449219 39.171875 29.105469 39.707031 28.789062 C 40.242188 28.472656 40.789062 28.1875 41.355469 27.929688 C 41.921875 27.671875 42.496094 27.445312 43.085938 27.25 C 43.675781 27.054688 44.273438 26.890625 44.882812 26.757812 C 45.488281 26.628906 46.101562 26.527344 46.71875 26.460938 C 47.335938 26.394531 47.953125 26.363281 48.574219 26.363281 L 327.289062 26.363281 C 327.910156 26.363281 328.527344 26.398438 329.144531 26.460938 C 329.761719 26.527344 330.375 26.628906 330.980469 26.757812 C 331.585938 26.890625 332.183594 27.054688 332.773438 27.25 C 333.363281 27.445312 333.9375 27.671875 334.503906 27.925781 C 335.066406 28.183594 335.617188 28.472656 336.152344 28.785156 C 336.683594 29.101562 337.199219 29.445312 337.699219 29.816406 C 338.195312 30.1875 338.671875 30.582031 339.125 31.003906 C 339.582031 31.425781 340.011719 31.871094 340.421875 32.335938 C 340.828125 32.804688 341.210938 33.292969 341.566406 33.800781 C 341.921875 34.308594 342.246094 34.835938 342.546875 35.378906 C 342.847656 35.921875 343.117188 36.480469 343.355469 37.050781 C 343.59375 37.625 343.804688 38.207031 343.980469 38.800781 C 344.15625 39.398438 344.304688 40 344.417969 40.609375 C 344.527344 41.21875 344.609375 41.832031 344.65625 42.453125 C 344.703125 43.070312 344.71875 43.6875 344.699219 44.308594 C 344.679688 44.929688 344.628906 45.546875 344.542969 46.160156 L 309.707031 298.746094 C 309.484375 300.359375 309.046875 301.910156 308.394531 303.398438 C 307.738281 304.886719 306.894531 306.257812 305.855469 307.511719 C 304.816406 308.761719 303.625 309.847656 302.285156 310.765625 C 300.941406 311.6875 299.5 312.402344 297.957031 312.917969 L 193.4375 347.757812 C 191.648438 348.347656 189.816406 348.636719 187.933594 348.628906 Z M 99.195312 283.304688 L 187.933594 312.847656 L 276.667969 283.234375 L 307.300781 61.203125 L 68.609375 61.203125 Z M 99.195312 283.304688 " fill-opacity="1" fill-rule="nonzero"/></g><path fill="#ff3131" d="M 187.933594 274.59375 C 186.226562 274.59375 184.558594 274.351562 182.925781 273.863281 L 139.375 260.796875 C 137.863281 260.34375 136.4375 259.695312 135.101562 258.855469 C 133.765625 258.011719 132.5625 257.007812 131.5 255.839844 C 130.4375 254.671875 129.550781 253.378906 128.835938 251.972656 C 128.125 250.5625 127.613281 249.082031 127.304688 247.53125 L 125.5625 238.824219 C 125.34375 237.734375 125.230469 236.636719 125.226562 235.527344 C 125.21875 234.417969 125.316406 233.320312 125.519531 232.226562 C 125.722656 231.136719 126.027344 230.078125 126.429688 229.042969 C 126.835938 228.011719 127.335938 227.027344 127.929688 226.089844 C 128.523438 225.152344 129.203125 224.28125 129.960938 223.472656 C 130.722656 222.664062 131.550781 221.9375 132.453125 221.289062 C 133.351562 220.640625 134.304688 220.082031 135.308594 219.613281 C 136.316406 219.148438 137.355469 218.78125 138.433594 218.511719 C 139.507812 218.242188 140.601562 218.078125 141.707031 218.019531 C 142.816406 217.960938 143.917969 218.007812 145.019531 218.15625 C 146.117188 218.308594 147.191406 218.5625 148.242188 218.917969 C 149.292969 219.273438 150.300781 219.726562 151.261719 220.277344 C 152.226562 220.824219 153.128906 221.460938 153.972656 222.183594 C 154.816406 222.902344 155.582031 223.699219 156.273438 224.566406 C 156.964844 225.433594 157.566406 226.359375 158.082031 227.339844 C 158.59375 228.324219 159.011719 229.347656 159.328125 230.410156 L 187.933594 238.988281 L 215.804688 230.625 L 220.105469 200.558594 L 135.671875 200.558594 C 134.621094 200.558594 133.578125 200.464844 132.542969 200.277344 C 131.507812 200.085938 130.496094 199.804688 129.511719 199.433594 C 128.527344 199.058594 127.585938 198.601562 126.683594 198.058594 C 125.78125 197.515625 124.9375 196.894531 124.148438 196.199219 C 123.359375 195.5 122.640625 194.738281 121.988281 193.914062 C 121.335938 193.085938 120.765625 192.207031 120.273438 191.273438 C 119.785156 190.34375 119.378906 189.378906 119.0625 188.375 C 118.746094 187.371094 118.523438 186.34375 118.394531 185.300781 L 109.683594 115.621094 C 109.605469 115.011719 109.5625 114.398438 109.550781 113.78125 C 109.539062 113.167969 109.5625 112.550781 109.617188 111.9375 C 109.667969 111.324219 109.753906 110.71875 109.875 110.113281 C 109.992188 109.507812 110.140625 108.914062 110.324219 108.324219 C 110.503906 107.734375 110.71875 107.160156 110.960938 106.59375 C 111.203125 106.027344 111.476562 105.476562 111.777344 104.9375 C 112.078125 104.402344 112.40625 103.882812 112.761719 103.378906 C 113.117188 102.878906 113.5 102.398438 113.90625 101.933594 C 114.316406 101.472656 114.746094 101.035156 115.199219 100.617188 C 115.652344 100.203125 116.128906 99.8125 116.625 99.445312 C 117.121094 99.082031 117.632812 98.742188 118.164062 98.429688 C 118.695312 98.121094 119.242188 97.835938 119.800781 97.585938 C 120.363281 97.332031 120.9375 97.109375 121.519531 96.914062 C 122.105469 96.722656 122.699219 96.5625 123.300781 96.433594 C 123.902344 96.304688 124.511719 96.207031 125.121094 96.140625 C 125.734375 96.074219 126.347656 96.042969 126.964844 96.042969 L 248.902344 96.042969 C 249.472656 96.042969 250.042969 96.070312 250.609375 96.125 C 251.175781 96.183594 251.742188 96.265625 252.300781 96.375 C 252.859375 96.488281 253.414062 96.625 253.957031 96.792969 C 254.503906 96.957031 255.039062 97.148438 255.566406 97.367188 C 256.09375 97.585938 256.609375 97.832031 257.113281 98.097656 C 257.617188 98.367188 258.105469 98.660156 258.578125 98.976562 C 259.054688 99.292969 259.511719 99.632812 259.953125 99.996094 C 260.394531 100.359375 260.816406 100.742188 261.21875 101.144531 C 261.621094 101.546875 262.003906 101.96875 262.367188 102.410156 C 262.730469 102.851562 263.070312 103.308594 263.386719 103.785156 C 263.703125 104.257812 263.996094 104.746094 264.265625 105.25 C 264.535156 105.753906 264.777344 106.269531 264.996094 106.796875 C 265.214844 107.324219 265.40625 107.859375 265.570312 108.40625 C 265.738281 108.949219 265.875 109.503906 265.988281 110.0625 C 266.097656 110.621094 266.183594 111.1875 266.238281 111.753906 C 266.292969 112.320312 266.320312 112.890625 266.320312 113.460938 C 266.320312 114.03125 266.292969 114.601562 266.238281 115.167969 C 266.183594 115.738281 266.097656 116.300781 265.988281 116.859375 C 265.875 117.417969 265.738281 117.972656 265.570312 118.519531 C 265.40625 119.066406 265.214844 119.601562 264.996094 120.128906 C 264.777344 120.65625 264.535156 121.171875 264.265625 121.671875 C 263.996094 122.175781 263.703125 122.664062 263.386719 123.140625 C 263.070312 123.613281 262.730469 124.070312 262.367188 124.511719 C 262.003906 124.953125 261.621094 125.375 261.21875 125.78125 C 260.816406 126.183594 260.394531 126.566406 259.953125 126.925781 C 259.511719 127.289062 259.054688 127.628906 258.578125 127.945312 C 258.105469 128.261719 257.617188 128.554688 257.113281 128.824219 C 256.609375 129.09375 256.09375 129.335938 255.566406 129.554688 C 255.039062 129.773438 254.503906 129.964844 253.957031 130.132812 C 253.414062 130.296875 252.859375 130.4375 252.300781 130.546875 C 251.742188 130.65625 251.175781 130.742188 250.609375 130.796875 C 250.042969 130.855469 249.472656 130.882812 248.902344 130.882812 L 146.699219 130.882812 L 151.054688 165.722656 L 240.191406 165.722656 C 240.8125 165.722656 241.433594 165.753906 242.054688 165.820312 C 242.671875 165.886719 243.285156 165.988281 243.894531 166.117188 C 244.5 166.25 245.101562 166.414062 245.691406 166.613281 C 246.28125 166.808594 246.859375 167.035156 247.425781 167.292969 C 247.992188 167.550781 248.542969 167.839844 249.078125 168.15625 C 249.613281 168.472656 250.128906 168.820312 250.628906 169.191406 C 251.125 169.566406 251.601562 169.960938 252.058594 170.386719 C 252.511719 170.808594 252.945312 171.257812 253.351562 171.726562 C 253.761719 172.199219 254.140625 172.6875 254.496094 173.199219 C 254.851562 173.710938 255.179688 174.238281 255.476562 174.785156 C 255.777344 175.328125 256.042969 175.890625 256.28125 176.464844 C 256.519531 177.039062 256.726562 177.625 256.902344 178.222656 C 257.078125 178.820312 257.222656 179.425781 257.332031 180.035156 C 257.445312 180.648438 257.523438 181.265625 257.566406 181.886719 C 257.613281 182.507812 257.625 183.128906 257.601562 183.75 C 257.582031 184.371094 257.527344 184.988281 257.4375 185.605469 L 248.726562 246.574219 C 248.609375 247.394531 248.4375 248.199219 248.203125 248.992188 C 247.972656 249.789062 247.6875 250.5625 247.34375 251.3125 C 247.003906 252.066406 246.609375 252.792969 246.164062 253.488281 C 245.71875 254.1875 245.226562 254.847656 244.6875 255.472656 C 244.148438 256.101562 243.566406 256.6875 242.945312 257.230469 C 242.320312 257.773438 241.664062 258.273438 240.96875 258.722656 C 240.277344 259.171875 239.554688 259.574219 238.804688 259.917969 C 238.054688 260.265625 237.28125 260.558594 236.492188 260.796875 L 192.941406 273.863281 C 191.308594 274.351562 189.636719 274.59375 187.933594 274.59375 Z M 187.933594 274.59375 " fill-opacity="1" fill-rule="nonzero"/></svg>