<svg xmlns="http://www.w3.org/2000/svg" xmlns:xlink="http://www.w3.org/1999/xlink" width="500" zoomAndPan="magnify" viewBox="0 0 375 374.999991" height="500" preserveAspectRatio="xMidYMid meet" version="1.0"><defs><clipPath id="38a29cd196"><path d="M 29 24 L 346.890625 24 L 346.890625 351 L 29 351 Z M 29 24 " clip-rule="nonzero"/></clipPath></defs><g clip-path="url(#38a29cd196)"><path fill="#ffde59" d="M 187.941406 350.824219 C 186.03125 350.835938 184.171875 350.539062 182.359375 349.941406 L 76.417969 314.628906 C 74.855469 314.105469 73.394531 313.382812 72.03125 312.453125 C 70.671875 311.523438 69.46875 310.425781 68.414062 309.160156 C 67.363281 307.890625 66.503906 306.503906 65.839844 304.996094 C 65.175781 303.492188 64.730469 301.921875 64.507812 300.289062 L 29.191406 44.257812 C 29.105469 43.636719 29.050781 43.007812 29.03125 42.378906 C 29.011719 41.75 29.023438 41.121094 29.074219 40.496094 C 29.121094 39.867188 29.199219 39.246094 29.3125 38.625 C 29.429688 38.007812 29.574219 37.394531 29.753906 36.792969 C 29.933594 36.1875 30.144531 35.597656 30.386719 35.015625 C 30.628906 34.433594 30.902344 33.867188 31.207031 33.316406 C 31.507812 32.765625 31.839844 32.230469 32.199219 31.714844 C 32.5625 31.199219 32.949219 30.703125 33.359375 30.230469 C 33.773438 29.753906 34.210938 29.304688 34.671875 28.875 C 35.132812 28.449219 35.617188 28.046875 36.121094 27.667969 C 36.625 27.292969 37.148438 26.945312 37.691406 26.625 C 38.234375 26.304688 38.789062 26.011719 39.363281 25.753906 C 39.9375 25.492188 40.519531 25.261719 41.117188 25.0625 C 41.714844 24.867188 42.320312 24.699219 42.9375 24.566406 C 43.550781 24.433594 44.171875 24.332031 44.796875 24.265625 C 45.425781 24.199219 46.050781 24.164062 46.679688 24.164062 L 329.199219 24.164062 C 329.828125 24.164062 330.453125 24.199219 331.078125 24.265625 C 331.703125 24.332031 332.324219 24.433594 332.9375 24.566406 C 333.554688 24.699219 334.160156 24.863281 334.753906 25.0625 C 335.351562 25.261719 335.9375 25.488281 336.507812 25.75 C 337.082031 26.011719 337.636719 26.300781 338.179688 26.621094 C 338.722656 26.941406 339.242188 27.289062 339.746094 27.664062 C 340.25 28.039062 340.734375 28.441406 341.195312 28.867188 C 341.65625 29.296875 342.09375 29.746094 342.507812 30.222656 C 342.921875 30.695312 343.308594 31.191406 343.667969 31.703125 C 344.027344 32.21875 344.359375 32.753906 344.664062 33.304688 C 344.964844 33.855469 345.238281 34.421875 345.480469 35 C 345.726562 35.578125 345.9375 36.171875 346.117188 36.773438 C 346.296875 37.375 346.441406 37.988281 346.558594 38.605469 C 346.671875 39.222656 346.753906 39.84375 346.800781 40.472656 C 346.851562 41.097656 346.863281 41.726562 346.84375 42.355469 C 346.828125 42.984375 346.773438 43.609375 346.6875 44.230469 L 311.375 300.261719 C 311.152344 301.898438 310.707031 303.46875 310.042969 304.980469 C 309.382812 306.488281 308.523438 307.878906 307.472656 309.148438 C 306.417969 310.417969 305.210938 311.515625 303.851562 312.449219 C 302.492188 313.378906 301.027344 314.105469 299.464844 314.628906 L 193.519531 349.941406 C 191.707031 350.539062 189.847656 350.835938 187.941406 350.824219 Z M 97.992188 284.609375 L 187.941406 314.558594 L 277.886719 284.539062 L 308.9375 59.480469 L 66.988281 59.480469 Z M 97.992188 284.609375 " fill-opacity="1" fill-rule="nonzero"/></g><path fill="#ffde59" d="M 161.453125 271.367188 C 158.671875 271.367188 156.039062 270.746094 153.550781 269.503906 L 118.238281 251.847656 C 117.71875 251.589844 117.214844 251.304688 116.726562 250.996094 C 116.234375 250.6875 115.761719 250.359375 115.304688 250.003906 C 114.847656 249.648438 114.410156 249.273438 113.988281 248.875 C 113.566406 248.476562 113.167969 248.058594 112.789062 247.621094 C 112.410156 247.1875 112.054688 246.730469 111.71875 246.257812 C 111.382812 245.785156 111.074219 245.300781 110.785156 244.796875 C 110.5 244.292969 110.238281 243.777344 110.003906 243.25 C 109.765625 242.722656 109.554688 242.183594 109.375 241.632812 C 109.191406 241.085938 109.035156 240.527344 108.90625 239.964844 C 108.777344 239.398438 108.675781 238.832031 108.605469 238.257812 C 108.53125 237.683594 108.488281 237.105469 108.472656 236.527344 C 108.457031 235.949219 108.46875 235.371094 108.511719 234.792969 C 108.550781 234.21875 108.621094 233.644531 108.71875 233.074219 C 108.816406 232.503906 108.941406 231.9375 109.09375 231.378906 C 109.246094 230.820312 109.425781 230.273438 109.632812 229.730469 C 109.839844 229.191406 110.074219 228.664062 110.332031 228.144531 C 110.589844 227.628906 110.875 227.125 111.183594 226.632812 C 111.492188 226.144531 111.824219 225.671875 112.179688 225.214844 C 112.535156 224.757812 112.910156 224.320312 113.308594 223.898438 C 113.707031 223.476562 114.125 223.078125 114.5625 222.699219 C 115 222.320312 115.453125 221.964844 115.925781 221.628906 C 116.398438 221.296875 116.886719 220.984375 117.386719 220.699219 C 117.890625 220.414062 118.40625 220.152344 118.9375 219.917969 C 119.464844 219.679688 120.003906 219.472656 120.550781 219.289062 C 121.101562 219.105469 121.65625 218.949219 122.222656 218.824219 C 122.785156 218.695312 123.355469 218.59375 123.929688 218.523438 C 124.503906 218.449219 125.082031 218.40625 125.660156 218.390625 C 126.238281 218.375 126.816406 218.390625 127.394531 218.429688 C 127.96875 218.472656 128.542969 218.542969 129.113281 218.640625 C 129.683594 218.738281 130.25 218.863281 130.808594 219.015625 C 131.363281 219.171875 131.914062 219.351562 132.453125 219.558594 C 132.996094 219.765625 133.523438 220 134.039062 220.257812 L 143.796875 225.140625 L 143.796875 130.109375 L 108.480469 130.109375 C 107.902344 130.109375 107.328125 130.082031 106.75 130.023438 C 106.175781 129.96875 105.605469 129.882812 105.035156 129.769531 C 104.46875 129.65625 103.910156 129.515625 103.355469 129.347656 C 102.800781 129.179688 102.257812 128.984375 101.722656 128.765625 C 101.191406 128.542969 100.667969 128.296875 100.15625 128.023438 C 99.648438 127.75 99.152344 127.453125 98.671875 127.132812 C 98.191406 126.8125 97.726562 126.46875 97.28125 126.101562 C 96.832031 125.734375 96.40625 125.347656 95.996094 124.9375 C 95.585938 124.527344 95.199219 124.101562 94.832031 123.652344 C 94.464844 123.207031 94.121094 122.742188 93.800781 122.261719 C 93.480469 121.78125 93.183594 121.285156 92.910156 120.773438 C 92.636719 120.265625 92.390625 119.742188 92.167969 119.207031 C 91.945312 118.675781 91.753906 118.128906 91.585938 117.578125 C 91.417969 117.023438 91.277344 116.464844 91.164062 115.894531 C 91.050781 115.328125 90.964844 114.757812 90.910156 114.183594 C 90.851562 113.605469 90.824219 113.03125 90.824219 112.453125 C 90.824219 111.875 90.851562 111.296875 90.910156 110.722656 C 90.964844 110.144531 91.050781 109.574219 91.164062 109.007812 C 91.277344 108.441406 91.417969 107.878906 91.585938 107.324219 C 91.753906 106.773438 91.945312 106.230469 92.167969 105.695312 C 92.390625 105.160156 92.636719 104.636719 92.910156 104.128906 C 93.183594 103.617188 93.480469 103.121094 93.800781 102.640625 C 94.121094 102.160156 94.464844 101.695312 94.832031 101.25 C 95.199219 100.800781 95.585938 100.375 95.996094 99.964844 C 96.40625 99.558594 96.832031 99.167969 97.28125 98.800781 C 97.726562 98.433594 98.191406 98.089844 98.671875 97.769531 C 99.152344 97.449219 99.648438 97.152344 100.15625 96.878906 C 100.667969 96.605469 101.191406 96.359375 101.722656 96.136719 C 102.257812 95.917969 102.800781 95.722656 103.355469 95.554688 C 103.910156 95.386719 104.46875 95.246094 105.035156 95.132812 C 105.605469 95.019531 106.175781 94.9375 106.75 94.878906 C 107.328125 94.824219 107.902344 94.792969 108.480469 94.792969 L 161.453125 94.792969 C 162.03125 94.792969 162.609375 94.824219 163.183594 94.878906 C 163.761719 94.9375 164.332031 95.019531 164.898438 95.132812 C 165.464844 95.246094 166.027344 95.386719 166.578125 95.554688 C 167.132812 95.722656 167.675781 95.917969 168.210938 96.136719 C 168.746094 96.359375 169.265625 96.605469 169.777344 96.878906 C 170.289062 97.152344 170.78125 97.449219 171.261719 97.769531 C 171.746094 98.089844 172.207031 98.433594 172.65625 98.800781 C 173.101562 99.167969 173.53125 99.558594 173.9375 99.964844 C 174.347656 100.375 174.734375 100.800781 175.101562 101.25 C 175.46875 101.695312 175.8125 102.160156 176.136719 102.640625 C 176.457031 103.121094 176.753906 103.617188 177.027344 104.128906 C 177.296875 104.636719 177.546875 105.160156 177.765625 105.695312 C 177.988281 106.230469 178.183594 106.773438 178.351562 107.324219 C 178.519531 107.878906 178.660156 108.441406 178.773438 109.007812 C 178.882812 109.574219 178.96875 110.144531 179.027344 110.722656 C 179.082031 111.296875 179.109375 111.875 179.109375 112.453125 L 179.109375 253.710938 C 179.109375 254.289062 179.082031 254.867188 179.027344 255.441406 C 178.96875 256.015625 178.882812 256.585938 178.773438 257.15625 C 178.660156 257.722656 178.519531 258.28125 178.351562 258.835938 C 178.183594 259.390625 177.988281 259.933594 177.765625 260.46875 C 177.546875 261 177.296875 261.523438 177.027344 262.035156 C 176.753906 262.542969 176.457031 263.039062 176.136719 263.519531 C 175.8125 264 175.46875 264.464844 175.101562 264.910156 C 174.734375 265.359375 174.347656 265.785156 173.9375 266.195312 C 173.53125 266.605469 173.101562 266.992188 172.65625 267.359375 C 172.207031 267.726562 171.746094 268.070312 171.261719 268.390625 C 170.78125 268.710938 170.289062 269.011719 169.777344 269.28125 C 169.265625 269.554688 168.746094 269.800781 168.210938 270.023438 C 167.675781 270.246094 167.132812 270.4375 166.578125 270.605469 C 166.027344 270.773438 165.464844 270.914062 164.898438 271.027344 C 164.332031 271.140625 163.761719 271.226562 163.183594 271.28125 C 162.609375 271.339844 162.03125 271.367188 161.453125 271.367188 Z M 161.453125 271.367188 " fill-opacity="1" fill-rule="nonzero"/><path fill="#ffde59" d="M 214.425781 271.367188 C 213.359375 271.367188 212.300781 271.269531 211.25 271.074219 C 210.199219 270.882812 209.175781 270.597656 208.175781 270.21875 C 207.175781 269.839844 206.222656 269.371094 205.308594 268.820312 C 204.394531 268.265625 203.539062 267.636719 202.738281 266.929688 C 201.9375 266.21875 201.210938 265.445312 200.550781 264.605469 C 199.890625 263.765625 199.3125 262.875 198.816406 261.929688 C 198.320312 260.984375 197.910156 260 197.59375 258.980469 C 197.273438 257.960938 197.050781 256.921875 196.917969 255.863281 C 196.789062 254.804688 196.753906 253.738281 196.816406 252.675781 C 196.882812 251.609375 197.039062 250.554688 197.292969 249.519531 C 197.546875 248.480469 197.890625 247.476562 198.328125 246.5 C 198.761719 245.527344 199.28125 244.597656 199.886719 243.71875 C 200.492188 242.835938 201.167969 242.019531 201.921875 241.261719 C 202.675781 240.503906 203.492188 239.820312 204.367188 239.210938 C 205.242188 238.601562 206.167969 238.078125 207.140625 237.632812 C 208.113281 237.191406 209.117188 236.84375 210.152344 236.582031 L 233.988281 230.632812 L 238.203125 200.738281 L 223.253906 200.738281 C 222.386719 200.738281 221.523438 200.695312 220.660156 200.609375 C 219.796875 200.527344 218.9375 200.398438 218.085938 200.230469 C 217.238281 200.058594 216.394531 199.847656 215.566406 199.597656 C 214.734375 199.347656 213.921875 199.054688 213.117188 198.722656 C 212.316406 198.390625 211.535156 198.019531 210.769531 197.609375 C 210.003906 197.203125 209.261719 196.757812 208.539062 196.273438 C 207.816406 195.792969 207.121094 195.277344 206.453125 194.726562 C 205.78125 194.175781 205.140625 193.59375 204.527344 192.980469 C 203.914062 192.367188 203.332031 191.726562 202.78125 191.054688 C 202.230469 190.382812 201.714844 189.6875 201.230469 188.96875 C 200.75 188.246094 200.304688 187.503906 199.894531 186.738281 C 199.488281 185.972656 199.117188 185.1875 198.785156 184.386719 C 198.453125 183.585938 198.160156 182.769531 197.910156 181.941406 C 197.65625 181.109375 197.445312 180.269531 197.277344 179.417969 C 197.109375 178.570312 196.980469 177.710938 196.894531 176.847656 C 196.8125 175.984375 196.769531 175.121094 196.769531 174.253906 L 196.769531 121.28125 C 196.769531 120.414062 196.8125 119.546875 196.894531 118.683594 C 196.980469 117.820312 197.109375 116.964844 197.277344 116.113281 C 197.445312 115.261719 197.65625 114.421875 197.910156 113.589844 C 198.160156 112.761719 198.453125 111.945312 198.785156 111.144531 C 199.117188 110.34375 199.488281 109.558594 199.894531 108.792969 C 200.304688 108.03125 200.75 107.285156 201.230469 106.566406 C 201.714844 105.84375 202.230469 105.148438 202.78125 104.476562 C 203.332031 103.808594 203.914062 103.164062 204.527344 102.550781 C 205.140625 101.9375 205.78125 101.355469 206.453125 100.804688 C 207.121094 100.257812 207.816406 99.738281 208.539062 99.257812 C 209.261719 98.777344 210.003906 98.332031 210.769531 97.921875 C 211.535156 97.511719 212.316406 97.140625 213.117188 96.808594 C 213.921875 96.476562 214.734375 96.1875 215.566406 95.933594 C 216.394531 95.683594 217.238281 95.472656 218.085938 95.304688 C 218.9375 95.132812 219.796875 95.007812 220.660156 94.921875 C 221.523438 94.835938 222.386719 94.792969 223.253906 94.792969 L 267.398438 94.792969 C 267.976562 94.792969 268.554688 94.824219 269.128906 94.878906 C 269.703125 94.9375 270.273438 95.019531 270.84375 95.132812 C 271.410156 95.246094 271.96875 95.386719 272.523438 95.554688 C 273.078125 95.722656 273.621094 95.917969 274.15625 96.136719 C 274.6875 96.359375 275.210938 96.605469 275.722656 96.878906 C 276.230469 97.152344 276.726562 97.449219 277.207031 97.769531 C 277.6875 98.089844 278.152344 98.433594 278.597656 98.800781 C 279.046875 99.167969 279.472656 99.558594 279.882812 99.964844 C 280.292969 100.375 280.679688 100.800781 281.046875 101.25 C 281.414062 101.695312 281.757812 102.160156 282.078125 102.640625 C 282.402344 103.121094 282.699219 103.617188 282.96875 104.128906 C 283.242188 104.636719 283.488281 105.160156 283.710938 105.695312 C 283.933594 106.230469 284.125 106.773438 284.292969 107.324219 C 284.460938 107.878906 284.601562 108.441406 284.714844 109.007812 C 284.828125 109.574219 284.914062 110.144531 284.96875 110.722656 C 285.027344 111.296875 285.054688 111.875 285.054688 112.453125 C 285.054688 113.03125 285.027344 113.605469 284.96875 114.183594 C 284.914062 114.757812 284.828125 115.328125 284.714844 115.894531 C 284.601562 116.464844 284.460938 117.023438 284.292969 117.578125 C 284.125 118.128906 283.933594 118.675781 283.710938 119.207031 C 283.488281 119.742188 283.242188 120.265625 282.96875 120.773438 C 282.699219 121.285156 282.402344 121.78125 282.078125 122.261719 C 281.757812 122.742188 281.414062 123.207031 281.046875 123.652344 C 280.679688 124.101562 280.292969 124.527344 279.882812 124.9375 C 279.472656 125.347656 279.046875 125.734375 278.597656 126.101562 C 278.152344 126.46875 277.6875 126.8125 277.207031 127.132812 C 276.726562 127.453125 276.230469 127.75 275.722656 128.023438 C 275.210938 128.296875 274.6875 128.542969 274.15625 128.765625 C 273.621094 128.984375 273.078125 129.179688 272.523438 129.347656 C 271.96875 129.515625 271.410156 129.65625 270.84375 129.769531 C 270.273438 129.882812 269.703125 129.96875 269.128906 130.023438 C 268.554688 130.082031 267.976562 130.109375 267.398438 130.109375 L 232.082031 130.109375 L 232.082031 165.421875 L 248.378906 165.421875 C 249.25 165.421875 250.113281 165.464844 250.976562 165.550781 C 251.839844 165.636719 252.695312 165.761719 253.546875 165.933594 C 254.398438 166.101562 255.238281 166.3125 256.070312 166.5625 C 256.898438 166.816406 257.714844 167.109375 258.515625 167.441406 C 259.316406 167.773438 260.101562 168.140625 260.867188 168.550781 C 261.632812 168.960938 262.375 169.40625 263.09375 169.886719 C 263.816406 170.367188 264.511719 170.886719 265.183594 171.433594 C 265.855469 171.984375 266.496094 172.566406 267.109375 173.179688 C 267.722656 173.792969 268.304688 174.4375 268.855469 175.105469 C 269.40625 175.777344 269.921875 176.472656 270.402344 177.195312 C 270.886719 177.914062 271.332031 178.660156 271.738281 179.425781 C 272.148438 180.1875 272.519531 180.972656 272.851562 181.773438 C 273.183594 182.574219 273.472656 183.390625 273.726562 184.222656 C 273.976562 185.050781 274.1875 185.890625 274.359375 186.742188 C 274.527344 187.59375 274.652344 188.449219 274.738281 189.3125 C 274.824219 190.175781 274.867188 191.042969 274.867188 191.910156 C 274.867188 193.1875 274.769531 194.457031 274.585938 195.722656 L 267.222656 247.371094 C 267.097656 248.234375 266.910156 249.085938 266.664062 249.921875 C 266.414062 250.757812 266.101562 251.570312 265.734375 252.363281 C 265.363281 253.152344 264.9375 253.914062 264.453125 254.640625 C 263.972656 255.367188 263.4375 256.054688 262.855469 256.703125 C 262.269531 257.351562 261.640625 257.953125 260.96875 258.507812 C 260.292969 259.0625 259.582031 259.566406 258.832031 260.015625 C 258.085938 260.464844 257.308594 260.855469 256.503906 261.191406 C 255.695312 261.523438 254.867188 261.796875 254.023438 262.007812 L 218.707031 270.835938 C 217.300781 271.191406 215.875 271.367188 214.425781 271.367188 Z M 239.648438 190.65625 Z M 239.648438 190.65625 " fill-opacity="1" fill-rule="nonzero"/></svg>