<svg xmlns="http://www.w3.org/2000/svg" xmlns:xlink="http://www.w3.org/1999/xlink" width="500" zoomAndPan="magnify" viewBox="0 0 375 374.999991" height="500" preserveAspectRatio="xMidYMid meet" version="1.0"><defs><clipPath id="74be04ba0b"><path d="M 106 13.101562 L 269 13.101562 L 269 361.851562 L 106 361.851562 Z M 106 13.101562 " clip-rule="nonzero"/></clipPath></defs><g clip-path="url(#74be04ba0b)"><path fill="#01ec64" d="M 217.402344 52.527344 C 202.835938 35.222656 190.289062 17.648438 187.726562 14 C 187.667969 13.9375 187.59375 13.886719 187.511719 13.851562 C 187.429688 13.816406 187.34375 13.796875 187.253906 13.796875 C 187.167969 13.796875 187.078125 13.816406 186.996094 13.851562 C 186.917969 13.886719 186.84375 13.9375 186.78125 14 C 184.21875 17.648438 171.675781 35.222656 157.105469 52.527344 C 32.0625 212.167969 176.800781 319.902344 176.800781 319.902344 L 178.015625 320.714844 C 179.09375 337.339844 181.792969 361.269531 181.792969 361.269531 L 192.582031 361.269531 C 192.582031 361.269531 195.28125 337.476562 196.359375 320.714844 L 197.574219 319.769531 C 197.707031 319.90625 342.445312 212.167969 217.402344 52.527344 Z M 187.1875 317.46875 C 187.1875 317.46875 180.710938 311.929688 178.957031 309.089844 L 178.957031 308.816406 L 186.78125 134.984375 C 186.78125 134.441406 187.59375 134.441406 187.59375 134.984375 L 195.414062 308.816406 L 195.414062 309.089844 C 193.660156 311.929688 187.1875 317.46875 187.1875 317.46875 Z M 187.1875 317.46875 " fill-opacity="1" fill-rule="nonzero"/></g></svg>