<svg xmlns="http://www.w3.org/2000/svg" xmlns:xlink="http://www.w3.org/1999/xlink" width="500" zoomAndPan="magnify" viewBox="0 0 375 374.999991" height="500" preserveAspectRatio="xMidYMid meet" version="1.0"><defs><clipPath id="0de5445e4c"><path d="M 69.203125 112 L 193 112 L 193 288 L 69.203125 288 Z M 69.203125 112 " clip-rule="nonzero"/></clipPath><clipPath id="d779237b76"><path d="M 69.203125 93 L 305.453125 93 L 305.453125 352.035156 L 69.203125 352.035156 Z M 69.203125 93 " clip-rule="nonzero"/></clipPath><clipPath id="d756dc61d0"><path d="M 69.203125 24 L 162 24 L 162 288 L 69.203125 288 Z M 69.203125 24 " clip-rule="nonzero"/></clipPath></defs><path fill="#ffa000" d="M 224.820312 143.011719 L 192.101562 173.484375 L 161.738281 112.183594 L 177.449219 76.925781 C 181.539062 69.769531 187.910156 69.851562 191.894531 76.925781 Z M 224.820312 143.011719 " fill-opacity="1" fill-rule="nonzero"/><g clip-path="url(#0de5445e4c)"><path fill="#f57f17" d="M 161.738281 112.183594 L 192.101562 173.484375 L 69.816406 287.339844 Z M 161.738281 112.183594 " fill-opacity="1" fill-rule="nonzero"/></g><g clip-path="url(#d779237b76)"><path fill="#ffca28" d="M 260.609375 96.4375 C 266.453125 90.8125 272.5 92.734375 274.042969 100.699219 L 305.875 285.828125 L 200.363281 349.222656 C 196.6875 351.269531 186.878906 352.148438 186.878906 352.148438 C 186.878906 352.148438 177.953125 351.082031 174.550781 349.078125 L 69.816406 287.339844 Z M 260.609375 96.4375 " fill-opacity="1" fill-rule="nonzero"/></g><g clip-path="url(#d756dc61d0)"><path fill="#ffa000" d="M 161.738281 112.183594 L 69.824219 287.339844 L 110.761719 31.351562 C 112.273438 23.378906 116.808594 22.609375 120.855469 29.644531 Z M 161.738281 112.183594 " fill-opacity="1" fill-rule="nonzero"/></g></svg>