<svg xmlns="http://www.w3.org/2000/svg" xmlns:xlink="http://www.w3.org/1999/xlink" width="500" zoomAndPan="magnify" viewBox="0 0 375 374.999991" height="500" preserveAspectRatio="xMidYMid meet" version="1.0"><defs><clipPath id="c11e9cfd7e"><path d="M 17.453125 7 L 357 7 L 357 368 L 17.453125 368 Z M 17.453125 7 " clip-rule="nonzero"/></clipPath></defs><g clip-path="url(#c11e9cfd7e)"><path fill="#e23237" d="M 17.453125 66.960938 L 184.988281 7.316406 L 356.933594 66.039062 L 329.148438 287.667969 L 184.988281 367.433594 L 43.171875 288.703125 Z M 17.453125 66.960938 " fill-opacity="1" fill-rule="nonzero"/></g><path fill="#b52e31" d="M 356.933594 66.039062 L 184.988281 7.316406 L 184.988281 367.433594 L 329.148438 287.667969 Z M 356.933594 66.039062 " fill-opacity="1" fill-rule="nonzero"/><path fill="#ffffff" d="M 185.25 49.40625 L 80.847656 281.679688 L 119.808594 280.890625 L 140.84375 228.40625 L 234.21875 228.40625 L 257.078125 281.296875 L 294.226562 282.085938 Z M 185.507812 123.972656 L 220.832031 197.761719 L 154.703125 197.761719 L 185.609375 123.972656 Z M 185.507812 123.972656 " fill-opacity="1" fill-rule="nonzero"/></svg>