<?xml version="1.0" encoding="utf-8"?>
<!-- Generator: Adobe Illustrator 27.5.0, SVG Export Plug-In . SVG Version: 6.00 Build 0)  -->
<svg version="1.1" xmlns="http://www.w3.org/2000/svg" xmlns:xlink="http://www.w3.org/1999/xlink" x="0px" y="0px"
	 viewBox="0 0 750 500" style="enable-background:new 0 0 750 500;" xml:space="preserve">
<g id="BACKGROUND">
	<linearGradient id="SVGID_1_" gradientUnits="userSpaceOnUse" x1="375" y1="500" x2="375" y2="-9.094947e-13">
		<stop  offset="0.2667" style="stop-color:#6CB4C8"/>
		<stop  offset="0.5101" style="stop-color:#62B2C7"/>
		<stop  offset="0.569" style="stop-color:#4FA1B9"/>
		<stop  offset="0.6729" style="stop-color:#3488A5"/>
		<stop  offset="0.7787" style="stop-color:#217696"/>
		<stop  offset="0.8866" style="stop-color:#166C8E"/>
		<stop  offset="1" style="stop-color:#12688B"/>
	</linearGradient>
	<rect style="fill:url(#SVGID_1_);" width="750" height="500"/>
</g>
<g id="OBJECTS">
	<g>
		<defs>
			<rect id="SVGID_00000120542062332649165450000005411370473851771320_" width="750" height="500"/>
		</defs>
		<clipPath id="SVGID_00000081633741738822981830000010032954586369051779_">
			<use xlink:href="#SVGID_00000120542062332649165450000005411370473851771320_"  style="overflow:visible;"/>
		</clipPath>
		<path style="clip-path:url(#SVGID_00000081633741738822981830000010032954586369051779_);fill:#FFFFFF;" d="M614.799,118.644
			c0-9.772,5.196-18.308,12.957-23.068c-0.283-0.009-0.56-0.043-0.846-0.043c-14.951,0-27.072,12.12-27.072,27.072
			c0,14.951,12.121,27.072,27.072,27.072c5.179,0,10.002-1.48,14.115-4.003C626.469,145.222,614.799,133.31,614.799,118.644z"/>
		<g style="clip-path:url(#SVGID_00000081633741738822981830000010032954586369051779_);">
			<path style="fill:#D1AB9D;" d="M4.799,1.9c0,1.05-0.85,1.899-1.899,1.899C1.85,3.799,1,2.949,1,1.9C1,0.85,1.85,0,2.899,0
				C3.948,0,4.799,0.85,4.799,1.9"/>
			<path style="fill:#D1AB9D;" d="M176.881,74.904c0,1.049-0.85,1.899-1.899,1.899c-1.049,0-1.9-0.85-1.9-1.899
				c0-1.049,0.85-1.899,1.9-1.899C176.03,73.005,176.881,73.855,176.881,74.904"/>
			<path style="fill:#D1AB9D;" d="M222.866,133.467c0,1.049-0.851,1.9-1.902,1.9c-1.046,0-1.897-0.851-1.897-1.9
				s0.851-1.9,1.897-1.9C222.015,131.567,222.866,132.418,222.866,133.467"/>
			<path style="fill:#D1AB9D;" d="M573.19,26.668c0,1.05-0.851,1.899-1.9,1.899c-1.049,0-1.899-0.85-1.899-1.899
				c0-1.048,0.85-1.9,1.899-1.9C572.339,24.769,573.19,25.62,573.19,26.668"/>
			<path style="fill:#D1AB9D;" d="M381.552,26.668c0,1.05-0.848,1.899-1.897,1.899c-1.049,0-1.899-0.85-1.899-1.899
				c0-1.048,0.85-1.9,1.899-1.9C380.704,24.769,381.552,25.62,381.552,26.668"/>
			<path style="fill:#D1AB9D;" d="M358.086,74.904c0,1.049-0.848,1.899-1.897,1.899c-1.049,0-1.9-0.85-1.9-1.899
				c0-1.049,0.85-1.899,1.9-1.899C357.238,73.005,358.086,73.855,358.086,74.904"/>
			<path style="fill:#D1AB9D;" d="M730.855,131.492c0,1.049-0.85,1.899-1.899,1.899c-1.049,0-1.899-0.85-1.899-1.899
				c0-1.049,0.85-1.9,1.899-1.9C730.004,129.593,730.855,130.443,730.855,131.492"/>
			<path style="fill:#D1AB9D;" d="M98.659,12.329c0,1.049-0.848,1.899-1.897,1.899c-1.049,0-1.899-0.85-1.899-1.899
				c0-1.049,0.851-1.9,1.899-1.9C97.811,10.429,98.659,11.28,98.659,12.329"/>
			<path style="fill:#D1AB9D;" d="M317.673,100.977c0,1.049-0.848,1.899-1.897,1.899s-1.899-0.85-1.899-1.899
				c0-1.049,0.85-1.899,1.899-1.899S317.673,99.928,317.673,100.977"/>
			<path style="fill:#D1AB9D;" d="M438.323,160.076c0,0.741,0.601,1.342,1.342,1.342c0.743,0,1.345-0.601,1.345-1.342
				c0-0.741-0.601-1.342-1.345-1.342C438.924,158.734,438.323,159.335,438.323,160.076"/>
			<path style="fill:#D1AB9D;" d="M542.668,137.743c0,0.743,0.601,1.344,1.342,1.344c0.741,0,1.342-0.601,1.342-1.344
				c0-0.741-0.601-1.342-1.342-1.342C543.269,136.402,542.668,137.002,542.668,137.743"/>
			<path style="fill:#D1AB9D;" d="M235.446,7.202c0,0.742,0.601,1.343,1.344,1.343c0.741,0,1.342-0.601,1.342-1.343
				c0-0.74-0.601-1.341-1.342-1.341C236.047,5.861,235.446,6.462,235.446,7.202"/>
			<path style="fill:#D1AB9D;" d="M496.806,5.468c0,0.741,0.601,1.343,1.342,1.343s1.344-0.602,1.344-1.343
				c0-0.74-0.603-1.342-1.344-1.342S496.806,4.728,496.806,5.468"/>
			<path style="fill:#D1AB9D;" d="M256.393,158.895c0,0.738,0.601,1.342,1.344,1.342c0.741,0,1.342-0.603,1.342-1.342
				c0-0.744-0.601-1.344-1.342-1.344C256.994,157.55,256.393,158.151,256.393,158.895"/>
			<path style="fill:#D1AB9D;" d="M279.284,88.902c0,0.742,0.601,1.343,1.344,1.343c0.741,0,1.342-0.601,1.342-1.343
				c0-0.74-0.601-1.343-1.342-1.343C279.885,87.559,279.284,88.162,279.284,88.902"/>
			<path style="fill:#D1AB9D;" d="M148.336,128.632c0,0.741,0.602,1.342,1.342,1.342c0.743,0,1.344-0.601,1.344-1.342
				c0-0.741-0.601-1.342-1.344-1.342C148.938,127.29,148.336,127.891,148.336,128.632"/>
			<path style="fill:#D1AB9D;" d="M70.093,158.105c0,0.741,0.601,1.342,1.342,1.342c0.741,0,1.344-0.601,1.344-1.342
				c0-0.741-0.603-1.342-1.344-1.342C70.694,156.763,70.093,157.364,70.093,158.105"/>
			<path style="fill:#D1AB9D;" d="M20.002,193.154c0-0.741-0.601-1.342-1.343-1.342c-0.742,0-1.343,0.601-1.343,1.342
				c0,0.741,0.601,1.342,1.343,1.342C19.401,194.495,20.002,193.895,20.002,193.154"/>
			<path style="fill:#D1AB9D;" d="M178.206,118.503c0-0.741-0.601-1.342-1.342-1.342c-0.742,0-1.342,0.601-1.342,1.342
				c0,0.743,0.6,1.344,1.342,1.344C177.605,119.847,178.206,119.246,178.206,118.503"/>
			<path style="fill:#D1AB9D;" d="M735.462,158.895c0-0.743-0.603-1.344-1.342-1.344c-0.744,0-1.344,0.601-1.344,1.344
				c0,0.738,0.601,1.342,1.344,1.342C734.859,160.237,735.462,159.634,735.462,158.895"/>
			<path style="fill:#D1AB9D;" d="M6.141,99.077c0-0.742-0.601-1.343-1.342-1.343c-0.742,0-1.344,0.601-1.344,1.343
				c0,0.741,0.602,1.343,1.344,1.343C5.54,100.421,6.141,99.818,6.141,99.077"/>
			<path style="fill:#D1AB9D;" d="M667.931,35.452c0-0.74-0.604-1.342-1.342-1.342c-0.744,0-1.347,0.602-1.347,1.342
				c0,0.742,0.603,1.343,1.347,1.343C667.327,36.795,667.931,36.194,667.931,35.452"/>
			<path style="fill:#D1AB9D;" d="M595.971,216.908c0-0.741-0.603-1.342-1.342-1.342c-0.744,0-1.344,0.601-1.344,1.342
				s0.601,1.344,1.344,1.344C595.368,218.252,595.971,217.649,595.971,216.908"/>
			<path style="fill:#D1AB9D;" d="M397.817,172.584c0-0.741-0.603-1.342-1.342-1.342c-0.744,0-1.344,0.601-1.344,1.342
				s0.601,1.344,1.344,1.344C397.213,173.928,397.817,173.325,397.817,172.584"/>
			<path style="fill:#D1AB9D;" d="M676.71,25.023c0,0.741,0.604,1.343,1.342,1.343c0.743,0,1.344-0.602,1.344-1.343
				c0-0.74-0.601-1.343-1.344-1.343C677.314,23.68,676.71,24.282,676.71,25.023"/>
			<path style="fill:#D1AB9D;" d="M674.864,152.376c0,0.738,0.603,1.342,1.342,1.342c0.744,0,1.347-0.604,1.347-1.342
				c0-0.744-0.603-1.344-1.347-1.344C675.467,151.032,674.864,151.633,674.864,152.376"/>
			<path style="fill:#D1AB9D;" d="M482.662,89.707c0,0.741,0.601,1.343,1.342,1.343c0.741,0,1.342-0.602,1.342-1.343
				c0-0.741-0.601-1.342-1.342-1.342C483.263,88.366,482.662,88.967,482.662,89.707"/>
			<path style="fill:#D1AB9D;" d="M337.729,10.24c0,0.742,0.601,1.342,1.344,1.342c0.741,0,1.342-0.601,1.342-1.342
				c0-0.74-0.601-1.342-1.342-1.342C338.33,8.898,337.729,9.5,337.729,10.24"/>
			<path style="fill:#D1AB9D;" d="M313.573,147.814c0,0.741,0.601,1.342,1.342,1.342c0.741,0,1.344-0.601,1.344-1.342
				c0-0.741-0.603-1.342-1.344-1.342C314.174,146.472,313.573,147.073,313.573,147.814"/>
			<path style="fill:#D1AB9D;" d="M178.836,10.76c0.335-0.661,0.074-1.469-0.588-1.806c-0.66-0.336-1.469-0.073-1.803,0.588
				c-0.339,0.662-0.076,1.469,0.586,1.806C177.693,11.684,178.5,11.42,178.836,10.76"/>
			<path style="fill:#D1AB9D;" d="M592.505,26.999c0.336-0.661,0.071-1.469-0.588-1.804c-0.662-0.338-1.469-0.074-1.808,0.586
				c-0.336,0.661-0.071,1.469,0.591,1.806C591.359,27.923,592.166,27.659,592.505,26.999"/>
			<path style="fill:#D1AB9D;" d="M220.377,180.255c0.336-0.662,0.074-1.469-0.588-1.805c-0.662-0.336-1.469-0.074-1.806,0.588
				c-0.335,0.659-0.073,1.469,0.589,1.805C219.232,181.18,220.041,180.915,220.377,180.255"/>
			<path style="fill:#D1AB9D;" d="M252.493,157.033c0,1.049-0.85,1.899-1.9,1.899c-1.049,0-1.899-0.85-1.899-1.899
				c0-1.049,0.85-1.9,1.899-1.9C251.642,155.134,252.493,155.984,252.493,157.033"/>
			<path style="fill:#D1AB9D;" d="M191.218,20.15c0,1.05-0.848,1.899-1.897,1.899c-1.049,0-1.899-0.85-1.899-1.899
				c0-1.048,0.85-1.899,1.899-1.899C190.371,18.25,191.218,19.102,191.218,20.15"/>
			<path style="fill:#D1AB9D;" d="M636.444,109.226c0,0.741,0.601,1.345,1.342,1.345c0.741,0,1.342-0.604,1.342-1.345
				c0-0.741-0.601-1.342-1.342-1.342C637.045,107.884,636.444,108.485,636.444,109.226"/>
			<path style="fill:#D1AB9D;" d="M632.223,118.922c0-0.741-0.603-1.342-1.342-1.342c-0.743,0-1.344,0.601-1.344,1.342
				c0,0.741,0.601,1.345,1.344,1.345C631.62,120.266,632.223,119.663,632.223,118.922"/>
			<path style="fill:#D1AB9D;" d="M716.881,65.547c0,0.741,0.601,1.342,1.342,1.342c0.743,0,1.344-0.601,1.344-1.342
				c0-0.741-0.601-1.343-1.344-1.343C717.482,64.204,716.881,64.806,716.881,65.547"/>
			<path style="fill:#D1AB9D;" d="M391.983,16.239c0,1.05-0.85,1.899-1.899,1.899s-1.899-0.85-1.899-1.899
				c0-1.048,0.85-1.899,1.899-1.899S391.983,15.191,391.983,16.239"/>
			<path style="fill:#D1AB9D;" d="M38.35,102.876c0,1.049-0.848,1.899-1.897,1.899c-1.049,0-1.899-0.85-1.899-1.899
				c0-1.049,0.85-1.899,1.899-1.899C37.502,100.977,38.35,101.827,38.35,102.876"/>
			<path style="fill:#D1AB9D;" d="M16.888,47.961c0,1.049-0.85,1.9-1.899,1.9c-1.049,0-1.899-0.85-1.899-1.9
				c0-1.049,0.85-1.899,1.899-1.899C16.037,46.062,16.888,46.912,16.888,47.961"/>
			<path style="fill:#D1AB9D;" d="M510.012,50.127c0,1.049-0.85,1.9-1.899,1.9c-1.049,0-1.9-0.85-1.9-1.9
				c0-1.049,0.85-1.899,1.9-1.899C509.162,48.228,510.012,49.078,510.012,50.127"/>
			<path style="fill:#D1AB9D;" d="M112.014,59.41c0,0.741,0.601,1.342,1.342,1.342c0.741,0,1.342-0.601,1.342-1.342
				c0-0.741-0.601-1.342-1.342-1.342C112.615,58.069,112.014,58.669,112.014,59.41"/>
			<path style="fill:#D1AB9D;" d="M80.943,100.635c0,0.742,0.601,1.343,1.342,1.343c0.741,0,1.344-0.601,1.344-1.343
				c0-0.741-0.603-1.343-1.344-1.343C81.544,99.291,80.943,99.894,80.943,100.635"/>
			<path style="fill:#D1AB9D;" d="M605.294,72.784c0,0.742,0.601,1.343,1.339,1.343c0.743,0,1.344-0.601,1.344-1.343
				c0-0.741-0.601-1.343-1.344-1.343C605.895,71.441,605.294,72.043,605.294,72.784"/>
			<path style="fill:#D1AB9D;" d="M600.141,194.498c0-0.741-0.603-1.344-1.342-1.344c-0.743,0-1.347,0.604-1.347,1.344
				c0,0.741,0.603,1.342,1.347,1.342C599.537,195.84,600.141,195.239,600.141,194.498"/>
			<path style="fill:#D1AB9D;" d="M50.959,34.148c0,0.742,0.601,1.343,1.342,1.343c0.742,0,1.345-0.601,1.345-1.343
				c0-0.741-0.602-1.343-1.345-1.343C51.56,32.805,50.959,33.407,50.959,34.148"/>
			<path style="fill:#D1AB9D;" d="M539.921,202.518c0,0.743,0.603,1.345,1.344,1.345c0.741,0,1.342-0.601,1.342-1.345
				c0-0.741-0.601-1.342-1.342-1.342C540.524,201.177,539.921,201.778,539.921,202.518"/>
			<path style="fill:#D1AB9D;" d="M65.829,110.433c0.336-0.662,0.074-1.469-0.586-1.805c-0.662-0.336-1.472-0.074-1.808,0.588
				c-0.336,0.659-0.071,1.469,0.591,1.805C64.685,111.357,65.494,111.092,65.829,110.433"/>
			<path style="fill:#D1AB9D;" d="M484.004,200.573c0,0.743,0.601,1.344,1.344,1.344c0.741,0,1.342-0.601,1.342-1.344
				c0-0.741-0.601-1.342-1.342-1.342C484.605,199.231,484.004,199.832,484.004,200.573"/>
			<path style="fill:#D1AB9D;" d="M463.454,156.435c0-0.741-0.603-1.342-1.342-1.342c-0.743,0-1.344,0.601-1.344,1.342
				s0.601,1.342,1.344,1.342C462.85,157.777,463.454,157.176,463.454,156.435"/>
			<path style="fill:#D1AB9D;" d="M548.228,54.603c0,0.741,0.603,1.342,1.342,1.342c0.743,0,1.347-0.601,1.347-1.342
				c0-0.741-0.604-1.342-1.347-1.342C548.831,53.261,548.228,53.862,548.228,54.603"/>
			<path style="fill:#D1AB9D;" d="M557.975,173.887c0,1.049-0.851,1.899-1.9,1.899s-1.899-0.85-1.899-1.899
				c0-1.049,0.85-1.9,1.899-1.9S557.975,172.838,557.975,173.887"/>
			<path style="fill:#D1AB9D;" d="M561.446,117.178c0,0.738,0.603,1.342,1.342,1.342c0.744,0,1.347-0.604,1.347-1.342
				c0-0.743-0.603-1.344-1.347-1.344C562.05,115.833,561.446,116.434,561.446,117.178"/>
			<path style="fill:#D1AB9D;" d="M394.662,36.808c0.252,0.696,1.021,1.058,1.719,0.807c0.696-0.253,1.059-1.025,0.807-1.721
				c-0.252-0.697-1.023-1.059-1.721-0.805C394.769,35.34,394.41,36.109,394.662,36.808"/>
			<path style="fill:#D1AB9D;" d="M438.904,115.874c0,0.738,0.601,1.342,1.342,1.342c0.743,0,1.347-0.604,1.347-1.342
				c0-0.743-0.604-1.344-1.347-1.344C439.505,114.53,438.904,115.131,438.904,115.874"/>
			<path style="fill:#D1AB9D;" d="M380.996,129.593c0-0.741-0.601-1.342-1.342-1.342c-0.743,0-1.344,0.601-1.344,1.342
				c0,0.741,0.601,1.342,1.344,1.342C380.396,130.935,380.996,130.334,380.996,129.593"/>
			<path style="fill:#D1AB9D;" d="M72.038,188.362c0,0.741,0.603,1.342,1.342,1.342c0.743,0,1.344-0.601,1.344-1.342
				c0-0.741-0.601-1.344-1.344-1.344C72.641,187.017,72.038,187.621,72.038,188.362"/>
			<path style="fill:#D1AB9D;" d="M356.744,155.134c0,0.741,0.603,1.344,1.342,1.344c0.743,0,1.344-0.604,1.344-1.344
				c0-0.741-0.601-1.342-1.344-1.342C357.347,153.792,356.744,154.393,356.744,155.134"/>
			<path style="fill:#D1AB9D;" d="M644.128,200.612c0-0.741-0.604-1.342-1.344-1.342c-0.741,0-1.342,0.601-1.342,1.342
				c0,0.741,0.601,1.344,1.342,1.344C643.524,201.956,644.128,201.353,644.128,200.612"/>
			<path style="fill:#D1AB9D;" d="M450.632,50.198c0,0.741,0.603,1.342,1.342,1.342c0.743,0,1.344-0.601,1.344-1.342
				c0-0.741-0.601-1.344-1.344-1.344C451.236,48.854,450.632,49.457,450.632,50.198"/>
			<path style="fill:#D1AB9D;" d="M507.09,168.339c0-0.741-0.603-1.344-1.342-1.344c-0.743,0-1.347,0.604-1.347,1.344
				c0,0.741,0.603,1.342,1.347,1.342C506.487,169.68,507.09,169.079,507.09,168.339"/>
		</g>
		<g style="opacity:0.2;clip-path:url(#SVGID_00000081633741738822981830000010032954586369051779_);">
			<path style="fill:#D1AB9D;" d="M580.895,150.088c6.375-2.404,15.155-5.244,22.991-2.534c9.34,3.228,12.958,0.129,22.814-1.874
				c9.281-2.007,16.819-4.809,25.514,0c11.019-6.414,21.458,1.602,33.634,0.401c15.078-1.605,20.875-7.214,37.697-4.809
				c36.084,5.67,14.918,3.32,57.603-1.218c3.918-0.418,14.194,1.269,14.775,1.663c11.014-18.032,48.818-9.265,59.833,2.36
				c2.901-6.013,17.98-8.02,19.714,0c8.7-3.207,17.047-0.895,22.346,1.602c6.631,3.126,13.61-0.799,21.147,0
				c7.536,0.803,29.572,4.408,35.955,8.013L580.895,150.088z"/>
			<path style="fill:#D1AB9D;" d="M603.252,3.075C639.425-2.55,675.6,2.136,713.585-0.987c15.376-1.252,47.029-16.566,59.69-7.816
				c1.355-9.06,20.345-10.623,26.223-3.123c2.714-4.689,10.854-5.938,17.641-5.002c1.805-6.561,18.087-9.064,26.679-7.812
				c11.757,1.563,15.373,7.187,18.087,14.064c2.71,7.811,0,9.375,12.661,10.624c6.782,0.628,17.632-1.249,16.732,3.439
				L603.252,3.075z"/>
			<path style="fill:#D1AB9D;" d="M-20.419,230.095c4.426-1.666,10.516-3.632,15.946-1.758c6.479,2.238,8.989,0.092,15.821-1.299
				c6.432-1.391,11.658-3.333,17.691,0c7.643-4.449,14.879,1.112,23.323,0.279c10.452-1.112,14.472-5.003,26.133-3.333
				c25.023,3.928,10.346,2.299,39.946-0.847c2.719-0.289,9.841,0.881,10.239,1.156c7.642-12.506,33.856-6.425,41.491,1.633
				c2.013-4.166,12.467-5.557,13.675,0c6.029-2.221,11.82-0.616,15.493,1.112c4.594,2.166,9.432-0.558,14.659,0
				c5.227,0.558,20.509,3.057,24.934,5.557L-20.419,230.095z"/>
			<path style="fill:#D1AB9D;" d="M-85.182,179.419c25.083-3.901,50.168-0.65,76.505-2.82c10.66-0.864,32.608-11.482,41.39-5.418
				c0.938-6.285,14.106-7.367,18.183-2.166c1.883-3.251,7.526-4.119,12.228-3.466c1.255-4.554,12.544-6.285,18.498-5.421
				c8.154,1.085,10.664,4.989,12.546,9.754c1.878,5.418,0,6.499,8.777,7.367c4.704,0.435,12.226-0.867,11.598,2.384L-85.182,179.419
				z"/>
			<path style="fill:#D1AB9D;" d="M294.404,118.694c-36.175-5.63-72.353-0.942-110.336-4.064
				c-15.37-1.253-47.027-16.567-59.688-7.815c-1.356-9.063-20.348-10.626-26.229-3.126c-2.709-4.688-10.853-5.937-17.637-5.001
				c-1.806-6.564-18.087-9.063-26.679-7.813c-11.757,1.563-15.371,7.187-18.087,14.064c-2.714,7.811,0,9.376-12.659,10.626
				c-6.784,0.624-17.633-1.25-16.735,3.437L294.404,118.694z"/>
			<path style="fill:#D1AB9D;" d="M153.468,76.857c9.944-0.415,22.576-5.787,31.954-4.167c15.676,2.708,18.994-5.207,32.557-3.126
				c15.717,2.599,35.908,2.997,47.633,2.292c14.467-0.835,24.418-5,38.283-1.665c6.632,1.665-0.602,4.581,17.791,1.458
				c6.957-1.183,9.641-1.25,17.785-0.628c13.864,1.252,30.142,0.628,41.602,1.252c-9.348,0.835-34.668-0.417-50.346,1.878
				c-19.293,2.5-30.447,3.747-50.042,1.665c-15.375-1.876-34.066-2.502-49.741-1.252c-16.882,1.044-25.925,7.086-44.014,3.752
				c-8.138-1.665-11.159-1.665-19.295-1.252c-5.425,0.211-12.059,0.626-20.499,0.417L153.468,76.857z"/>
			<path style="fill:#D1AB9D;" d="M459.707,310.503c9.95-0.415,22.573-5.785,31.949-4.166c15.681,2.711,18.996-5.207,32.559-3.126
				c15.721,2.599,35.909,2.996,47.634,2.292c14.47-0.836,24.417-5.003,38.287-1.666c6.628,1.666-0.607,4.581,17.786,1.459
				c6.959-1.184,9.64-1.252,17.783-0.629c13.868,1.255,30.151,0.629,41.602,1.255c-9.346,0.833-34.664-0.418-50.343,1.871
				c-19.295,2.5-30.452,3.751-50.047,1.67c-15.371-1.877-34.062-2.5-49.737-1.252c-16.881,1.044-25.926,7.085-44.015,3.751
				c-8.14-1.67-11.154-1.67-19.29-1.252c-5.428,0.207-12.059,0.626-20.501,0.418L459.707,310.503z"/>
			<path style="fill:#D1AB9D;" d="M311.873,189.313c9.947-0.415,22.578-5.785,31.955-4.166c15.676,2.711,18.99-5.21,32.554-3.126
				c15.72,2.598,35.909,2.996,47.633,2.292c14.47-0.837,24.42-5,38.286-1.667c6.633,1.667-0.602,4.585,17.786,1.459
				c6.956-1.184,9.644-1.255,17.785-0.629c13.867,1.255,30.147,0.629,41.602,1.255c-9.342,0.83-34.663-0.418-50.341,1.874
				c-19.293,2.5-30.449,3.748-50.044,1.667c-15.372-1.877-34.062-2.5-49.742-1.252c-16.878,1.044-25.921,7.088-44.01,3.751
				c-8.141-1.666-11.159-1.666-19.295-1.248c-5.426,0.204-12.059,0.622-20.499,0.415L311.873,189.313z"/>
			<path style="fill:#D1AB9D;" d="M-165.491,25.922c22.374-0.415,50.788-5.788,71.883-4.166c35.261,2.711,42.722-5.209,73.234-3.126
				c35.358,2.598,80.771,2.997,107.15,2.292c32.552-0.832,54.926-4.999,86.123-1.667c14.919,1.667-1.362,4.585,40.012,1.459
				c15.65-1.182,21.7-1.249,40.007-0.624c31.196,1.251,67.817,0.624,93.581,1.251c-21.015,0.832-77.981-0.419-113.244,1.873
				c-43.396,2.5-68.494,3.751-112.576,1.67c-34.582-1.878-76.627-2.505-111.894-1.253c-37.975,1.041-58.313,7.084-99.003,3.751
				c-18.313-1.669-25.091-1.669-43.4-1.251c-12.207,0.208-27.127,0.626-46.115,0.417L-165.491,25.922z"/>
			<path style="fill:#D1AB9D;" d="M385.329,99.948c22.376-0.415,50.787-5.787,71.881-4.166c35.267,2.71,42.722-5.208,73.237-3.125
				c35.355,2.598,80.768,2.996,107.148,2.293c32.552-0.835,54.927-5.001,86.122-1.667c14.924,1.667-1.361,4.586,40.012,1.461
				c15.651-1.183,21.701-1.252,40.01-0.628c31.193,1.25,67.818,0.628,93.581,1.25C876.304,96.2,819.34,94.95,784.074,97.24
				c-43.396,2.502-68.493,3.749-112.576,1.667c-34.582-1.873-76.627-2.502-111.892-1.249c-37.971,1.041-58.315,7.083-99.002,3.749
				c-18.312-1.665-25.095-1.665-43.403-1.247c-12.209,0.207-27.127,0.624-46.115,0.412L385.329,99.948z"/>
			<path style="fill:#D1AB9D;" d="M593.825,225.521c22.38-0.415,50.793-5.785,71.888-4.166c35.263,2.711,42.719-5.207,73.237-3.122
				c35.355,2.595,80.769,2.997,107.148,2.293c32.548-0.837,54.925-5.006,86.117-1.67c14.923,1.67-1.353,4.585,40.016,1.459
				c15.651-1.18,21.699-1.252,40.011-0.626c31.191,1.251,67.809,0.626,93.58,1.251c-21.02,0.833-77.983-0.415-113.246,1.874
				c-43.402,2.5-68.489,3.751-112.574,1.666c-34.583-1.874-76.63-2.5-111.896-1.248c-37.97,1.037-58.314,7.085-99.006,3.751
				c-18.31-1.67-25.094-1.67-43.403-1.248c-12.199,0.204-27.122,0.622-46.109,0.415L593.825,225.521z"/>
		</g>
		<g style="clip-path:url(#SVGID_00000081633741738822981830000010032954586369051779_);">
			<g>
				<path style="opacity:0.7;fill:#474F73;" d="M-114.511,477.755c4.167,4.25,8.313,6.346,13.928,7.322
					c9.412,1.637,21.806-0.013,31.04-0.208c25.171-0.531,50.352-0.962,75.515-1.892c76.286-2.822,152.613-4.029,228.946-4.664
					c90.23-0.752,180.313-3.418,270.504-5.853c71.16-1.921,142.404-0.769,213.531-3.745c59.956-2.509,119.61-10.113,179.488-14.076
					c25.861-1.712,52.285-2.175,77.901-6.459c12.783-2.139,2.636-60.298,1.696-67.796c-2.371-18.913-5.462-37.719-8.897-56.461
					c-1.657-9.039-0.636-13.38,0.846-21.819c1.696-9.668-1.856-18-6.34-26.438c-7.798-14.664-17.613-30.895-33.707-33.962
					c-4.721-0.9-9.602-0.534-14.34-1.341c-17.038-2.904-29.265-20.201-46.398-22.456c-7.834-1.031-15.685,1.264-23.564,1.793
					c-12.162,0.817-24.219-2.579-36.401-2.958c-22.682-0.708-44.228,8.948-65.806,16.108c-16.007,5.312-33.466,9.413-50.343,6.569
					c-16.115-2.715-27.627-6.218-43.421,2.495c-3.618,1.997-7.035,4.455-10.936,5.797c-14.119,4.861-28.202-4.2-41.503,4.291
					c-11.894,7.591-25.061,12.012-37.516,19.05c-4.1,2.316-8.174,4.93-12.786,5.79c-3.598,0.672-7.291,0.227-10.935-0.096
					c-11.807-1.047-23.764-0.793-35.426,1.36c-14.736,2.719-29.145,8.523-44.239,8.922c-12.826,0.34-22.995-6.297-35.324-9.107
					c-9.784-2.231-18.347,0.427-27.822-0.595c-17.448-1.881-31.606-14.297-48.767-17.204c-15.821-2.68-27.354,3.285-41.52-8.86
					c-3.319-2.845-6.371-6.314-10.506-7.646c-3.609-1.163-7.504-0.512-11.289-0.401c-12.629,0.371-24.533-5.346-36.401-9.754
					c-10.131-3.762-14.687-0.792-23.927,0.806c-8.828,1.526-17.128-4.72-25.944-2.68c-3.072,0.711-5.788,2.476-8.466,4.163
					c-13.836,8.72-26.05,12.712-41.985,13.53c-16.403,0.842-34.662,0.631-50.497,5.394c-6.262,1.885-12.228,4.743-18.565,6.352
					c-16.849,4.278-31.762-0.875-48.048-3.425c-17.67-2.766-36.371-1.256-54.277-1.258c-40.519-0.003-68.089-26.012-104.357-39.372
					C-131.369,216.969-121.821,470.305-114.511,477.755z"/>
				<path style="fill:#474F73;" d="M890.058,485.788c-22.718,9.882-48.07,14.882-72.239,19.017
					c-75.958,13-153.947,8.504-230.667,5.423c-165.479-6.643-328.455-31.095-492.911-48.042
					c-76.098-7.843-151.719-8.515-228.074-7.765c-9.867,0.098-29.174,3.126-37.571-3.091c-13.44-9.95-6.04-43.82-5.262-59.081
					c1.853-36.476,8.598-77.279-13.949-155.008c22.686,0,47.149,13.024,69.343,5.656c12.702-4.217,21.056-9.772,34.66-6.494
					c16.406,3.953,24.954,2.571,40.759-3.983c11.189-4.641,25.365-14.436,37.86-14.446c15.17-0.013,30.889,14.333,44.525,20.105
					c21.933,9.283,42.362,5.897,65.219,8.547c27.6,3.201,50.299,10.776,75.459,20.606c8.445,3.3,17.771,4.386,26.663,6.261
					c13.45,2.836,26.337,7.453,39.656,10.658c13.115,3.156,18.881-0.956,31.311-4.305c13.284-3.579,27.565-3.549,40.784,0.332
					c9.475,2.782,18.337-0.401,27.766-1.244c10.759-0.962,17.023,5.755,27.376,7.615c11.089,1.992,22.22-2.177,32.981-5.503
					c6.72-2.077,13.904-3.854,20.719-2.119c3.49,0.889,6.682,2.654,10.054,3.914c9.689,3.619,19.863,1.353,29.801,1.56
					c7.785,0.162,21.545,2.158,27.88-3.458c2.966-2.632,5.265-6.934,9.233-6.945c2.719-0.008,5.275,2.185,7.916,1.535
					c1.642-0.404,2.81-1.803,3.928-3.071c9.955-11.287,16.602-10.071,30.173-11.847c11.705-1.531,20.286-10.665,29.678-16.901
					c7.727-5.133,15.935-14.145,25.823-13.091c7.531,0.802,14.112,5.195,20.583,9.126c9.867,5.994,20.223,11.184,30.932,15.502
					c5.826,2.35,11.846,4.461,18.113,4.911c11.129,0.798,21.877-3.667,32.86-5.626c14.107-2.515,28.942-0.8,42.106,4.869
					c5.232,2.254,10.263,5.134,15.82,6.396c10.366,2.354,21.036-1.183,31.599-2.371c10.577-1.19,21.417,0.021,31.468,3.516
					c5.897,2.051,11.587,4.89,17.756,5.845c9.48,1.467,19.007-1.648,28.57-2.422c10.945-0.885,22.124,1.384,31.858,6.465
					c3.855,2.013,7.611,4.585,9.809,8.338c4.474,7.635,1.261,17.208,0.652,26.037c-0.778,11.33,2.989,22.401,5.446,33.488
					c2.46,11.087,3.454,23.381-2.289,33.176c-0.342-0.948-2.669-1.313-2.704-0.305c-0.776,22.513,2.858,44.407,2.79,66.77
					C914.262,462.806,907.804,478.065,890.058,485.788z"/>
				<g>
					<g>
						<polygon style="fill:#3C4668;" points="-16.166,330.232 -9.319,292.475 -1.254,330.232 						"/>
						<polygon style="fill:#3C4668;" points="126.926,327.653 131.801,300.777 137.541,327.653 						"/>
						<polygon style="fill:#3C4668;" points="192.672,327.653 197.546,300.777 203.287,327.653 						"/>
						<polygon style="fill:#3C4668;" points="206.852,327.653 211.726,300.777 217.467,327.653 						"/>
						<polygon style="fill:#3C4668;" points="316.427,333.669 321.302,306.793 327.043,333.669 						"/>
						<polygon style="fill:#3C4668;" points="517.96,330.661 522.835,303.785 528.575,330.661 						"/>
						<polygon style="fill:#3C4668;" points="545.032,330.661 549.906,303.785 555.647,330.661 						"/>
						<polygon style="fill:#3C4668;" points="-28.643,330.232 -21.794,292.479 -13.729,330.232 						"/>
						<polygon style="fill:#3C4668;" points="-77.905,330.232 -68.562,278.728 -57.559,330.232 						"/>
						<polygon style="fill:#3C4668;" points="-117.868,330.232 -108.524,278.728 -97.522,330.232 						"/>
						<polygon style="fill:#3C4668;" points="718.217,327.652 711.37,294.936 703.306,327.652 						"/>
						<polygon style="fill:#3C4668;" points="730.694,327.652 723.845,294.939 715.779,327.652 						"/>
						<polygon style="fill:#3C4668;" points="779.956,327.652 770.612,283.024 759.609,327.652 						"/>
						<polygon style="fill:#3C4668;" points="819.918,327.652 810.575,283.024 799.572,327.652 						"/>
					</g>
					<path style="fill:#063756;" d="M-210.652,358.326c4.39,0.626,8.756,0.935,14.669,1.079c9.913,0.24,22.965-0.003,32.691-0.031
						c26.514-0.079,53.033-0.142,79.537-0.279c80.346-0.416,160.734-0.593,241.13-0.687c95.033-0.111,189.909-0.504,284.901-0.862
						c74.949-0.283,149.984-0.113,224.898-0.551c63.146-0.37,125.977-1.49,189.041-2.073c27.238-0.252,55.068-0.321,82.047-0.951
						c13.464-0.316,2.778-8.88,1.788-9.984c-2.498-2.785-5.753-5.554-9.37-8.314c-1.745-1.331-0.67-1.97,0.89-3.213
						c1.786-1.424-1.953-2.651-6.677-3.893c-8.212-2.16-18.55-4.55-35.5-5.002c-4.973-0.133-10.114-0.079-15.104-0.198
						c-17.946-0.427-30.824-2.974-48.87-3.307c-8.25-0.152-16.518,0.186-24.818,0.264c-12.809,0.12-25.507-0.38-38.338-0.435
						c-23.889-0.105-46.583,1.317-69.308,2.372c-16.861,0.782-35.247,1.386-53.023,0.967c-16.973-0.4-29.096-0.916-45.732,0.368
						c-3.812,0.294-7.41,0.656-11.518,0.854c-14.87,0.715-29.703-0.619-43.713,0.632c-12.526,1.117-26.393,1.768-39.512,2.805
						c-4.317,0.341-8.609,0.726-13.464,0.853c-3.789,0.099-7.679,0.033-11.517-0.014c-12.437-0.154-25.03-0.117-37.313,0.201
						c-15.52,0.4-30.696,1.255-46.595,1.313c-13.508,0.05-24.218-0.927-37.202-1.341c-10.305-0.328-19.326,0.064-29.304-0.087
						c-18.378-0.277-33.288-2.105-51.362-2.534c-16.663-0.394-28.81,0.485-43.729-1.304c-3.496-0.419-6.71-0.93-11.066-1.126
						c-3.803-0.172-7.904-0.076-11.891-0.06c-13.3,0.055-25.838-0.787-38.339-1.436c-10.669-0.553-15.467-0.116-25.201,0.119
						c-9.298,0.224-18.039-0.695-27.326-0.394c-3.234,0.104-6.096,0.364-8.916,0.612c-14.573,1.284-27.437,1.872-44.22,1.992
						c-17.273,0.124-36.506,0.093-53.183,0.794c-6.597,0.278-12.88,0.699-19.555,0.936c-17.744,0.629-33.452-0.129-50.606-0.505
						c-18.608-0.407-38.306-0.185-57.163-0.185c-42.678-0.001-71.716-3.831-109.913-5.798
						C-228.406,319.923-218.351,357.229-210.652,358.326z"/>
				</g>
			</g>
			<g style="opacity:0.75;">
				<g>
					<path style="fill:#C9C899;" d="M620.65,363.587c11.148-0.682,22.402-0.682,33.551,0
						C643.051,364.269,631.798,364.269,620.65,363.587L620.65,363.587z"/>
				</g>
				<g>
					<path style="fill:#C9C899;" d="M601.229,366.233c11.735-0.682,23.578-0.682,35.315,0
						C624.805,366.915,612.965,366.915,601.229,366.233L601.229,366.233z"/>
				</g>
				<g>
					<path style="fill:#C9C899;" d="M648.018,366.233c8.499-0.682,17.104-0.682,25.604,0
						C665.122,366.915,656.518,366.914,648.018,366.233L648.018,366.233z"/>
				</g>
				<g>
					<path style="fill:#C9C899;" d="M640.073,369.754c4.705-0.685,9.423-0.69,14.128,0
						C649.497,370.444,644.778,370.439,640.073,369.754L640.073,369.754z"/>
				</g>
				<g>
					<path style="fill:#C9C899;" d="M598.578,369.31c10.559-0.682,21.223-0.682,31.784,0
						C619.801,369.992,609.138,369.992,598.578,369.31L598.578,369.31z"/>
				</g>
				<g>
					<path style="fill:#C9C899;" d="M618.003,371.951c14.971-0.677,30.104-0.663,45.026,0.88
						C648.683,372.629,632.301,372.615,618.003,371.951L618.003,371.951z"/>
				</g>
				<g>
					<path style="fill:#C9C899;" d="M633.012,375.472c5.293-0.685,10.597-0.69,15.89,0
						C643.61,376.163,638.305,376.157,633.012,375.472L633.012,375.472z"/>
				</g>
				<g>
					<path style="fill:#C9C899;" d="M638.306,378.993c1.632-0.684,3.3-0.689,4.932,0
						C641.607,379.683,639.938,379.678,638.306,378.993L638.306,378.993z"/>
				</g>
				<g>
					<path style="fill:#C9C899;" d="M663.03,370.63c8.218-0.684,16.572-1.137,24.716,0.442
						C679.477,370.871,671.283,371.316,663.03,370.63L663.03,370.63z"/>
				</g>
				<g>
					<path style="fill:#C9C899;" d="M659.496,364.029c9.688-0.686,19.506-1.119,29.131,0.442
						C679.18,364.284,668.895,364.699,659.496,364.029L659.496,364.029z"/>
				</g>
				<g>
					<path style="fill:#C9C899;" d="M682.448,367.109c4.115-0.685,8.246-0.69,12.361,0
						C690.694,367.8,686.564,367.794,682.448,367.109L682.448,367.109z"/>
				</g>
				<g>
					<path style="fill:#C9C899;" d="M668.325,373.27c4.703-0.685,9.421-0.69,14.124,0
						C677.745,373.961,673.028,373.955,668.325,373.27L668.325,373.27z"/>
				</g>
				<g>
					<path style="fill:#C9C899;" d="M598.578,373.707c5.587-0.685,11.186-0.69,16.774,0
						C609.765,374.397,604.166,374.392,598.578,373.707L598.578,373.707z"/>
				</g>
				<g>
					<path style="fill:#C9C899;" d="M612.707,376.357c4.703-0.685,9.42-0.69,14.124,0
						C622.128,377.047,617.411,377.042,612.707,376.357L612.707,376.357z"/>
				</g>
				<g>
					<path style="fill:#C9C899;" d="M661.261,375.914c3.82-0.685,7.657-0.69,11.476,0
						C668.918,376.604,665.081,376.599,661.261,375.914L661.261,375.914z"/>
				</g>
				<g>
					<path style="fill:#C9C899;" d="M660.38,378.993c1.754-0.684,3.542-0.69,5.295,0
						C663.921,379.683,662.133,379.678,660.38,378.993L660.38,378.993z"/>
				</g>
			</g>
			<g>
				<rect y="356" style="fill:#FFFFFF;" width="750" height="144"/>
				
					<linearGradient id="SVGID_00000052105926073956887220000011080083598121686700_" gradientUnits="userSpaceOnUse" x1="375" y1="500" x2="375" y2="356">
					<stop  offset="0" style="stop-color:#00819B"/>
					<stop  offset="1" style="stop-color:#7EB9CB"/>
				</linearGradient>
				<rect y="356" style="fill:url(#SVGID_00000052105926073956887220000011080083598121686700_);" width="750" height="144"/>
				<g style="opacity:0.3;">
					<defs>
						
							<rect id="SVGID_00000155138845558780393400000006463385087843731593_" y="356.192" style="opacity:0.3;" width="750" height="143.808"/>
					</defs>
					<clipPath id="SVGID_00000073717953883880334530000006308882179944839041_">
						<use xlink:href="#SVGID_00000155138845558780393400000006463385087843731593_"  style="overflow:visible;"/>
					</clipPath>
					<g style="clip-path:url(#SVGID_00000073717953883880334530000006308882179944839041_);">
						
							<linearGradient id="SVGID_00000178927481330450515420000011384893490955858050_" gradientUnits="userSpaceOnUse" x1="627.6297" y1="663.7379" x2="627.6297" y2="516.6069" gradientTransform="matrix(-1 0 -0.2458 1 1239.9928 -164.7383)">
							<stop  offset="0" style="stop-color:#FFFFFF;stop-opacity:0"/>
							<stop  offset="1" style="stop-color:#FFFFFF"/>
						</linearGradient>
						<polygon style="fill:url(#SVGID_00000178927481330450515420000011384893490955858050_);" points="488.86,499 407.614,499 
							445.74,351.869 526.984,351.869 						"/>
						
							<linearGradient id="SVGID_00000126286808277454454580000012652618527479093131_" gradientUnits="userSpaceOnUse" x1="412.639" y1="663.7379" x2="412.639" y2="516.6069" gradientTransform="matrix(-1 0 -0.2458 1 1239.9928 -164.7383)">
							<stop  offset="0" style="stop-color:#FFFFFF;stop-opacity:0"/>
							<stop  offset="1" style="stop-color:#FFFFFF"/>
						</linearGradient>
						<polygon style="fill:url(#SVGID_00000126286808277454454580000012652618527479093131_);" points="717.485,499 608.967,499 
							647.094,351.869 755.612,351.869 						"/>
						
							<linearGradient id="SVGID_00000085939042748662439790000013785741491128686524_" gradientUnits="userSpaceOnUse" x1="543.9903" y1="663.7379" x2="543.9903" y2="516.6069" gradientTransform="matrix(-1 0 -0.2458 1 1239.9928 -164.7383)">
							<stop  offset="0" style="stop-color:#FFFFFF;stop-opacity:0"/>
							<stop  offset="1" style="stop-color:#FFFFFF"/>
						</linearGradient>
						<polygon style="fill:url(#SVGID_00000085939042748662439790000013785741491128686524_);" points="541.351,499 522.402,499 
							560.527,351.869 579.474,351.869 						"/>
						
							<linearGradient id="SVGID_00000079448404426022327420000004630186020485320858_" gradientUnits="userSpaceOnUse" x1="751.0536" y1="663.7379" x2="751.0536" y2="516.6069" gradientTransform="matrix(-1 0 -0.2458 1 1239.9928 -164.7383)">
							<stop  offset="0" style="stop-color:#FFFFFF;stop-opacity:0"/>
							<stop  offset="1" style="stop-color:#FFFFFF"/>
						</linearGradient>
						<polygon style="fill:url(#SVGID_00000079448404426022327420000004630186020485320858_);" points="352.958,499 296.665,499 
							334.793,351.869 391.084,351.869 						"/>
					</g>
				</g>
				<g>
					<defs>
						<rect id="SVGID_00000061471634623375847560000012374999211238312593_" y="356.192" width="750" height="143.808"/>
					</defs>
					<clipPath id="SVGID_00000054951682802483182690000000894270100289799823_">
						<use xlink:href="#SVGID_00000061471634623375847560000012374999211238312593_"  style="overflow:visible;"/>
					</clipPath>
					<g style="opacity:0.2;clip-path:url(#SVGID_00000054951682802483182690000000894270100289799823_);">
						<path style="opacity:0.7;fill:#474F73;" d="M-105.397,230.981c4.167-3.181,8.313-4.75,13.928-5.48
							c9.412-1.225,21.805,0.009,31.04,0.156c25.171,0.398,50.352,0.72,75.515,1.416c76.285,2.113,152.613,3.015,228.946,3.491
							c90.23,0.563,180.313,2.558,270.504,4.381c71.16,1.438,142.404,0.576,213.531,2.803c59.956,1.878,119.61,7.569,179.488,10.535
							c25.86,1.281,52.285,1.628,77.901,4.835c12.783,1.601,2.636,45.131,1.696,50.743c-2.371,14.156-5.462,28.232-8.897,42.259
							c-1.657,6.765-0.636,10.014,0.846,16.331c1.696,7.237-1.856,13.472-6.34,19.788c-7.798,10.975-17.613,23.123-33.707,25.418
							c-4.721,0.675-9.602,0.4-14.34,1.005c-17.038,2.174-29.265,15.119-46.398,16.808c-7.834,0.772-15.685-0.946-23.564-1.342
							c-12.162-0.612-24.219,1.93-36.401,2.214c-22.682,0.53-44.228-6.697-65.806-12.057c-16.007-3.975-33.466-7.044-50.342-4.917
							c-16.115,2.033-27.627,4.655-43.421-1.868c-3.618-1.494-7.035-3.334-10.936-4.338c-14.119-3.639-28.202,3.143-41.503-3.212
							c-11.894-5.682-25.061-8.99-37.515-14.258c-4.1-1.733-8.174-3.69-12.786-4.333c-3.598-0.503-7.292-0.17-10.935,0.072
							c-11.807,0.784-23.765,0.594-35.426-1.018c-14.735-2.035-29.145-6.379-44.239-6.678c-12.826-0.255-22.995,4.712-35.324,6.816
							c-9.784,1.67-18.348-0.319-27.822,0.446c-17.449,1.408-31.605,10.7-48.767,12.876c-15.821,2.006-27.353-2.458-41.52,6.632
							c-3.319,2.129-6.371,4.725-10.506,5.722c-3.609,0.871-7.504,0.384-11.289,0.301c-12.629-0.278-24.532,4.002-36.401,7.301
							c-10.13,2.816-14.686,0.593-23.927-0.603c-8.828-1.142-17.128,3.533-25.944,2.006c-3.072-0.532-5.788-1.853-8.465-3.116
							c-13.836-6.527-26.05-9.514-41.985-10.126c-16.403-0.629-34.661-0.472-50.497-4.038c-6.262-1.411-12.228-3.549-18.565-4.754
							c-16.849-3.202-31.762,0.654-48.048,2.563c-17.669,2.071-36.371,0.94-54.277,0.942
							c-40.519,0.002-68.089,19.469-104.357,29.468C-122.255,426.172-112.707,236.557-105.397,230.981z"/>
						<path style="fill:#474F73;" d="M874.172,216.736c-22.718-7.397-48.07-11.138-72.239-14.234
							c-75.958-9.73-153.947-6.365-230.667-4.059c-165.479,4.972-328.455,23.274-492.911,35.958
							c-76.099,5.87-151.719,6.374-228.074,5.812c-9.867-0.073-29.174-2.34-37.571,2.313c-13.44,7.448-6.04,32.798-5.262,44.22
							c1.853,27.301,8.598,57.841-13.949,116.019c22.686,0,47.149-9.749,69.343-4.235c12.702,3.157,21.057,7.314,34.66,4.861
							c16.406-2.959,24.954-1.924,40.758,2.981c11.189,3.474,25.364,10.805,37.86,10.812c15.17,0.01,30.889-10.727,44.525-15.048
							c21.933-6.947,42.362-4.413,65.219-6.397c27.6-2.396,50.299-8.066,75.459-15.424c8.445-2.469,17.771-3.283,26.664-4.685
							c13.45-2.123,26.336-5.579,39.656-7.977c13.115-2.362,18.881,0.715,31.311,3.221c13.284,2.679,27.565,2.656,40.784-0.248
							c9.475-2.082,18.337,0.299,27.767,0.931c10.759,0.72,17.023-4.308,27.376-5.699c11.089-1.491,22.22,1.628,32.981,4.118
							c6.72,1.555,13.903,2.885,20.719,1.587c3.49-0.665,6.682-1.987,10.054-2.93c9.689-2.708,19.863-1.012,29.801-1.167
							c7.785-0.122,21.545-1.616,27.88,2.588c2.966,1.969,5.265,5.19,9.233,5.198c2.719,0.007,5.275-1.636,7.916-1.148
							c1.642,0.302,2.81,1.349,3.928,2.297c9.955,8.448,16.603,7.538,30.173,8.868c11.705,1.147,20.286,7.982,29.678,12.65
							c7.727,3.842,15.935,10.587,25.823,9.799c7.531-0.6,14.112-3.889,20.583-6.83c9.867-4.487,20.223-8.371,30.931-11.603
							c5.826-1.758,11.846-3.339,18.113-3.676c11.129-0.597,21.877,2.745,32.86,4.211c14.107,1.883,28.942,0.598,42.105-3.645
							c5.232-1.687,10.263-3.842,15.82-4.787c10.366-1.762,21.036,0.885,31.599,1.774c10.577,0.891,21.417-0.016,31.468-2.632
							c5.897-1.535,11.587-3.66,17.756-4.374c9.479-1.099,19.007,1.233,28.57,1.813c10.945,0.661,22.124-1.036,31.858-4.84
							c3.855-1.506,7.611-3.432,9.809-6.24c4.474-5.715,1.261-12.88,0.652-19.488c-0.778-8.48,2.989-16.767,5.446-25.065
							c2.46-8.299,3.454-17.5-2.289-24.831c-0.342,0.71-2.669,0.983-2.704,0.228c-0.775-16.85,2.858-33.237,2.79-49.975
							C898.376,233.937,891.918,222.516,874.172,216.736z"/>
						<g>
							<g>
								<polygon style="fill:#3C4668;" points="-0.052,336.16 6.795,364.419 14.86,336.16 								"/>
								<polygon style="fill:#3C4668;" points="143.04,338.09 147.915,358.205 153.655,338.09 								"/>
								<polygon style="fill:#3C4668;" points="208.786,338.09 213.66,358.205 219.401,338.09 								"/>
								<polygon style="fill:#3C4668;" points="222.966,338.09 227.84,358.205 233.581,338.09 								"/>
								<polygon style="fill:#3C4668;" points="332.542,333.586 337.416,353.703 343.157,333.586 								"/>
								<polygon style="fill:#3C4668;" points="534.074,335.837 538.949,355.954 544.689,335.837 								"/>
								<polygon style="fill:#3C4668;" points="561.146,335.837 566.02,355.954 571.761,335.837 								"/>
								<polygon style="fill:#3C4668;" points="-12.529,336.16 -5.68,364.416 2.386,336.16 								"/>
								<polygon style="fill:#3C4668;" points="-61.791,336.16 -52.448,374.708 -41.445,336.16 								"/>
								<polygon style="fill:#3C4668;" points="-101.754,336.16 -92.41,374.708 -81.408,336.16 								"/>
								<polygon style="fill:#3C4668;" points="734.331,338.09 727.484,362.577 719.42,338.09 								"/>
								<polygon style="fill:#3C4668;" points="746.808,338.09 739.959,362.575 731.893,338.09 								"/>
								<polygon style="fill:#3C4668;" points="796.07,338.09 786.726,371.492 775.723,338.09 								"/>
								<polygon style="fill:#3C4668;" points="836.032,338.09 826.689,371.492 815.686,338.09 								"/>
							</g>
							<path style="fill:#3C4668;" d="M-194.538,315.131c4.39-0.469,8.756-0.7,14.669-0.807c9.913-0.18,22.965,0.002,32.691,0.023
								c26.514,0.059,53.033,0.106,79.537,0.209c80.346,0.311,160.734,0.444,241.13,0.514c95.033,0.083,189.909,0.377,284.901,0.645
								c74.949,0.212,149.984,0.085,224.898,0.413c63.146,0.277,125.977,1.115,189.04,1.551c27.238,0.189,55.068,0.24,82.047,0.712
								c13.464,0.237,2.778,6.647,1.788,7.473c-2.498,2.084-5.753,4.157-9.37,6.224c-1.745,0.995-0.67,1.474,0.89,2.405
								c1.786,1.066-1.953,1.984-6.677,2.913c-8.212,1.617-18.55,3.405-35.5,3.744c-4.973,0.099-10.114,0.059-15.104,0.148
								c-17.946,0.32-30.824,2.226-48.87,2.474c-8.25,0.115-16.518-0.139-24.818-0.197c-12.81-0.09-25.507,0.284-38.338,0.326
								c-23.889,0.078-46.583-0.987-69.308-1.776c-16.861-0.584-35.247-1.036-53.023-0.724c-16.973,0.3-29.096,0.686-45.733-0.275
								c-3.812-0.22-7.41-0.49-11.518-0.639c-14.87-0.535-29.703,0.464-43.713-0.473c-12.526-0.837-26.393-1.323-39.512-2.099
								c-4.317-0.255-8.608-0.543-13.464-0.639c-3.789-0.073-7.679-0.025-11.517,0.011c-12.437,0.115-25.03,0.087-37.313-0.151
								c-15.52-0.299-30.696-0.939-46.595-0.982c-13.508-0.038-24.218,0.694-37.202,1.004c-10.306,0.246-19.326-0.048-29.304,0.065
								c-18.378,0.207-33.288,1.576-51.362,1.897c-16.663,0.295-28.81-0.363-43.729,0.976c-3.496,0.314-6.71,0.696-11.066,0.842
								c-3.803,0.129-7.903,0.056-11.89,0.044c-13.3-0.041-25.838,0.59-38.339,1.076c-10.669,0.414-15.467,0.087-25.201-0.09
								c-9.298-0.168-18.039,0.52-27.326,0.295c-3.234-0.077-6.096-0.272-8.916-0.458c-14.573-0.961-27.437-1.402-44.22-1.492
								c-17.273-0.093-36.506-0.07-53.183-0.595c-6.597-0.207-12.88-0.523-19.555-0.701c-17.744-0.471-33.452,0.097-50.606,0.379
								c-18.608,0.304-38.306,0.138-57.163,0.138c-42.678,0.001-71.716,2.868-109.913,4.34
								C-212.292,343.875-202.237,315.952-194.538,315.131z"/>
						</g>
					</g>
				</g>
			</g>
		</g>
	</g>
	<g>
		<defs>
			<rect id="SVGID_00000034782131478438279140000005810602649749047730_" width="750" height="500"/>
		</defs>
		<clipPath id="SVGID_00000004525493369098405660000015784524783667767472_">
			<use xlink:href="#SVGID_00000034782131478438279140000005810602649749047730_"  style="overflow:visible;"/>
		</clipPath>
		<g style="clip-path:url(#SVGID_00000004525493369098405660000015784524783667767472_);">
			<path id="XMLID_11_" style="fill:#063756;" d="M524.348,364.333c0,0,7.019,33.147,35.102,59.962
				c2.173,2.075,3.946,4.432,5.189,7.004c6.863,14.201,31.217,63.496,56.822,102.124h46.522c0,0-47.176-58.829-84.466-116.684
				c-2.15-3.336-5.126-6.231-8.721-8.489C564.904,402.039,543.018,386.918,524.348,364.333z"/>
			<path id="XMLID_12_" style="fill:#063756;" d="M691.104,310.476c0,0,2.561,33.785,26.841,64.087
				c1.879,2.345,3.323,4.916,4.214,7.63c4.919,14.986,22.522,67.074,42.779,108.757l46.111,6.169c0,0-38.958-64.565-68.248-126.854
				c-1.689-3.592-4.254-6.856-7.518-9.57C726.302,353.226,706.614,335.337,691.104,310.476z"/>
			<path id="XMLID_10_" style="fill:#063756;" d="M522.389,474.25c0,0,68.466,13.691,93.01,27.438
				c24.544,13.747,38.56,32.883,38.56,32.883h-61.818C592.141,534.571,576.273,501.688,522.389,474.25z"/>
			<path id="XMLID_1_" style="fill:#063756;" d="M745.589,548.449c0,0-65.146-10.828-96.889-131.312
				C648.7,417.137,740.908,475.128,745.589,548.449z"/>
			<g>
				<path style="fill:#063756;" d="M769.577,538.739c-33.532-68.848-45.239-127.18-49.155-163.991
					c-4.254-39.978-0.608-63.302-0.451-64.276l3.917,0.632c-0.038,0.235-3.724,23.906,0.499,63.409
					c3.896,36.458,15.519,94.243,48.757,162.489L769.577,538.739z"/>
				<path style="fill:#063756;" d="M728.643,242.466L728.643,242.466c2.542,0.263,4.817-1.585,5.079-4.128l0.748-7.234
					c0.263-2.542-1.585-4.816-4.128-5.079l0,0c-2.543-0.263-4.817,1.585-5.079,4.128l-0.748,7.234
					C724.253,239.929,726.101,242.203,728.643,242.466z"/>
				<g>
					<defs>
						<path id="XMLID_8_" d="M720.494,321.31L720.494,321.31c10.575,1.093,20.033-6.593,21.126-17.168l4.678-45.257
							c1.093-10.575-6.593-20.033-17.168-21.126h0c-10.575-1.093-20.033,6.593-21.126,17.168l-4.678,45.257
							C702.233,310.758,709.919,320.217,720.494,321.31z"/>
					</defs>
					<use xlink:href="#XMLID_8_"  style="overflow:visible;fill:#1B6591;"/>
					<clipPath id="XMLID_00000142135578555847086060000004783906414209172127_">
						<use xlink:href="#XMLID_8_"  style="overflow:visible;"/>
					</clipPath>
					<path id="XMLID_9_" style="clip-path:url(#XMLID_00000142135578555847086060000004783906414209172127_);fill:#063756;" d="
						M723.229,321.685L723.229,321.685c10.575,1.093,20.033-6.593,21.126-17.168l4.678-45.257
						c1.093-10.575-6.594-20.033-17.168-21.126h0c-10.575-1.093-20.033,6.593-21.126,17.168l-4.678,45.257
						C704.967,311.133,712.654,320.592,723.229,321.685z"/>
				</g>
			</g>
			<path id="XMLID_2_" style="fill:#063756;" d="M753.753,552.034c0,0-42.246-50.759,12.438-162.713
				C766.191,389.321,798.112,493.466,753.753,552.034z"/>
			<g>
				<path style="fill:#063756;" d="M730.546,526.602c-10.723-111.14-56.58-164.968-57.042-165.499l2.993-2.605
					c0.483,0.556,11.982,13.911,24.966,41.363c11.944,25.252,27.37,67.673,33.033,126.359L730.546,526.602z"/>
				<path style="fill:#063756;" d="M639.831,299.654L639.831,299.654c-2.214,1.278-5.044,0.52-6.322-1.694l-3.636-6.298
					c-1.278-2.214-0.52-5.044,1.694-6.322l0,0c2.214-1.278,5.044-0.52,6.322,1.694l3.636,6.298
					C642.803,295.546,642.045,298.376,639.831,299.654z"/>
				<g>
					<defs>
						<path id="XMLID_4_" d="M679.463,368.299L679.463,368.299c-9.207,5.316-20.98,2.161-26.295-7.046l-22.749-39.403
							c-5.316-9.207-2.161-20.979,7.046-26.295h0c9.207-5.315,20.979-2.161,26.295,7.046l22.749,39.403
							C691.824,351.211,688.67,362.983,679.463,368.299z"/>
					</defs>
					<use xlink:href="#XMLID_4_"  style="overflow:visible;fill:#1B6591;"/>
					<clipPath id="XMLID_00000062896024987810550080000004838007300775122353_">
						<use xlink:href="#XMLID_4_"  style="overflow:visible;"/>
					</clipPath>
					<path id="XMLID_5_" style="clip-path:url(#XMLID_00000062896024987810550080000004838007300775122353_);fill:#063756;" d="
						M678.924,371.36L678.924,371.36c-9.207,5.316-20.979,2.161-26.295-7.046l-22.749-39.403
						c-5.315-9.207-2.161-20.979,7.046-26.295h0c9.207-5.316,20.979-2.161,26.295,7.046l22.749,39.403
						C691.285,354.271,688.13,366.044,678.924,371.36z"/>
				</g>
			</g>
			<g>
				<path style="fill:#063756;" d="M713.185,576.257C680.909,469.368,625.4,425.56,624.843,425.13l2.425-3.141
					c0.583,0.451,14.474,11.296,32.581,35.674c16.657,22.425,40.091,61.004,57.134,117.446L713.185,576.257z"/>
				<path style="fill:#063756;" d="M579.79,371.464L579.79,371.464c-1.921,1.687-4.845,1.497-6.531-0.423l-4.799-5.464
					c-1.687-1.921-1.497-4.845,0.423-6.531l0,0c1.92-1.687,4.845-1.497,6.531,0.423l4.799,5.464
					C581.9,366.853,581.711,369.777,579.79,371.464z"/>
				<g>
					<defs>
						<path id="XMLID_6_" d="M632.095,431.02L632.095,431.02c-7.988,7.015-20.15,6.227-27.165-1.761l-30.024-34.186
							c-7.015-7.988-6.227-20.15,1.761-27.166h0c7.988-7.015,20.15-6.227,27.165,1.761l30.024,34.186
							C640.872,411.842,640.083,424.005,632.095,431.02z"/>
					</defs>
					<use xlink:href="#XMLID_6_"  style="overflow:visible;fill:#1B6591;"/>
					<clipPath id="XMLID_00000175317304676655866960000010699934431220835723_">
						<use xlink:href="#XMLID_6_"  style="overflow:visible;"/>
					</clipPath>
					<path id="XMLID_7_" style="clip-path:url(#XMLID_00000175317304676655866960000010699934431220835723_);fill:#063756;" d="
						M630.307,434.323L630.307,434.323c-7.988,7.015-20.15,6.227-27.166-1.761l-30.024-34.186
						c-7.015-7.988-6.227-20.15,1.761-27.166l0,0c7.988-7.015,20.15-6.227,27.166,1.761l30.024,34.186
						C639.083,415.145,638.295,427.307,630.307,434.323z"/>
				</g>
			</g>
			<path style="fill:#063756;" d="M733.477,336.347c0,0,62.666,30.791,82.863,50.372c20.198,19.581,28.837,41.672,28.837,41.672
				l-59.75-15.853C785.427,412.539,778.523,376.686,733.477,336.347z"/>
			<path style="fill:#063756;" d="M572.141,534.571c0,0-18.843-7.594-25.785-23.958c0,0-0.496,16.18,6.446,23.958H572.141z"/>
			<path style="fill:#063756;" d="M699.401,534.571c0,0-18.843-7.594-25.785-23.958c0,0-0.496,16.18,6.446,23.958H699.401z"/>
		</g>
		<g style="clip-path:url(#SVGID_00000004525493369098405660000015784524783667767472_);">
			<g>
				<path style="fill:#1B6591;" d="M3.705,376.03c0.299-0.468,0.568-0.948,0.813-1.436C3.98,374.728,3.674,375.39,3.705,376.03z"/>
				<path style="fill:#063756;" d="M46.186,404.281c-4.918-17.774-10.602-35.274-17.602-52.774
					c-2.235-4.47-8.94-12.292-14.527-7.822c-9.763,6.834-5.027,19.639-8.891,29.472c-0.11,0.472-0.222,0.944-0.354,1.409
					c-0.106-0.012-0.202,0.005-0.294,0.028c-0.245,0.488-0.514,0.967-0.813,1.436c0.015,0.3,0.096,0.593,0.273,0.821
					c0.62,0.798,1.647,1.335,1.909,2.311c0.334,1.246-0.74,2.367-1.546,3.374c-0.805,1.007-1.291,2.732-0.187,3.398
					c0.524,0.317,1.211,0.227,1.756,0.506c1.26,0.645,0.899,2.487,0.645,3.88c-0.254,1.393,0.598,3.429,1.903,2.879
					c-1.12-0.068-1.138-1.782-0.521-2.719c0.618-0.936,1.554-1.96,1.151-3.007c-0.468-1.218-2.476-1.445-2.63-2.741
					c-0.182-1.53,2.348-1.928,2.858-3.382c0.59-1.681-1.817-2.901-2.233-4.633c-0.265-1.102,0.326-2.206,0.818-3.227
					c2.983-6.187,2.844-13.409,4.963-19.943c0.32-0.985,0.726-2.003,1.541-2.643c1.397-1.096,3.552-0.639,4.867,0.555
					c1.315,1.194,1.981,2.926,2.556,4.606c4.44,12.964,6.118,26.683,7.769,40.286c1.143,9.412,2.285,18.824,3.428,28.236
					c4.953-1.033,11.717-2.678,16.671-3.711c1.103,2.955,2.558,7.693,3.436,10.63c-1.086-4.595-2.207-9.162-3.365-13.708
					C48.496,413.32,47.319,408.807,46.186,404.281z"/>
				<path style="fill:#1B6591;" d="M14.057,343.685c5.587-4.47,12.292,3.352,14.527,7.822c7,17.5,12.684,35,17.602,52.774
					c-3.785-15.118-7.153-30.363-12.521-44.967c-2.323-6.32-5.336-12.872-11.014-16.492c-2.035-1.298-4.418-2.169-6.827-2.024
					c-2.409,0.145-4.82,1.434-5.919,3.582c-4.388,8.575-2.535,19.365-4.738,28.777C9.03,363.324,4.294,350.519,14.057,343.685z"/>
				<path style="fill:#1B6591;" d="M54.891,433.746c-1.932-5.244-3.596-10.573-5.122-15.944c1.158,4.546,2.279,9.113,3.365,13.708
					c0.466,1.558,0.773,2.618,0.773,2.618L54.891,433.746z"/>
			</g>
			<g>
				<path style="fill:#1B6591;" d="M42.479,332.693c0.415-0.65,0.788-1.315,1.127-1.991
					C42.861,330.887,42.435,331.804,42.479,332.693z"/>
				<path style="fill:#063756;" d="M101.404,371.88c-6.822-24.655-14.706-48.929-24.416-73.203c-3.1-6.2-12.4-17.05-20.151-10.85
					c-13.542,9.48-6.973,27.241-12.332,40.881c-0.153,0.655-0.307,1.31-0.491,1.955c-0.147-0.017-0.28,0.007-0.408,0.039
					c-0.34,0.677-0.713,1.342-1.127,1.991c0.02,0.416,0.133,0.823,0.379,1.139c0.861,1.108,2.285,1.851,2.648,3.206
					c0.464,1.728-1.026,3.283-2.144,4.681c-1.117,1.397-1.791,3.789-0.259,4.714c0.727,0.439,1.68,0.315,2.436,0.702
					c1.748,0.895,1.247,3.45,0.894,5.382c-0.352,1.932,0.83,4.757,2.639,3.994c-1.553-0.094-1.579-2.472-0.722-3.771
					c0.857-1.299,2.155-2.718,1.597-4.171c-0.649-1.689-3.434-2.005-3.648-3.801c-0.252-2.123,3.257-2.674,3.965-4.691
					c0.819-2.331-2.52-4.024-3.098-6.426c-0.368-1.529,0.452-3.059,1.135-4.476c4.138-8.582,3.945-18.6,6.885-27.663
					c0.443-1.366,1.007-2.779,2.137-3.666c1.938-1.52,4.927-0.886,6.751,0.769c1.824,1.656,2.748,4.06,3.546,6.39
					c6.159,17.982,8.486,37.012,10.776,55.881c1.585,13.056,3.17,26.111,4.755,39.167c6.871-1.433,16.253-3.714,23.124-5.147
					c1.53,4.099,3.548,10.671,4.767,14.745c-1.507-6.374-3.062-12.708-4.668-19.015C104.609,384.417,102.976,378.158,101.404,371.88
					z"/>
				<path style="fill:#1B6591;" d="M56.838,287.827c7.75-6.2,17.05,4.65,20.151,10.85c9.709,24.274,17.594,48.548,24.416,73.203
					c-5.25-20.971-9.923-42.116-17.368-62.374c-3.222-8.767-7.402-17.854-15.277-22.877c-2.823-1.8-6.129-3.009-9.471-2.807
					c-3.342,0.201-6.686,1.989-8.21,4.969c-6.086,11.895-3.516,26.861-6.573,39.917C49.866,315.068,43.296,297.307,56.838,287.827z"
					/>
				<path style="fill:#1B6591;" d="M113.479,412.751c-2.68-7.274-4.988-14.665-7.104-22.116c1.606,6.306,3.161,12.641,4.668,19.015
					c0.646,2.161,1.072,3.632,1.072,3.632L113.479,412.751z"/>
			</g>
			<g>
				<path style="fill:#1B6591;" d="M396.806,360.742c-0.299-0.468-0.568-0.948-0.813-1.436
					C396.531,359.441,396.837,360.102,396.806,360.742z"/>
				<path style="fill:#063756;" d="M354.325,388.993c4.918-17.774,10.602-35.274,17.602-52.774c2.235-4.47,8.94-12.292,14.527-7.822
					c9.763,6.834,5.027,19.639,8.891,29.472c0.11,0.472,0.221,0.945,0.354,1.41c0.106-0.012,0.202,0.005,0.294,0.028
					c0.245,0.488,0.514,0.967,0.813,1.436c-0.015,0.3-0.096,0.593-0.273,0.821c-0.621,0.798-1.647,1.335-1.909,2.311
					c-0.334,1.246,0.74,2.367,1.546,3.374c0.805,1.007,1.291,2.732,0.187,3.398c-0.524,0.317-1.211,0.227-1.756,0.506
					c-1.26,0.645-0.899,2.487-0.645,3.88c0.254,1.393-0.598,3.429-1.903,2.879c1.12-0.068,1.138-1.782,0.521-2.719
					c-0.617-0.936-1.554-1.96-1.151-3.007c0.468-1.217,2.476-1.445,2.63-2.741c0.182-1.53-2.348-1.928-2.858-3.382
					c-0.59-1.681,1.817-2.901,2.233-4.633c0.265-1.102-0.326-2.206-0.818-3.227c-2.983-6.187-2.844-13.409-4.964-19.943
					c-0.32-0.985-0.726-2.003-1.541-2.643c-1.397-1.096-3.552-0.639-4.867,0.555c-1.315,1.194-1.981,2.926-2.556,4.607
					c-4.44,12.963-6.117,26.683-7.769,40.286c-1.143,9.412-2.285,18.824-3.428,28.236c-4.953-1.033-11.717-2.678-16.671-3.711
					c-1.103,2.955-2.558,7.693-3.436,10.63c1.086-4.595,2.207-9.162,3.365-13.708C352.015,398.032,353.192,393.519,354.325,388.993z
					"/>
				<path style="fill:#1B6591;" d="M390.606,329.092c-1.099-2.148-3.51-3.437-5.919-3.582c-2.409-0.145-4.792,0.726-6.827,2.024
					c-0.268,0.171-3.603,5.283-3.86,5.466c0.473,0.134,3.991-4.606,4.396-4.369c2.544-1.716,5.425-2.34,8.058-0.234
					c9.763,6.834,5.027,19.639,8.891,29.472C393.141,348.457,394.994,337.667,390.606,329.092z"/>
				<path style="fill:#1B6591;" d="M345.62,418.458c1.932-5.244,3.596-10.573,5.121-15.944c-1.158,4.546-2.279,9.113-3.365,13.708
					c-0.466,1.558-0.772,2.618-0.772,2.618L345.62,418.458z"/>
			</g>
			<g>
				<path style="fill:#1B6591;" d="M358.032,332.693c-0.415-0.65-0.788-1.315-1.127-1.991
					C357.65,330.887,358.076,331.804,358.032,332.693z"/>
				<path style="fill:#063756;" d="M299.106,371.88c6.822-24.655,14.706-48.929,24.416-73.203c3.1-6.2,12.4-17.05,20.15-10.85
					c13.543,9.48,6.973,27.241,12.332,40.881c0.153,0.655,0.307,1.31,0.491,1.955c0.147-0.017,0.28,0.007,0.408,0.039
					c0.339,0.677,0.713,1.342,1.127,1.991c-0.02,0.416-0.133,0.823-0.378,1.139c-0.861,1.108-2.285,1.851-2.648,3.206
					c-0.464,1.728,1.026,3.283,2.144,4.681c1.117,1.397,1.79,3.789,0.259,4.714c-0.727,0.439-1.68,0.315-2.436,0.702
					c-1.748,0.895-1.247,3.45-0.894,5.382c0.352,1.932-0.83,4.757-2.639,3.994c1.553-0.094,1.579-2.472,0.722-3.771
					c-0.857-1.299-2.155-2.718-1.597-4.171c0.649-1.689,3.434-2.005,3.648-3.801c0.252-2.123-3.257-2.674-3.965-4.691
					c-0.819-2.331,2.52-4.024,3.098-6.426c0.368-1.529-0.452-3.059-1.135-4.476c-4.138-8.582-3.945-18.6-6.885-27.663
					c-0.443-1.366-1.007-2.779-2.137-3.666c-1.938-1.52-4.927-0.886-6.751,0.769c-1.824,1.656-2.747,4.06-3.546,6.39
					c-6.159,17.982-8.486,37.012-10.776,55.881c-1.585,13.056-3.17,26.111-4.755,39.167c-6.871-1.433-16.253-3.714-23.124-5.147
					c-1.53,4.099-3.548,10.671-4.767,14.745c1.507-6.374,3.062-12.708,4.668-19.015C295.902,384.417,297.535,378.158,299.106,371.88
					z"/>
				<path style="fill:#1B6591;" d="M349.433,288.791c-1.525-2.98-4.864-5.065-8.211-4.969C335,284,328.061,291.355,328,292
					c3.14-1.653,12.525-6.691,15.673-4.173c13.543,9.48,6.973,27.241,12.332,40.88C352.949,315.652,355.519,300.685,349.433,288.791
					z"/>
				<path style="fill:#1B6591;" d="M287.032,412.751c2.68-7.274,4.988-14.665,7.104-22.116c-1.606,6.306-3.161,12.641-4.668,19.015
					c-0.646,2.161-1.072,3.632-1.072,3.632L287.032,412.751z"/>
			</g>
			<g>
				<g>
					<path style="fill:#063756;" d="M299.379,404.978l0.046-6.041l-9.474-1.117l-9.707,0.971l-0.026,3.467l-26.968-0.204
						l-2.276-5.766l-10.336-0.078l0.34-44.925l24.709,2.315l11.104-8.85c0.026-0.013,0.051-0.025,0.064-0.038
						c0.051-0.038,0.077-0.063,0.077-0.063s-32.209-18.317-52.279-20.483c0,0-3.597,2.126-6.557,2.41l0.037-4.83l11.338-2.629
						l-0.011,1.466l2.919-0.08l0.12-2.434l1.271-1.252l6.152,0.582l7.155-5.707c0.013-0.013,0.025-0.013,0.025-0.013
						s-0.012-0.013-0.025-0.013c-0.711-0.413-20.496-11.55-33.077-13.034l0.026-3.492l9.171-2.658l-0.011,1.478l2.371-0.084
						l0.095-2.434l0.756-2.212l0.637,0.081l5.124-5.098c0-0.013,0.013-0.013,0.013-0.013s-0.013,0-0.013-0.013
						c-0.406-0.271-11.841-8.336-20.705-10.927l3.746-1.552l-0.011,1.478l1.658-0.102l0.069-2.434l3.074-3.609l3.324,0.382
						l4.52-4.49l0.013-0.013l-0.013,0c-0.444-0.309-10.472-7.357-18.255-9.634l2.825-1.177l-0.009,1.249l1.403-0.079l0.066-2.064
						l2.374-2.187l5.514,0.641l4.251-4.225c0-0.013,0.013-0.025,0.013-0.025l-0.013,0c-0.469-0.322-12.31-8.658-19.759-9.645
						c0,0-1.153,0.858-2.213,1.105l0.009-1.249l4.616-1.902l-0.008,1.045l1.186-0.068l0.051-1.733l2.063-1.386l6.227,0.723
						l3.673-3.643c0-0.013,0.013-0.025,0.013-0.025l-0.013,0c-0.431-0.309-10.637-7.473-17.066-8.337c0,0-1.384,1.022-2.378,1.015
						l0.028-3.683l3.708-1.54l-0.006,0.854l0.956-0.056l0.036-1.402l1.512-1.008l0.013,0l5.794,0.656l3.069-3.048
						c0,0-2.193-1.559-5.074-3.212c-2.881-1.64-6.462-3.388-9.199-3.753c0,0-0.307,0.227-0.717,0.453l0.01-1.3l3.708-1.54
						l-0.007,0.854l0.956-0.057l0.036-1.402l0.615-0.403l3.069,0.342l2.491-2.453c0.013-0.025,0.026-0.038,0.026-0.038
						s-6.339-4.496-10.817-5.524l0.003-0.421l3.708-1.54l-0.007,0.854l0.956-0.057l0.036-1.402l0.653-0.428l1.082,0.123l2.196-2.176
						c0.013-0.026,0.026-0.025,0.026-0.025s-5.819-4.135-9.777-4.93l0.01-1.3l3.094-1.277l-0.005,0.701l0.803-0.045l0.034-1.16
						l1.46-0.983l-0.725-0.159l1.348-1.328c0.013-0.013,0.013-0.025,0.013-0.025s0,0-0.013,0c-0.33-0.245-4.805-3.363-7.721-3.818
						l0.006-0.828l2.162-1.042l-0.004,0.574l0.561-0.047l0.033-0.93l1.025-0.795l-1.73-0.421c2.199-0.85,5.306-2.165,5.119-2.778
						c-0.062-0.192-0.39-0.678-0.92-1.32c-1.768-2.193-5.599-6.262-7.552-7.552l0.027-3.517l-1.126-1.168l-1.669-1.746l-2.443,2.875
						c0,0,0.038,1.721,0.029,2.932c-0.422,0.188-0.832,0.427-1.203,0.73l-8.234,6.744c-0.013,0-0.013,0-0.026,0.012
						c-0.32,0.214-0.526,0.417-0.603,0.505c-0.025,0.013-0.025,0.013-0.038,0.025l-0.013,0.013c0,0,3.598,2.869,5.946,4.238
						l-1.442,0.308l0.746,0.809l0.018,0.931l0.624,0.056l0.004-0.574l1.957,0.767l-0.008,1.07c-0.203-0.116-0.432-0.22-0.648-0.234
						c-0.484-0.055-7.919,3.866-7.919,3.866s1.084,1.639,1.975,1.837c0,0,0,0,0.013,0l0.873,0.822l0.017,1.16l0.892,0.058
						l0.005-0.714l2.797,0.952l-0.01,1.262c-0.038,0-0.089-0.013-0.115-0.014c-0.637-0.069-10.337,5.045-10.337,5.045
						s1.6,2.421,2.786,2.43l1.517,0.012l0.316,0.308l0.028,1.389l1.07,0.072l0.007-0.854l3.356,1.147l-0.003,0.446
						c-2.185,0.799-11.271,5.599-11.271,5.599c0.05,0.09,0.517,0.769,1.136,1.436c0.607,0.667,1.367,1.31,2.029,1.315
						c1.351,0.01,2.409,0.018,2.409,0.018l0.982-0.094l0.177,0.154l0.028,1.402l1.07,0.059l0.006-0.841l3.356,1.134l-0.009,1.198
						c-0.355-0.194-0.762-0.363-1.106-0.404c-0.879-0.083-14.354,7.016-14.354,7.016s0,0,0,0.013
						c0.139,0.205,2.282,3.357,3.875,3.369c1.657,0.012,2.957,0.022,2.957,0.022l3.291-0.345l0.785,0.732l0.028,1.402l1.07,0.072
						l0.006-0.854l3.356,1.134l-0.028,3.747c-0.077,0.012-0.153,0.012-0.23,0.024c0,0-1.482-1.146-2.527-1.256
						c-1.044-0.123-16.694,8.12-17.168,8.384c-0.012,0-0.012,0-0.012,0s0,0,0,0.013c0.139,0.205,2.722,4.023,4.647,4.037
						c1.988,0.015,3.543,0.027,3.543,0.027l3.074-0.321l1.114,1.028l0.038,1.734l1.325,0.099l0.008-1.058l4.169,1.408l-0.008,1.096
						c-0.596-0.4-1.624-1.007-2.439-1.102c-1.184-0.137-19.189,9.35-19.854,9.714c-0.013,0-0.026,0-0.026,0s3.087,4.663,5.381,4.68
						c2.281,0.017,4.091,0.031,4.091,0.031l3.674-0.38l2.152,1.979l0.035,2.065l0.446,0.029c-5.832,2.696-17.323,8.753-17.848,9.042
						c-0.013,0-0.025,0-0.025,0s3.276,4.957,5.71,4.976c2.447,0.018,4.359,0.033,4.359,0.033l1.122-0.119l2.728,3.36l0.032,2.435
						l1.873,0.116l0.011-1.466l1.894,0.639c-5.332,2.215-21.685,10.835-22.351,11.187c-0.013,0-0.026,0.012-0.026,0.012
						s3.705,5.611,6.483,5.632l2.256,0.017l0.826,2.084l0.058,2.435l2.65,0.122l0.011-1.478l8.32,2l-0.03,4.015
						c-0.8-0.338-1.652-0.624-2.416-0.694c-2.038-0.168-33.492,13.065-33.492,13.065s5.216,6.298,9.078,6.327
						c3.861,0.029,6.907,0.052,6.907,0.052l0.969-0.082l0.708,0.757l0.084,2.435l3.287,0.127l0.011-1.466l10.271,2.002l-0.035,4.652
						c-0.447,0.035-0.906,0.07-1.365,0.104c0,0-3.197-1.974-6.122-2.786c-0.56-0.157-1.107-0.263-1.616-0.306
						c-3.171-0.304-51.426,20.016-52.487,20.467c0.038,0.064,0.404,0.487,0.985,1.142c2.376,2.605,8.461,8.731,13.227,8.767
						c6.066,0.046,10.82,0.082,10.82,0.082l12.269-1.003l-0.331,43.778l-8.106-0.061l-2.236,5.731l-26.827-0.203l0.024-3.097
						l-9.474-1.117l-9.707,0.972l-0.046,6.028l3.186,0.024l-0.14,18.492l-3.186-0.024l-0.046,6.028l9.461,1.117l0.229-0.024
						l9.49-0.948l0.039-5.187l77.437,7.265l-0.981-0.008l-0.046,6.028l9.461,1.104l0.229-0.011l9.477-0.948l0.046-6.028
						l-2.944-0.022l0.007-0.994l77.015-6.044l-0.044,5.773l9.461,1.104l0.23-0.024l9.49-0.935l0.046-6.041l-2.957-0.022l0.14-18.48
						L299.379,404.978z M159.893,388.232l-1.708-0.013l-0.028,3.683l-3.212-0.024l-0.028,3.683l-4.218-0.032l0.334-44.045
						l9.144-0.747L159.893,388.232z M237.618,396.187l-4.002-0.03l0.028-3.683l-3.199-0.024l0.028-3.683l-1.529-0.012l0.292-38.565
						l8.725,0.818L237.618,396.187z M283.244,423.336l-0.14-0.001l0.14-0.012L283.244,423.336z"/>
					<g>
						<polygon style="fill:#1B6591;" points="145.414,397.609 145.43,395.489 139.586,395.445 138.761,397.558 						"/>
						<polygon style="fill:#1B6591;" points="148.756,353.586 148.422,397.631 152.641,397.663 152.657,395.544 150.699,395.529 
							151.018,353.401 						"/>
						
							<rect x="154.353" y="392.466" transform="matrix(0.0076 -1 1 0.0076 -238.694 545.3735)" style="fill:#1B6591;" width="2.12" height="0.951"/>
						<polygon style="fill:#1B6591;" points="207.105,216.671 206.383,216.589 206.37,216.589 206.145,216.739 206.143,216.953 
							207.099,216.897 						"/>
						<path style="fill:#1B6591;" d="M207.568,236.812l-1.186,0.068l0.008-1.045l-0.557,0.23c-0.432,0.273-1.129,0.665-1.791,0.819
							l0.001-0.082l-2.268,0.935l-0.01,1.249c1.06-0.247,2.214-1.105,2.214-1.105c7.448,0.987,19.29,9.323,19.758,9.645l0.013,0
							c0,0-0.013,0.013-0.013,0.025l-2.119,2.106l0.145,0.017l4.251-4.225c0-0.013,0.013-0.025,0.013-0.025l-0.013,0
							c-0.442-0.304-10.976-7.716-18.423-9.398L207.568,236.812z"/>
						<polygon style="fill:#1B6591;" points="209.874,233.715 209.682,233.693 208.662,234.378 208.659,234.778 209.845,234.71 
													"/>
						<path style="fill:#1B6591;" d="M202.414,221.322l0.019-2.523l-2.268,0.942l-0.028,3.683c0.994,0.008,2.378-1.014,2.378-1.014
							c6.43,0.864,16.636,8.028,17.067,8.337l0.013,0c0,0-0.013,0.013-0.013,0.026l-1.537,1.524l0.141,0.017l3.673-3.643
							c0-0.013,0.013-0.025,0.013-0.025l-0.013,0c-0.431-0.309-10.637-7.473-17.067-8.337
							C204.792,220.308,203.408,221.329,202.414,221.322z"/>
						<polygon style="fill:#1B6591;" points="213.875,251.225 212.412,252.573 212.406,253.363 213.808,253.285 						"/>
						<path style="fill:#1B6591;" d="M185.388,195.184l-0.775-0.265c-3.459,1.692-8.222,4.208-8.222,4.208
							c0.03,0.053,0.216,0.321,0.481,0.661c2.861-1.482,7.108-3.644,8.513-4.158L185.388,195.184z"/>
						<path style="fill:#1B6591;" d="M188.765,176.639l0.008-1.071l-0.686-0.269c-2.344,1.146-5.612,2.868-5.612,2.868
							s0.203,0.302,0.499,0.66c2.168-1.112,4.858-2.456,5.143-2.423C188.334,176.419,188.562,176.523,188.765,176.639z"/>
						<path style="fill:#1B6591;" d="M176.165,255.119l-0.013-0.768c-6.099,2.974-14.661,7.487-15.112,7.736
							c-0.013,0-0.025,0-0.025,0s0.178,0.267,0.472,0.668c3.873-2.024,10.943-5.674,15.124-7.607L176.165,255.119z"/>
						<polygon style="fill:#1B6591;" points="238.701,353.388 238.361,398.313 248.697,398.391 250.973,404.156 277.941,404.361 
							277.957,402.241 253.25,402.054 250.974,396.288 240.638,396.21 240.961,353.6 						"/>
						<polygon style="fill:#1B6591;" points="231.493,318.921 230.222,320.173 230.203,320.564 232.379,320.504 232.453,319.012 
													"/>
						<path style="fill:#1B6591;" d="M218.096,326.577l0.025-3.253l-2.265,0.525l-0.037,4.83c2.959-0.283,6.557-2.41,6.557-2.41
							c19.153,2.067,49.337,18.829,52.059,20.359l2.356-1.878c0.026-0.013,0.051-0.025,0.064-0.038
							c0.051-0.038,0.077-0.063,0.077-0.063s-32.209-18.317-52.279-20.483C224.653,324.167,221.056,326.294,218.096,326.577z"/>
						<path style="fill:#1B6591;" d="M211.531,255.387l-1.403,0.079l0.009-1.249l-2.826,1.177
							c7.783,2.277,17.811,9.324,18.255,9.633l0.013,0l-0.013,0.013l-2.387,2.371l0.144,0.016l4.521-4.49l0.013-0.013l-0.013,0
							c-0.407-0.283-8.865-6.22-16.267-8.962L211.531,255.387z"/>
						<polygon style="fill:#1B6591;" points="280.827,425.438 280.967,425.439 280.967,425.426 						"/>
						<polygon style="fill:#1B6591;" points="216.927,270.655 218.167,269.199 217.723,269.148 215.208,272.101 215.2,273.19 
							216.857,273.088 						"/>
						<path style="fill:#1B6591;" d="M214.58,275.191l-1.658,0.102l0.011-1.478l-3.746,1.552
							c8.864,2.591,20.299,10.656,20.705,10.927c0,0.013,0.013,0.013,0.013,0.013s-0.013,0-0.013,0.013l-2.992,2.977l0.145,0.019
							l5.124-5.098c0-0.013,0.013-0.013,0.013-0.013s-0.013,0-0.012-0.013c-0.359-0.239-9.356-6.578-17.566-9.83L214.58,275.191z"/>
						<path style="fill:#1B6591;" d="M214.016,296.588l-2.266,0.657l-0.026,3.492c12.069,1.424,30.757,11.724,32.886,12.926
							l2.468-1.969c0.013-0.013,0.026-0.013,0.026-0.013s-0.013-0.013-0.026-0.013c-0.711-0.413-20.496-11.55-33.077-13.034
							L214.016,296.588z"/>
						<polygon style="fill:#1B6591;" points="226.123,290.068 224.769,291.416 224.132,291.335 223.375,293.547 223.36,293.956 
							225.558,293.878 225.653,291.445 						"/>
						<path style="fill:#1B6591;" d="M160.932,324.377c0.509,0.042,1.057,0.148,1.617,0.305c2.925,0.813,6.122,2.787,6.122,2.787
							c0.459-0.035,0.918-0.069,1.364-0.104l0.019-2.514c-1.15-0.641-3.24-1.719-5.229-2.271c-0.56-0.157-1.107-0.263-1.617-0.306
							c-3.171-0.304-51.426,20.016-52.487,20.467c0.032,0.053,0.3,0.365,0.721,0.843
							C122.172,339.091,158.205,324.115,160.932,324.377z"/>
						<polygon style="fill:#1B6591;" points="98.795,398.862 108.27,399.978 108.246,403.075 135.073,403.279 135.898,401.165 
							110.523,400.973 110.546,397.876 101.073,396.759 91.366,397.731 91.352,399.607 						"/>
						<path style="fill:#1B6591;" d="M172.247,299.494c0.764,0.069,1.616,0.356,2.416,0.694l0.021-2.763
							c-0.051-0.007-0.109-0.029-0.16-0.033c-2.038-0.168-33.492,13.065-33.492,13.065s0.28,0.335,0.743,0.839
							C149.696,307.994,170.598,299.358,172.247,299.494z"/>
						<path style="fill:#1B6591;" d="M176.467,274.163l-1.34-0.452c-0.185,0.089-0.366,0.174-0.557,0.267l-0.008,1.012l-1.834-0.114
							c-6.841,3.367-15.844,8.112-16.335,8.371c-0.013,0-0.025,0.012-0.025,0.012s0.176,0.263,0.467,0.664
							C161.846,281.307,172.381,275.861,176.467,274.163z"/>
						<path style="fill:#1B6591;" d="M180.712,237.03c0.815,0.095,1.843,0.702,2.439,1.102l0.008-1.096l-3.002-1.013
							c-0.366,0.168-0.762,0.354-1.175,0.551l-0.001,0.112l-0.204-0.015c-5.707,2.725-15.163,7.71-15.642,7.972
							c-0.013,0-0.026,0-0.026,0s0.178,0.267,0.474,0.668C168.816,242.576,179.796,236.924,180.712,237.03z"/>
						<polygon style="fill:#1B6591;" points="289.951,397.82 280.244,398.792 280.23,400.668 287.674,399.922 297.147,401.039 
							297.117,404.961 299.379,404.978 299.425,398.937 						"/>
						<polygon style="fill:#1B6591;" points="296.406,407.075 294.145,407.058 294.005,425.538 296.961,425.56 296.93,429.721 
							299.193,429.498 299.239,423.458 296.282,423.435 						"/>
						<path style="fill:#1B6591;" d="M204.927,205.498l-0.004,0.145l-0.957,0.056l0.003-0.435c-0.233-0.048-0.469-0.099-0.693-0.13
							l-0.082,0.034c-0.106,0.074-0.356,0.244-0.662,0.414l0.001-0.14l-2.269,0.942l-0.01,1.3c0.409-0.226,0.717-0.453,0.717-0.453
							c2.737,0.365,6.318,2.113,9.199,3.753c2.881,1.653,5.074,3.212,5.074,3.212l-0.936,0.93l0.144,0.017l3.069-3.049
							c0,0-2.193-1.559-5.074-3.212C210.125,207.559,207.352,206.178,204.927,205.498z"/>
						<path style="fill:#1B6591;" d="M202.32,184.287l0-0.021c-0.281-0.081-0.556-0.152-0.822-0.205l0.001-0.134l-2.268,0.936
							l-0.01,1.3c3.958,0.795,9.777,4.93,9.777,4.93s-0.013,0-0.026,0.026l-0.058,0.057l0.139,0.016l2.196-2.176
							c0.013-0.025,0.026-0.025,0.026-0.025s-5.013-3.56-8.898-4.707L202.32,184.287z"/>
						<path style="fill:#1B6591;" d="M200.245,175.426l-0.561,0.046l0.004-0.573l-2.162,1.042l-0.006,0.828
							c2.915,0.455,7.39,3.574,7.72,3.818c0.013,0,0.013,0,0.013,0s0,0.013-0.013,0.025l-1.061,1.045l0.423-0.174l-0.005,0.612
							l0.02,0.004l-0.02,0.014l-0.001,0.071l0.804-0.045l0.034-1.16l1.46-0.983l-0.725-0.159l1.348-1.328
							c0.013-0.013,0.013-0.025,0.013-0.025s0,0-0.013,0c-0.313-0.232-4.346-3.027-7.25-3.702L200.245,175.426z"/>
						<polygon style="fill:#1B6591;" points="207.168,192.905 207.281,192.899 207.284,192.79 						"/>
						<path style="fill:#1B6591;" d="M205.004,195.001l-0.957,0.057l0.004-0.571c-0.125-0.044-0.25-0.087-0.374-0.126l-3.331,1.383
							l-0.003,0.421c4.479,1.028,10.817,5.524,10.817,5.524s-0.013,0.013-0.026,0.038l-0.342,0.337l0.128,0.014l2.492-2.453
							c0.013-0.025,0.025-0.038,0.025-0.038s-4.379-3.102-8.429-4.74L205.004,195.001z"/>
						<path style="fill:#1B6591;" d="M200.497,173.505l1.468-0.708l-0.004,0.574l0.561-0.047l0.033-0.93l1.025-0.795l-0.117-0.028
							c-1.066,0.576-2.621,1.219-3.891,1.71L200.497,173.505z"/>
						<path style="fill:#1B6591;" d="M186.645,185.634c0.025,0,0.076,0.013,0.115,0.014l0.009-1.228
							c-3.041,1.447-8.184,4.157-8.184,4.157s0.195,0.29,0.488,0.662C181.994,187.732,186.231,185.59,186.645,185.634z"/>
						<path style="fill:#1B6591;" d="M182.421,221.684c1.045,0.11,2.527,1.255,2.527,1.255c0.077-0.012,0.153-0.012,0.23-0.024
							l0.024-3.214c-0.173-0.057-0.344-0.103-0.504-0.12c-1.044-0.123-16.694,8.12-17.168,8.384c-0.013,0-0.013,0-0.013,0
							s0,0,0,0.013c0.033,0.048,0.208,0.304,0.468,0.653C172.635,226.208,181.638,221.592,182.421,221.684z"/>
						<path style="fill:#1B6591;" d="M195.121,156.945l1.126,1.168l-0.027,3.518c1.953,1.289,5.784,5.359,7.552,7.551
							c0.304,0.367,0.532,0.675,0.691,0.915c1.44-0.65,2.624-1.312,2.507-1.697c-0.062-0.192-0.39-0.679-0.921-1.32
							c-1.767-2.193-5.599-6.262-7.552-7.551l0.027-3.518l-1.125-1.168l-1.669-1.746l-2.018,2.374L195.121,156.945z"/>
						<path style="fill:#1B6591;" d="M184.192,206.607c0.344,0.041,0.75,0.21,1.106,0.404l0.009-1.198l-1.146-0.387
							c-4.077,1.899-12.045,6.095-12.045,6.095s0,0,0,0.013c0.037,0.053,0.212,0.31,0.474,0.654
							C176.577,210.119,183.566,206.548,184.192,206.607z"/>
						<path style="fill:#1B6591;" d="M189.834,161.735c0.372-0.303,0.781-0.542,1.203-0.73c0.001-0.158,0.002-0.324,0.002-0.494
							l-7.162,5.865c-0.013,0-0.013,0-0.026,0.012c-0.321,0.214-0.526,0.417-0.603,0.506c-0.026,0.012-0.026,0.012-0.039,0.025
							l-0.013,0.013c0,0,0.058,0.046,0.148,0.117L189.834,161.735z"/>
					</g>
					<path style="fill:#1B6591;" d="M71.603,419.559l10.351-8.225l6.996,0.053l7.523,4.209l41.811,2.69l42.204,7.676l37.633-3.447
						c0,0,9.144-0.529,22.47-1.579c13.327-1.05,27.294,2.308,36.375-1.307c9.082-3.615,33.499-7.103,35.494-7.238
						c1.996-0.134,20.479-3.928,20.479-3.928l22.115,7.697l8.799,25.342l-25.691,0.22l-63.257,0.172l-67.347-0.51
						c0,0-24.792-0.308-26.13-0.494c-1.338-0.186-11.639,0.941-11.639,0.941l-27.626-0.607c0,0-54.383,0.677-55.607-0.757
						c-1.224-1.434-45.567-0.01-45.567-0.01l12.036-13.946c0,0,9.873,1.111,11.1,2.085c1.227,0.973,6.584,0.05,6.584,0.05
						L71.603,419.559z"/>
					<path style="fill:#0C4C6B;" d="M338.214,434.948l-63.257,0.172l-67.347-0.51c0,0-24.792-0.308-26.13-0.494
						c-1.338-0.186-11.639,0.941-11.639,0.941l-27.626-0.607c0,0-54.383,0.677-55.607-0.757c-0.943-1.105-27.493-0.513-39.622-0.183
						l-5.997,6.947c0,0,44.344-1.424,45.567,0.01c1.224,1.434,55.607,0.757,55.607,0.757l27.626,0.607
						c0,0,10.301-1.128,11.639-0.941c1.338,0.186,26.13,0.494,26.13,0.494l67.347,0.51l63.257-0.172l25.691-0.22l-2.345-6.754
						L338.214,434.948z"/>
				</g>
				<polygon style="opacity:0.15;fill:#063756;" points="282.984,457.653 282.844,457.639 282.984,457.64 				"/>
				<g style="opacity:0.15;">
					<path style="fill:#063756;" d="M296.019,458.157l0.064-8.496l2.957,0.022l0.021-2.777l-9.478-0.535l-0.229-0.013l-9.473,0.403
						l-0.02,2.654l-76.942-3.629l0.003-0.457l2.944,0.022l0.021-2.771l-9.466-0.54l-0.229-0.008l-9.473,0.403l-0.021,2.771
						l0.981,0.007l-77.511,2.483l0.018-2.385l-9.479-0.541l-0.229-0.013l-9.473,0.409l-0.021,2.771l3.186,0.024l-0.064,8.501
						l-3.186-0.024l-0.021,2.771l9.695,0.554l9.486-0.408l0.011-1.424l26.827,0.203l2.172,2.659l8.105,0.061l-0.152,20.125
						l-12.257-0.597c0,0-4.754-0.036-10.82-0.082c-4.767-0.036-10.918,2.712-13.323,3.883c-0.589,0.294-0.96,0.485-0.998,0.514
						c1.056,0.219,49.083,10.092,52.257,9.987c0.51-0.013,1.058-0.056,1.619-0.122c2.934-0.341,6.152-1.213,6.152-1.213
						c0.459,0.021,0.917,0.042,1.363,0.063l-0.016,2.139l-10.292,0.807l0.005-0.674l-3.288,0.022l-0.111,1.118l-0.716,0.34
						l-0.968-0.048c0,0-3.046-0.023-6.908-0.052c-3.862-0.029-9.147,2.808-9.147,2.808s31.305,6.43,33.344,6.375
						c0.765-0.024,1.62-0.146,2.424-0.292l-0.014,1.846l-8.342,0.827l0.005-0.679l-2.651,0.027l-0.085,1.118l-0.848,0.949
						l-2.256-0.017c-2.778-0.021-6.545,2.517-6.545,2.517s0.013,0.006,0.025,0.006c0.662,0.169,16.919,4.311,22.225,5.389
						l-1.901,0.273l0.005-0.674l-1.874,0.032l-0.059,1.119l-2.764,1.514l-1.121-0.067c0,0-1.912-0.014-4.359-0.033
						c-2.434-0.018-5.765,2.224-5.765,2.224s0.013,0,0.025,0c0.522,0.139,11.945,3.05,17.747,4.353l-0.446,0.008l-0.058,0.949
						l-2.173,0.886l-3.669-0.215c0,0-1.81-0.014-4.091-0.031c-2.294-0.017-5.433,2.092-5.433,2.092s0.013,0,0.026,0
						c0.661,0.175,18.56,4.734,19.745,4.685c0.816-0.035,1.85-0.302,2.451-0.48l-0.004,0.504l-4.185,0.601l0.004-0.486l-1.326,0.031
						l-0.057,0.796l-1.125,0.46l-3.07-0.182c0,0-1.555-0.012-3.543-0.027c-1.924-0.015-4.55,1.712-4.691,1.804
						c0,0.006,0,0.006,0,0.006s0,0,0.012,0c0.471,0.127,16.028,4.088,17.074,4.043c1.045-0.039,2.54-0.549,2.54-0.549
						c0.077,0.007,0.153,0.007,0.229,0.014l-0.013,1.723l-3.368,0.484l0.003-0.392l-1.071,0.021l-0.043,0.644l-0.793,0.328
						l-3.287-0.195c0,0-1.3-0.01-2.957-0.022c-1.593-0.012-3.771,1.413-3.912,1.506c0,0.006,0,0.006,0,0.006
						s13.395,3.412,14.275,3.383c0.344-0.015,0.753-0.088,1.11-0.173l-0.004,0.551l-3.368,0.484l0.003-0.387l-1.071,0.015
						l-0.043,0.644l-0.179,0.069l-0.981-0.054c0,0-1.058-0.008-2.409-0.018c-0.663-0.005-1.43,0.282-2.044,0.582
						c-0.627,0.3-1.101,0.607-1.152,0.648c0,0,9.032,2.307,11.208,2.698l-0.002,0.205l-3.368,0.49l0.003-0.392l-1.071,0.021
						l-0.043,0.638l-0.32,0.138l-1.517-0.011c-1.185-0.009-2.812,1.086-2.812,1.086s9.642,2.458,10.28,2.433
						c0.026,0,0.077-0.005,0.115-0.005l-0.004,0.58l-2.807,0.406l0.003-0.328l-0.892,0.017l-0.029,0.533l-0.882,0.368
						c-0.013,0-0.013,0-0.013,0c-0.893,0.081-1.995,0.823-1.995,0.823s7.391,1.884,7.875,1.864c0.217-0.004,0.447-0.049,0.651-0.101
						l-0.004,0.492l-1.966,0.331l0.002-0.264l-0.625,0.019l-0.029,0.428l-0.755,0.363l1.439,0.158
						c-2.363,0.603-5.992,1.882-5.992,1.882l0.013,0.006c0.013,0.006,0.013,0.006,0.038,0.012c0.076,0.041,0.279,0.137,0.597,0.239
						c0.013,0.006,0.013,0.006,0.025,0.006l8.158,3.191c0.368,0.143,0.775,0.258,1.195,0.349c-0.004,0.557-0.061,1.347-0.061,1.347
						l2.411,1.348l1.688-0.784l1.138-0.525l0.012-1.617c1.967-0.571,5.843-2.399,7.634-3.388c0.538-0.289,0.871-0.509,0.935-0.596
						c0.193-0.28-2.899-0.918-5.088-1.333l1.735-0.174l-1.017-0.377l-0.022-0.428l-0.561-0.028l-0.002,0.264l-2.15-0.503
						l0.003-0.381c2.92-0.177,7.43-1.561,7.762-1.669c0.013,0,0.013,0,0.013,0s0-0.006-0.013-0.012l-1.333-0.625l0.727-0.065
						l-1.45-0.468l-0.021-0.533l-0.803-0.03l-0.003,0.322l-3.08-0.621l0.005-0.598c3.966-0.322,9.83-2.158,9.83-2.158
						s-0.013,0-0.025-0.012l-2.172-1.024l-1.084,0.045l-0.649-0.204l-0.021-0.644l-0.956-0.036l-0.003,0.392l-3.69-0.749
						l0.001-0.193c4.49-0.423,10.877-2.42,10.877-2.42s-0.013-0.006-0.025-0.018l-2.464-1.155l-3.073,0.123l-0.61-0.192
						l-0.021-0.645l-0.956-0.036l-0.003,0.393l-3.69-0.749l0.005-0.598c0.407,0.109,0.712,0.216,0.712,0.216
						c2.741-0.137,6.341-0.901,9.24-1.623c2.899-0.728,5.109-1.42,5.109-1.42l-3.035-1.435l-5.801,0.237l-0.013,0l-1.5-0.48
						l-0.02-0.645l-0.956-0.036l-0.003,0.393l-3.69-0.749l0.013-1.693c0.994,0.008,2.367,0.492,2.367,0.492
						c6.439-0.326,16.723-3.506,17.157-3.643l0.013,0c0,0-0.013-0.006-0.013-0.012l-3.632-1.715l-6.234,0.263l-2.047-0.66
						l-0.032-0.797l-1.185-0.044l-0.004,0.481l-4.594-0.926l0.004-0.574c1.057,0.125,2.201,0.532,2.201,0.532
						c7.459-0.371,19.391-4.072,19.864-4.215l0.012,0c0,0-0.012-0.006-0.012-0.012l-4.204-1.989l-5.52,0.234l-2.35-1.031
						l-0.044-0.95l-1.402-0.052l-0.004,0.574l-2.812-0.572c7.807-0.96,17.913-4.089,18.36-4.226h0.013l-0.013-0.006l-4.47-2.114
						l-3.327,0.139l-3.033-1.693l-0.042-1.12l-1.656-0.065l-0.005,0.68l-3.729-0.755c8.892-1.093,20.415-4.674,20.824-4.793
						c0-0.006,0.013-0.006,0.013-0.006s-0.013,0-0.013-0.006l-5.067-2.4l-0.637,0.031l-0.732-1.025l-0.068-1.12l-2.37-0.065
						l-0.005,0.679l-9.141-1.323l0.012-1.605c12.596-0.543,32.504-5.443,33.219-5.625c0.013,0,0.025-0.006,0.025-0.006
						s-0.013,0-0.025-0.006l-7.091-2.702l-6.158,0.199l-1.257-0.59l-0.094-1.12l-2.918-0.069l-0.005,0.674l-11.308-1.334l0.017-2.22
						c2.956,0.163,6.53,1.18,6.53,1.18c20.092-0.774,52.501-8.836,52.501-8.836s-0.026-0.012-0.076-0.03
						c-0.013-0.006-0.038-0.012-0.064-0.018l-11.005-4.191l-24.732,0.791l0.156-20.653l10.336,0.078l2.339-2.625l26.968,0.204
						l-0.012,1.594l9.695,0.554l9.486-0.408l0.021-2.777L296.019,458.157z M159.186,481.571l-9.135-0.444l0.153-20.248l4.218,0.032
						l-0.013,1.693l3.212,0.024l-0.013,1.693l1.708,0.013L159.186,481.571z M236.966,482.307l-8.733,0.279l0.134-17.729l1.529,0.012
						l0.013-1.693l3.199,0.024l0.013-1.693l4.002,0.03L236.966,482.307z"/>
					<path style="fill:#1B6591;" d="M43.31,439.59l9.531,11.387c0,0,9.889-0.961,11.131-1.916c1.242-0.955,6.584,0.05,6.584,0.05
						l0.754,9.1l10.225,8.381l6.996,0.053l7.586-4.095l41.847-2.056l42.315-7.036l37.577,4.016c0,0,9.134,0.668,22.444,1.919
						c13.309,1.251,27.325-1.895,36.351,1.858c9.026,3.752,33.387,7.61,35.381,7.775c1.993,0.164,20.416,4.237,20.416,4.237
						l22.229-7.361l8.703-23.889L43.31,439.59z"/>
				</g>
			</g>
		</g>
		<g style="clip-path:url(#SVGID_00000004525493369098405660000015784524783667767472_);">
			<g>
				
					<rect x="-12.695" y="576.319" transform="matrix(-1 -1.224647e-16 1.224647e-16 -1 162.9975 1262.3195)" style="fill:#063756;" width="188.387" height="109.681"/>
				<g>
					<polygon style="fill:#063756;" points="-29.365,577.754 190.218,577.754 187.038,481.434 -26.186,481.434 					"/>
					<polygon style="fill:#063756;" points="-17.647,482.944 178.496,482.944 175.955,399.225 -15.106,399.225 					"/>
					<polygon style="fill:#063756;" points="-6.779,400.658 167.625,400.658 165.614,328.035 -4.768,328.035 					"/>
					<polygon style="fill:#063756;" points="3.375,329.404 157.468,329.404 155.898,266.658 4.946,266.658 					"/>
					<polygon style="fill:#063756;" points="12.931,267.973 147.91,267.973 146.705,214.117 14.136,214.117 					"/>
					<polygon style="fill:#063756;" points="21.985,215.386 138.853,215.386 137.951,169.617 22.888,169.617 					"/>
					<polygon style="fill:#063756;" points="30.622,170.849 130.213,170.849 129.559,132.52 31.277,132.52 					"/>
					<polygon style="fill:#063756;" points="38.971,129.962 121.862,129.962 121.411,98.635 39.422,98.635 					"/>
					<polygon style="fill:#063756;" points="47.04,94.305 113.79,94.305 113.5,69.567 47.331,69.567 					"/>
					<polygon style="fill:#063756;" points="62.357,62.189 98.467,62.189 98.386,49.459 62.439,49.459 					"/>
				</g>
			</g>
			<g>
				<g>
					<g>
						
							<rect x="76.568" y="578.428" transform="matrix(-1 -1.224647e-16 1.224647e-16 -1 160.8529 1264.4277)" style="fill:#004B68;" width="7.716" height="107.572"/>
						
							<rect x="80.426" y="578.428" transform="matrix(-1 -1.224647e-16 1.224647e-16 -1 164.7109 1264.4277)" style="fill:#1B6591;" width="3.858" height="107.572"/>
						
							<rect x="70.065" y="676.936" transform="matrix(-1 -1.224647e-16 1.224647e-16 -1 160.8529 1362.9364)" style="fill:#1B6591;" width="20.722" height="9.064"/>
						<polygon style="fill:#1B6591;" points="73.011,671.339 87.841,671.339 90.788,676.936 70.065,676.936 						"/>
					</g>
					<g>
						
							<rect x="183.934" y="578.428" transform="matrix(-1 -1.224647e-16 1.224647e-16 -1 375.5845 1264.4277)" style="fill:#1B6591;" width="7.716" height="107.572"/>
						
							<rect x="177.431" y="676.936" transform="matrix(-1 -1.224647e-16 1.224647e-16 -1 375.5844 1362.9364)" style="fill:#1B6591;" width="20.722" height="9.064"/>
						<polygon style="fill:#1B6591;" points="180.377,671.339 195.207,671.339 198.153,676.936 177.431,676.936 						"/>
					</g>
					<g>
						
							<rect x="-30.798" y="578.428" transform="matrix(-1 -1.224647e-16 1.224647e-16 -1 -53.8792 1264.4277)" style="fill:#004B68;" width="7.716" height="107.572"/>
						
							<rect x="-37.301" y="676.936" transform="matrix(-1 -1.224647e-16 1.224647e-16 -1 -53.879 1362.9364)" style="fill:#004B68;" width="20.722" height="9.064"/>
						<polygon style="fill:#004B68;" points="-34.355,671.339 -19.524,671.339 -16.578,676.936 -37.301,676.936 						"/>
					</g>
				</g>
				<g>
					<path style="fill:#1B6591;" d="M95.318,577.754c-1.782,15.838-15.098,22.23-15.098,22.23v-22.23H95.318z"/>
					<path style="fill:#004B68;" d="M-20.848,577.754c-1.782,15.838-15.098,22.23-15.098,22.23v-22.23H-20.848z"/>
					<path style="fill:#004B68;" d="M80.22,577.754v22.23c0,0-13.317-6.392-15.099-22.23H80.22z"/>
					<path style="fill:#1B6591;" d="M196.799,577.754v22.23c0,0-13.316-6.392-15.098-22.23H196.799z"/>
				</g>
			</g>
			<g>
				<path style="fill:#0C4C6B;" d="M80.222,545.398c6.072-0.021,12.144,1.033,17.942,3.163
					c30.318,11.153,93.781,28.948,145.141,6.009l-16.066,23.677H80.222V545.398z"/>
				<path style="fill:#1B6591;" d="M87.221,509.935c21.105,14.485,62.071,15.939,78.474,15.918c4.849,0,9.635,0.949,14.105,2.762
					l63.504,25.954c-51.36,22.939-114.823,5.144-145.141-6.009c-5.798-2.13-11.87-3.184-17.942-3.163v-10.542v-27.051
					C82.667,507.785,85.113,508.48,87.221,509.935z"/>
				<rect x="80.222" y="578.247" style="fill:#063756;" width="147.017" height="7.063"/>
				<path style="fill:#0C4C6B;" d="M80.222,494.312v-27.936c5.946-0.021,11.891,0.991,17.584,3.036
					c26.924,9.656,80.097,23.74,123.34,4.449l-13.894,20.451H80.222z"/>
				<path style="fill:#1B6591;" d="M86.99,435.762c18.406,12.081,53.11,13.304,67.11,13.283c4.175,0,8.307,0.822,12.187,2.404
					l54.86,22.412c-43.243,19.292-96.416,5.208-123.34-4.449c-5.693-2.045-11.638-3.057-17.584-3.036v-9.551v-22.981
					C82.583,433.78,84.924,434.413,86.99,435.762z"/>
				<rect x="80.222" y="494.312" style="fill:#063756;" width="127.03" height="6.093"/>
				<path style="fill:#0C4C6B;" d="M80.222,421.004v-25.301c5.777-0.021,11.575,0.928,17.12,2.889
					c24.921,8.813,72.76,21.126,111.744,3.711l-12.692,18.701H80.222z"/>
				<path style="fill:#1B6591;" d="M86.99,367.831c16.973,10.71,48.134,11.807,60.785,11.786c3.837,0,7.611,0.738,11.153,2.193
					l50.158,20.493c-38.984,17.415-86.823,5.102-111.744-3.711c-5.545-1.961-11.343-2.91-17.12-2.889v-8.961V365.87
					C82.562,365.849,84.924,366.523,86.99,367.831z"/>
				<rect x="80.222" y="421.004" style="fill:#063756;" width="116.172" height="5.587"/>
				<path style="fill:#0C4C6B;" d="M80.222,353.725v-22.602c5.777-0.021,11.575,0.928,17.141,2.847
					c22.981,7.927,65.149,18.216,99.684,2.804l-11.512,16.951H80.222z"/>
				<path style="fill:#1B6591;" d="M86.694,305.717c15.454,9.509,43.391,10.5,54.776,10.479c3.479,0,6.894,0.675,10.12,1.982
					l45.457,18.596c-34.535,15.412-76.703,5.123-99.684-2.804c-5.566-1.919-11.364-2.868-17.141-2.847v-8.475v-18.702
					C82.456,303.905,84.713,304.495,86.694,305.717z"/>
				<rect x="80.222" y="353.725" style="fill:#063756;" width="105.313" height="5.039"/>
				<path style="fill:#0C4C6B;" d="M80.222,292.456v-20.009c5.587-0.042,11.174,0.865,16.53,2.678
					c20.831,7.042,57.854,15.686,88.235,2.108l-10.31,15.223H80.222z"/>
				<path style="fill:#1B6591;" d="M86.694,249.782c13.979,8.181,38.415,9.045,48.471,9.024c3.121,0,6.178,0.59,9.066,1.771
					l40.755,16.656c-30.382,13.578-67.405,4.934-88.235-2.108c-5.355-1.813-10.943-2.72-16.53-2.678v-7.843v-16.572
					C82.456,248.011,84.691,248.623,86.694,249.782z"/>
				<rect x="80.222" y="292.456" style="fill:#063756;" width="94.455" height="4.512"/>
				<path style="fill:#0C4C6B;" d="M80.222,237.195v-17.352c5.482-0.021,10.985,0.822,16.277,2.572
					c18.701,6.114,50.327,12.988,76.45,1.328l-9.129,13.451H80.222z"/>
				<path style="fill:#1B6591;" d="M86.357,199.666c12.418,7.021,33.692,7.78,42.505,7.759c2.741,0,5.461,0.527,8.012,1.581
					l36.074,14.738c-26.123,11.659-57.748,4.786-76.45-1.328c-5.292-1.75-10.795-2.593-16.277-2.572v-7.295v-14.442
					C82.33,198.064,84.46,198.591,86.357,199.666z"/>
				<rect x="80.222" y="237.195" style="fill:#063756;" width="83.597" height="4.006"/>
				<path style="fill:#0C4C6B;" d="M80.222,187.944v-14.801c5.208-0.042,10.437,0.759,15.454,2.361
					c16.382,5.208,43.074,10.626,65.212,0.738l-7.928,11.702H80.222z"/>
				<path style="fill:#1B6591;" d="M86.357,155.727c10.879,5.735,28.716,6.346,36.201,6.325c2.382,0,4.744,0.464,6.979,1.371
					l31.352,12.819c-22.138,9.888-48.83,4.47-65.212-0.738c-5.018-1.603-10.247-2.404-15.454-2.361v-6.62V154.21
					C82.33,154.21,84.438,154.715,86.357,155.727z"/>
				<rect x="80.222" y="187.944" style="fill:#063756;" width="72.739" height="3.5"/>
				<path style="fill:#0C4C6B;" d="M80.222,144.722v-12.229c5.018,0,10.036,0.717,14.906,2.193
					c14.021,4.238,35.653,8.16,53.721,0.105l-6.747,9.931H80.222z"/>
				<path style="fill:#1B6591;" d="M85.978,117.608c9.319,4.617,24.035,5.123,30.276,5.102c2.024,0,4.027,0.401,5.925,1.181
					l26.671,10.9c-18.069,8.054-39.701,4.132-53.721-0.105c-4.87-1.476-9.888-2.193-14.906-2.193v-5.988v-10.205
					C82.182,116.259,84.164,116.701,85.978,117.608z"/>
				<rect x="80.222" y="144.722" style="fill:#063756;" width="61.881" height="2.973"/>
				<path style="fill:#0C4C6B;" d="M80.222,107.53v-9.698c4.702-0.021,9.425,0.611,14.021,1.919
					c11.554,3.268,28.379,5.903,42.547-0.422l-5.545,8.202H80.222z"/>
				<path style="fill:#1B6591;" d="M85.451,85.392c7.674,3.605,19.439,4.006,24.478,4.006c1.687-0.021,3.352,0.316,4.891,0.949
					l21.969,8.982c-14.168,6.325-30.993,3.69-42.547,0.422c-4.596-1.307-9.319-1.94-14.021-1.919v-5.313v-8.286
					C81.993,84.211,83.785,84.612,85.451,85.392z"/>
				<rect x="80.222" y="107.53" style="fill:#063756;" width="51.023" height="2.446"/>
				<path style="fill:#0C4C6B;" d="M80.222,76.347v-7.168c4.449-0.021,8.918,0.527,13.283,1.645
					c8.94,2.256,20.978,3.648,31.246-0.928l-4.385,6.451H80.222z"/>
				<path style="fill:#1B6591;" d="M85.345,59.354c6.009,2.446,14.527,2.741,18.28,2.72c1.328,0,2.636,0.253,3.837,0.759
					l17.288,7.063c-10.268,4.575-22.306,3.184-31.246,0.928c-4.364-1.118-8.834-1.666-13.283-1.645V64.54v-6.156
					C81.951,58.363,83.701,58.679,85.345,59.354z"/>
				<rect x="80.222" y="76.347" style="fill:#063756;" width="40.144" height="1.919"/>
				<path style="fill:#1B6591;" d="M80.222,28.972h3.458V28.93c14.084,6.641,21.885,19.734,23.024,21.758H80.222V28.972z"/>
				<path style="fill:#1B6591;" d="M80.222,27.643v-3.247h3.458v4.533c-1.033-0.485-2.129-0.949-3.247-1.371
					C80.369,27.58,80.285,27.622,80.222,27.643z"/>
				<path style="fill:#063756;" d="M80.222,28.972v-1.328c0.063-0.021,0.148-0.063,0.211-0.084c1.118,0.422,2.214,0.886,3.247,1.371
					v0.042H80.222z"/>
				<path style="fill:#004B68;" d="M80.222,28.972v21.716H54.141c1.139-2.024,8.94-15.117,23.024-21.758v0.042H80.222z"/>
				<path style="fill:#004B68;" d="M77.165,28.93v-4.533h3.057v3.247C79.167,28.044,78.156,28.466,77.165,28.93z"/>
				<path style="fill:#063756;" d="M80.222,28.972h-3.057V28.93c0.991-0.464,2.003-0.886,3.057-1.286V28.972z"/>
				<path style="fill:#063756;" d="M67.361,70.823c4.238-1.075,8.539-1.624,12.861-1.645v7.168H40.479l-4.385-6.451
					C46.361,74.471,58.421,73.079,67.361,70.823z"/>
				<path style="fill:#004B68;" d="M53.382,62.832c1.223-0.506,2.509-0.759,3.837-0.759c3.774,0.021,12.376-0.274,18.385-2.762
					c1.497-0.611,3.057-0.907,4.617-0.928v6.156v4.638c-4.322,0.021-8.623,0.569-12.861,1.645c-8.94,2.256-21,3.648-31.267-0.928
					L53.382,62.832z"/>
				<polygon style="fill:#001F33;" points="80.222,78.266 40.415,78.266 40.415,76.347 40.479,76.347 80.222,76.347 				"/>
				<path style="fill:#063756;" d="M66.623,99.75c4.449-1.265,9.003-1.898,13.599-1.919v9.698H29.621l-5.566-8.202
					C38.223,105.654,55.069,103.018,66.623,99.75z"/>
				<path style="fill:#004B68;" d="M46.024,90.347c1.56-0.632,3.205-0.97,4.87-0.949c5.06,0,16.994-0.401,24.668-4.09
					c1.476-0.717,3.078-1.054,4.659-1.075v8.286v5.313c-4.596,0.021-9.15,0.654-13.599,1.919c-11.554,3.268-28.4,5.903-42.568-0.422
					L46.024,90.347z"/>
				<polygon style="fill:#001F33;" points="80.222,109.976 29.536,109.976 29.536,107.53 29.621,107.53 80.222,107.53 				"/>
				<path style="fill:#063756;" d="M65.737,134.686c4.723-1.434,9.593-2.172,14.485-2.193v12.229H18.763l-6.768-9.931
					C30.063,142.845,51.695,138.924,65.737,134.686z"/>
				<path style="fill:#004B68;" d="M38.708,123.87c1.877-0.78,3.901-1.16,5.946-1.16c6.262,0.021,20.936-0.506,30.213-5.102
					c1.708-0.843,3.521-1.265,5.355-1.307v10.205v5.988c-4.891,0.021-9.762,0.759-14.485,2.193
					c-14.042,4.238-35.674,8.16-53.743,0.105L38.708,123.87z"/>
				<polygon style="fill:#001F33;" points="80.222,147.695 18.678,147.695 18.678,144.722 18.763,144.722 80.222,144.722 				"/>
				<path style="fill:#063756;" d="M65.189,175.504c4.891-1.56,9.952-2.34,15.033-2.361v14.801H7.904l-7.949-11.702
					C22.094,186.13,48.786,180.712,65.189,175.504z"/>
				<path style="fill:#004B68;" d="M31.35,163.423c2.235-0.907,4.596-1.371,7-1.371c7.569,0.021,25.532-0.611,36.369-6.43
					c1.729-0.928,3.626-1.391,5.503-1.413v12.313v6.62c-5.081,0.021-10.141,0.801-15.033,2.361
					c-16.403,5.208-43.095,10.626-65.233,0.738L31.35,163.423z"/>
				<polygon style="fill:#001F33;" points="80.222,191.443 7.799,191.443 7.799,187.944 7.904,187.944 80.222,187.944 				"/>
				<path style="fill:#063756;" d="M64.346,222.415c5.165-1.687,10.5-2.551,15.876-2.572v17.352H-2.954l-9.15-13.451
					C14.019,235.403,45.644,228.53,64.346,222.415z"/>
				<path style="fill:#004B68;" d="M23.97,209.006c2.572-1.054,5.313-1.581,8.075-1.581c8.813,0.021,29.939-0.738,42.357-7.695
					c1.813-1.033,3.816-1.581,5.819-1.623v14.442v7.295c-5.376,0.021-10.711,0.885-15.876,2.572
					c-18.701,6.114-50.327,12.988-76.45,1.328L23.97,209.006z"/>
				<polygon style="fill:#001F33;" points="80.222,241.201 -3.08,241.201 -3.08,237.195 -2.954,237.195 80.222,237.195 				"/>
				<path style="fill:#063756;" d="M64.093,275.125c5.229-1.771,10.668-2.656,16.129-2.678v20.009h-94.034l-10.331-15.223
					C6.26,290.811,43.262,282.167,64.093,275.125z"/>
				<path style="fill:#004B68;" d="M16.612,260.577c2.91-1.181,6.009-1.771,9.129-1.771c10.162,0.021,34.746-0.864,48.661-9.171
					c1.813-1.054,3.795-1.581,5.819-1.602v16.572v7.843c-5.461,0.021-10.9,0.907-16.129,2.678
					c-20.831,7.042-57.833,15.686-88.236,2.108L16.612,260.577z"/>
				<polygon style="fill:#001F33;" points="80.222,296.968 -13.96,296.968 -13.96,292.456 -13.812,292.456 80.222,292.456 				"/>
				<path style="fill:#063756;" d="M63.502,333.97c5.419-1.877,11.048-2.825,16.719-2.847v22.602H-24.691l-11.512-16.951
					C-1.668,352.186,40.5,341.897,63.502,333.97z"/>
				<path style="fill:#004B68;" d="M9.275,318.178c3.226-1.307,6.684-1.982,10.162-1.982c11.427,0.021,39.279-0.97,54.691-10.479
					c1.876-1.138,3.964-1.729,6.093-1.771v18.702v8.475c-5.671,0.021-11.301,0.97-16.719,2.847
					c-23.002,7.927-65.17,18.216-99.705,2.804L9.275,318.178z"/>
				<polygon style="fill:#001F33;" points="80.222,358.764 -24.839,358.764 -24.839,353.725 -24.691,353.725 80.222,353.725 				"/>
				<path style="fill:#063756;" d="M63.502,398.592c5.397-1.897,11.048-2.867,16.719-2.889v25.301H-35.549l-12.693-18.701
					C-9.237,419.718,38.581,407.405,63.502,398.592z"/>
				<path style="fill:#004B68;" d="M1.917,381.809c3.563-1.455,7.379-2.193,11.238-2.193c12.756,0.021,44.086-1.117,60.974-11.954
					c1.855-1.202,3.964-1.771,6.093-1.792v20.873v8.961c-5.671,0.021-11.322,0.991-16.719,2.889
					c-24.921,8.813-72.739,21.126-111.744,3.711L1.917,381.809z"/>
				<polygon style="fill:#001F33;" points="80.222,426.591 -35.718,426.591 -35.718,421.004 -35.549,421.004 80.222,421.004 				"/>
				<path style="fill:#063756;" d="M63.039,469.412c5.566-2.003,11.364-3.015,17.183-3.036v27.936H-46.408l-13.894-20.451
					C-17.059,493.153,36.114,479.068,63.039,469.412z"/>
				<path style="fill:#004B68;" d="M-5.442,451.449c3.879-1.603,8.012-2.404,12.208-2.404c13.936,0.021,48.472-1.202,66.92-13.177
					c2.003-1.307,4.259-1.982,6.536-2.024v22.981v9.551c-5.819,0.021-11.617,1.033-17.183,3.036
					c-26.924,9.656-80.097,23.74-123.34,4.449L-5.442,451.449z"/>
				<polygon style="fill:#001F33;" points="80.222,500.405 -46.576,500.405 -46.576,494.312 -46.408,494.312 80.222,494.312 				"/>
				<path style="fill:#063756;" d="M62.68,548.561c5.672-2.087,11.596-3.141,17.542-3.163v32.849H-66.374l-16.087-23.677
					C-31.101,577.509,32.361,559.714,62.68,548.561z"/>
				<path style="fill:#004B68;" d="M-18.956,528.615c4.491-1.813,9.277-2.762,14.105-2.762c16.424,0.021,57.475-1.434,78.537-15.96
					c1.982-1.349,4.259-2.045,6.536-2.087v27.051v10.542c-5.946,0.021-11.87,1.075-17.542,3.163
					c-30.319,11.153-93.781,28.948-145.141,6.009L-18.956,528.615z"/>
				<polygon style="fill:#001F33;" points="80.222,578.247 80.222,585.31 -66.585,585.31 -66.585,578.247 -66.374,578.247 				"/>
			</g>
		</g>
	</g>
</g>
</svg>
