<svg xmlns="http://www.w3.org/2000/svg" xmlns:xlink="http://www.w3.org/1999/xlink" width="40" zoomAndPan="magnify" viewBox="0 0 30 30.000001" height="40" preserveAspectRatio="xMidYMid meet" version="1.0"><defs><g/></defs><g fill="#ffffff" fill-opacity="1"><g transform="translate(0.48387, 20.262096)"><g><path d="M 7.625 -1.9375 C 7.6875 -1.675781 7.71875 -1.351562 7.71875 -0.96875 C 7.71875 -0.59375 7.6875 -0.269531 7.625 0 L 5.6875 0 C 5.625 -0.269531 5.59375 -0.59375 5.59375 -0.96875 C 5.59375 -1.351562 5.625 -1.675781 5.6875 -1.9375 L 4.46875 -1.9375 C 4.40625 -2.207031 4.375 -2.53125 4.375 -2.90625 C 4.375 -3.289062 4.40625 -3.613281 4.46875 -3.875 L 3.265625 -3.875 C 3.203125 -4.144531 3.171875 -4.46875 3.171875 -4.84375 C 3.171875 -5.226562 3.203125 -5.550781 3.265625 -5.8125 L 2.0625 -5.8125 C 1.988281 -6.082031 1.953125 -6.398438 1.953125 -6.765625 C 1.953125 -7.160156 1.988281 -7.484375 2.0625 -7.734375 L 3.265625 -7.734375 C 3.203125 -8.015625 3.171875 -8.335938 3.171875 -8.703125 C 3.171875 -9.085938 3.203125 -9.410156 3.265625 -9.671875 L 4.46875 -9.671875 C 4.40625 -9.953125 4.375 -10.273438 4.375 -10.640625 C 4.375 -11.023438 4.40625 -11.347656 4.46875 -11.609375 L 5.6875 -11.609375 C 5.625 -11.878906 5.59375 -12.203125 5.59375 -12.578125 C 5.59375 -12.960938 5.625 -13.285156 5.6875 -13.546875 L 7.625 -13.546875 C 7.6875 -13.285156 7.71875 -12.960938 7.71875 -12.578125 C 7.71875 -12.203125 7.6875 -11.878906 7.625 -11.609375 L 6.40625 -11.609375 C 6.46875 -11.347656 6.5 -11.023438 6.5 -10.640625 C 6.5 -10.273438 6.46875 -9.953125 6.40625 -9.671875 L 5.203125 -9.671875 C 5.265625 -9.410156 5.296875 -9.085938 5.296875 -8.703125 C 5.296875 -8.335938 5.265625 -8.015625 5.203125 -7.734375 L 3.984375 -7.734375 C 4.054688 -7.484375 4.09375 -7.160156 4.09375 -6.765625 C 4.09375 -6.398438 4.054688 -6.082031 3.984375 -5.8125 L 5.203125 -5.8125 C 5.265625 -5.550781 5.296875 -5.226562 5.296875 -4.84375 C 5.296875 -4.46875 5.265625 -4.144531 5.203125 -3.875 L 6.40625 -3.875 C 6.46875 -3.613281 6.5 -3.289062 6.5 -2.90625 C 6.5 -2.53125 6.46875 -2.207031 6.40625 -1.9375 Z M 7.625 -1.9375 "/></g></g></g><g fill="#ffffff" fill-opacity="1"><g transform="translate(10.157473, 20.262096)"><g><path d="M 8.796875 -14.515625 C 8.796875 -14.140625 8.765625 -13.816406 8.703125 -13.546875 L 7.984375 -13.546875 C 8.046875 -13.285156 8.078125 -12.960938 8.078125 -12.578125 C 8.078125 -12.203125 8.046875 -11.878906 7.984375 -11.609375 L 7.25 -11.609375 C 7.320312 -11.347656 7.359375 -11.023438 7.359375 -10.640625 C 7.359375 -10.273438 7.320312 -9.953125 7.25 -9.671875 L 6.53125 -9.671875 C 6.59375 -9.410156 6.625 -9.085938 6.625 -8.703125 C 6.625 -8.335938 6.59375 -8.015625 6.53125 -7.734375 L 5.8125 -7.734375 C 5.875 -7.484375 5.90625 -7.160156 5.90625 -6.765625 C 5.90625 -6.398438 5.875 -6.082031 5.8125 -5.8125 L 5.078125 -5.8125 C 5.140625 -5.550781 5.171875 -5.226562 5.171875 -4.84375 C 5.171875 -4.46875 5.140625 -4.144531 5.078125 -3.875 L 4.359375 -3.875 C 4.421875 -3.613281 4.453125 -3.289062 4.453125 -2.90625 C 4.453125 -2.53125 4.421875 -2.207031 4.359375 -1.9375 L 3.625 -1.9375 C 3.6875 -1.675781 3.71875 -1.351562 3.71875 -0.96875 C 3.71875 -0.59375 3.6875 -0.269531 3.625 0 L 2.90625 0 C 2.96875 0.257812 3 0.582031 3 0.96875 C 3 1.34375 2.96875 1.664062 2.90625 1.9375 L 0.96875 1.9375 C 0.90625 1.664062 0.875 1.34375 0.875 0.96875 C 0.875 0.582031 0.90625 0.257812 0.96875 0 L 1.6875 0 C 1.625 -0.269531 1.59375 -0.59375 1.59375 -0.96875 C 1.59375 -1.351562 1.625 -1.675781 1.6875 -1.9375 L 2.421875 -1.9375 C 2.359375 -2.207031 2.328125 -2.53125 2.328125 -2.90625 C 2.328125 -3.289062 2.359375 -3.613281 2.421875 -3.875 L 3.140625 -3.875 C 3.078125 -4.144531 3.046875 -4.46875 3.046875 -4.84375 C 3.046875 -5.226562 3.078125 -5.550781 3.140625 -5.8125 L 3.875 -5.8125 C 3.800781 -6.082031 3.765625 -6.398438 3.765625 -6.765625 C 3.765625 -7.160156 3.800781 -7.484375 3.875 -7.734375 L 4.59375 -7.734375 C 4.53125 -8.015625 4.5 -8.335938 4.5 -8.703125 C 4.5 -9.085938 4.53125 -9.410156 4.59375 -9.671875 L 5.328125 -9.671875 C 5.253906 -9.953125 5.21875 -10.273438 5.21875 -10.640625 C 5.21875 -11.023438 5.253906 -11.347656 5.328125 -11.609375 L 6.046875 -11.609375 C 5.984375 -11.878906 5.953125 -12.203125 5.953125 -12.578125 C 5.953125 -12.960938 5.984375 -13.285156 6.046875 -13.546875 L 6.765625 -13.546875 C 6.703125 -13.816406 6.671875 -14.140625 6.671875 -14.515625 C 6.671875 -14.898438 6.703125 -15.222656 6.765625 -15.484375 L 8.703125 -15.484375 C 8.765625 -15.222656 8.796875 -14.898438 8.796875 -14.515625 Z M 8.796875 -14.515625 "/></g></g></g><g fill="#ffffff" fill-opacity="1"><g transform="translate(19.831077, 20.262096)"><g><path d="M 7.71875 -6.765625 C 7.71875 -6.398438 7.6875 -6.082031 7.625 -5.8125 L 6.40625 -5.8125 C 6.46875 -5.550781 6.5 -5.226562 6.5 -4.84375 C 6.5 -4.46875 6.46875 -4.144531 6.40625 -3.875 L 5.203125 -3.875 C 5.265625 -3.613281 5.296875 -3.289062 5.296875 -2.90625 C 5.296875 -2.53125 5.265625 -2.207031 5.203125 -1.9375 L 3.984375 -1.9375 C 4.054688 -1.675781 4.09375 -1.351562 4.09375 -0.96875 C 4.09375 -0.59375 4.054688 -0.269531 3.984375 0 L 2.0625 0 C 1.988281 -0.269531 1.953125 -0.59375 1.953125 -0.96875 C 1.953125 -1.351562 1.988281 -1.675781 2.0625 -1.9375 L 3.265625 -1.9375 C 3.203125 -2.207031 3.171875 -2.53125 3.171875 -2.90625 C 3.171875 -3.289062 3.203125 -3.613281 3.265625 -3.875 L 4.46875 -3.875 C 4.40625 -4.144531 4.375 -4.46875 4.375 -4.84375 C 4.375 -5.226562 4.40625 -5.550781 4.46875 -5.8125 L 5.6875 -5.8125 C 5.625 -6.082031 5.59375 -6.398438 5.59375 -6.765625 C 5.59375 -7.160156 5.625 -7.484375 5.6875 -7.734375 L 4.46875 -7.734375 C 4.40625 -8.015625 4.375 -8.335938 4.375 -8.703125 C 4.375 -9.085938 4.40625 -9.410156 4.46875 -9.671875 L 3.265625 -9.671875 C 3.203125 -9.953125 3.171875 -10.273438 3.171875 -10.640625 C 3.171875 -11.023438 3.203125 -11.347656 3.265625 -11.609375 L 2.0625 -11.609375 C 1.988281 -11.878906 1.953125 -12.203125 1.953125 -12.578125 C 1.953125 -12.960938 1.988281 -13.285156 2.0625 -13.546875 L 3.984375 -13.546875 C 4.054688 -13.285156 4.09375 -12.960938 4.09375 -12.578125 C 4.09375 -12.203125 4.054688 -11.878906 3.984375 -11.609375 L 5.203125 -11.609375 C 5.265625 -11.347656 5.296875 -11.023438 5.296875 -10.640625 C 5.296875 -10.273438 5.265625 -9.953125 5.203125 -9.671875 L 6.40625 -9.671875 C 6.46875 -9.410156 6.5 -9.085938 6.5 -8.703125 C 6.5 -8.335938 6.46875 -8.015625 6.40625 -7.734375 L 7.625 -7.734375 C 7.6875 -7.484375 7.71875 -7.160156 7.71875 -6.765625 Z M 7.71875 -6.765625 "/></g></g></g><g fill="#0cc0df" fill-opacity="1"><g transform="translate(0.479334, 21.774195)"><g><path d="M 7.625 -1.9375 C 7.6875 -1.675781 7.71875 -1.351562 7.71875 -0.96875 C 7.71875 -0.59375 7.6875 -0.269531 7.625 0 L 5.6875 0 C 5.625 -0.269531 5.59375 -0.59375 5.59375 -0.96875 C 5.59375 -1.351562 5.625 -1.675781 5.6875 -1.9375 L 4.46875 -1.9375 C 4.40625 -2.207031 4.375 -2.53125 4.375 -2.90625 C 4.375 -3.289062 4.40625 -3.613281 4.46875 -3.875 L 3.265625 -3.875 C 3.203125 -4.144531 3.171875 -4.46875 3.171875 -4.84375 C 3.171875 -5.226562 3.203125 -5.550781 3.265625 -5.8125 L 2.0625 -5.8125 C 1.988281 -6.082031 1.953125 -6.398438 1.953125 -6.765625 C 1.953125 -7.160156 1.988281 -7.484375 2.0625 -7.734375 L 3.265625 -7.734375 C 3.203125 -8.015625 3.171875 -8.335938 3.171875 -8.703125 C 3.171875 -9.085938 3.203125 -9.410156 3.265625 -9.671875 L 4.46875 -9.671875 C 4.40625 -9.953125 4.375 -10.273438 4.375 -10.640625 C 4.375 -11.023438 4.40625 -11.347656 4.46875 -11.609375 L 5.6875 -11.609375 C 5.625 -11.878906 5.59375 -12.203125 5.59375 -12.578125 C 5.59375 -12.960938 5.625 -13.285156 5.6875 -13.546875 L 7.625 -13.546875 C 7.6875 -13.285156 7.71875 -12.960938 7.71875 -12.578125 C 7.71875 -12.203125 7.6875 -11.878906 7.625 -11.609375 L 6.40625 -11.609375 C 6.46875 -11.347656 6.5 -11.023438 6.5 -10.640625 C 6.5 -10.273438 6.46875 -9.953125 6.40625 -9.671875 L 5.203125 -9.671875 C 5.265625 -9.410156 5.296875 -9.085938 5.296875 -8.703125 C 5.296875 -8.335938 5.265625 -8.015625 5.203125 -7.734375 L 3.984375 -7.734375 C 4.054688 -7.484375 4.09375 -7.160156 4.09375 -6.765625 C 4.09375 -6.398438 4.054688 -6.082031 3.984375 -5.8125 L 5.203125 -5.8125 C 5.265625 -5.550781 5.296875 -5.226562 5.296875 -4.84375 C 5.296875 -4.46875 5.265625 -4.144531 5.203125 -3.875 L 6.40625 -3.875 C 6.46875 -3.613281 6.5 -3.289062 6.5 -2.90625 C 6.5 -2.53125 6.46875 -2.207031 6.40625 -1.9375 Z M 7.625 -1.9375 "/></g></g></g><g fill="#0cc0df" fill-opacity="1"><g transform="translate(10.155221, 21.774195)"><g><path d="M 8.796875 -14.515625 C 8.796875 -14.140625 8.765625 -13.816406 8.703125 -13.546875 L 7.984375 -13.546875 C 8.046875 -13.285156 8.078125 -12.960938 8.078125 -12.578125 C 8.078125 -12.203125 8.046875 -11.878906 7.984375 -11.609375 L 7.25 -11.609375 C 7.320312 -11.347656 7.359375 -11.023438 7.359375 -10.640625 C 7.359375 -10.273438 7.320312 -9.953125 7.25 -9.671875 L 6.53125 -9.671875 C 6.59375 -9.410156 6.625 -9.085938 6.625 -8.703125 C 6.625 -8.335938 6.59375 -8.015625 6.53125 -7.734375 L 5.8125 -7.734375 C 5.875 -7.484375 5.90625 -7.160156 5.90625 -6.765625 C 5.90625 -6.398438 5.875 -6.082031 5.8125 -5.8125 L 5.078125 -5.8125 C 5.140625 -5.550781 5.171875 -5.226562 5.171875 -4.84375 C 5.171875 -4.46875 5.140625 -4.144531 5.078125 -3.875 L 4.359375 -3.875 C 4.421875 -3.613281 4.453125 -3.289062 4.453125 -2.90625 C 4.453125 -2.53125 4.421875 -2.207031 4.359375 -1.9375 L 3.625 -1.9375 C 3.6875 -1.675781 3.71875 -1.351562 3.71875 -0.96875 C 3.71875 -0.59375 3.6875 -0.269531 3.625 0 L 2.90625 0 C 2.96875 0.257812 3 0.582031 3 0.96875 C 3 1.34375 2.96875 1.664062 2.90625 1.9375 L 0.96875 1.9375 C 0.90625 1.664062 0.875 1.34375 0.875 0.96875 C 0.875 0.582031 0.90625 0.257812 0.96875 0 L 1.6875 0 C 1.625 -0.269531 1.59375 -0.59375 1.59375 -0.96875 C 1.59375 -1.351562 1.625 -1.675781 1.6875 -1.9375 L 2.421875 -1.9375 C 2.359375 -2.207031 2.328125 -2.53125 2.328125 -2.90625 C 2.328125 -3.289062 2.359375 -3.613281 2.421875 -3.875 L 3.140625 -3.875 C 3.078125 -4.144531 3.046875 -4.46875 3.046875 -4.84375 C 3.046875 -5.226562 3.078125 -5.550781 3.140625 -5.8125 L 3.875 -5.8125 C 3.800781 -6.082031 3.765625 -6.398438 3.765625 -6.765625 C 3.765625 -7.160156 3.800781 -7.484375 3.875 -7.734375 L 4.59375 -7.734375 C 4.53125 -8.015625 4.5 -8.335938 4.5 -8.703125 C 4.5 -9.085938 4.53125 -9.410156 4.59375 -9.671875 L 5.328125 -9.671875 C 5.253906 -9.953125 5.21875 -10.273438 5.21875 -10.640625 C 5.21875 -11.023438 5.253906 -11.347656 5.328125 -11.609375 L 6.046875 -11.609375 C 5.984375 -11.878906 5.953125 -12.203125 5.953125 -12.578125 C 5.953125 -12.960938 5.984375 -13.285156 6.046875 -13.546875 L 6.765625 -13.546875 C 6.703125 -13.816406 6.671875 -14.140625 6.671875 -14.515625 C 6.671875 -14.898438 6.703125 -15.222656 6.765625 -15.484375 L 8.703125 -15.484375 C 8.765625 -15.222656 8.796875 -14.898438 8.796875 -14.515625 Z M 8.796875 -14.515625 "/></g></g></g><g fill="#0cc0df" fill-opacity="1"><g transform="translate(19.831109, 21.774195)"><g><path d="M 7.71875 -6.765625 C 7.71875 -6.398438 7.6875 -6.082031 7.625 -5.8125 L 6.40625 -5.8125 C 6.46875 -5.550781 6.5 -5.226562 6.5 -4.84375 C 6.5 -4.46875 6.46875 -4.144531 6.40625 -3.875 L 5.203125 -3.875 C 5.265625 -3.613281 5.296875 -3.289062 5.296875 -2.90625 C 5.296875 -2.53125 5.265625 -2.207031 5.203125 -1.9375 L 3.984375 -1.9375 C 4.054688 -1.675781 4.09375 -1.351562 4.09375 -0.96875 C 4.09375 -0.59375 4.054688 -0.269531 3.984375 0 L 2.0625 0 C 1.988281 -0.269531 1.953125 -0.59375 1.953125 -0.96875 C 1.953125 -1.351562 1.988281 -1.675781 2.0625 -1.9375 L 3.265625 -1.9375 C 3.203125 -2.207031 3.171875 -2.53125 3.171875 -2.90625 C 3.171875 -3.289062 3.203125 -3.613281 3.265625 -3.875 L 4.46875 -3.875 C 4.40625 -4.144531 4.375 -4.46875 4.375 -4.84375 C 4.375 -5.226562 4.40625 -5.550781 4.46875 -5.8125 L 5.6875 -5.8125 C 5.625 -6.082031 5.59375 -6.398438 5.59375 -6.765625 C 5.59375 -7.160156 5.625 -7.484375 5.6875 -7.734375 L 4.46875 -7.734375 C 4.40625 -8.015625 4.375 -8.335938 4.375 -8.703125 C 4.375 -9.085938 4.40625 -9.410156 4.46875 -9.671875 L 3.265625 -9.671875 C 3.203125 -9.953125 3.171875 -10.273438 3.171875 -10.640625 C 3.171875 -11.023438 3.203125 -11.347656 3.265625 -11.609375 L 2.0625 -11.609375 C 1.988281 -11.878906 1.953125 -12.203125 1.953125 -12.578125 C 1.953125 -12.960938 1.988281 -13.285156 2.0625 -13.546875 L 3.984375 -13.546875 C 4.054688 -13.285156 4.09375 -12.960938 4.09375 -12.578125 C 4.09375 -12.203125 4.054688 -11.878906 3.984375 -11.609375 L 5.203125 -11.609375 C 5.265625 -11.347656 5.296875 -11.023438 5.296875 -10.640625 C 5.296875 -10.273438 5.265625 -9.953125 5.203125 -9.671875 L 6.40625 -9.671875 C 6.46875 -9.410156 6.5 -9.085938 6.5 -8.703125 C 6.5 -8.335938 6.46875 -8.015625 6.40625 -7.734375 L 7.625 -7.734375 C 7.6875 -7.484375 7.71875 -7.160156 7.71875 -6.765625 Z M 7.71875 -6.765625 "/></g></g></g><g fill="#8c52ff" fill-opacity="1"><g transform="translate(0.479334, 20.322582)"><g><path d="M 7.625 -1.9375 C 7.6875 -1.675781 7.71875 -1.351562 7.71875 -0.96875 C 7.71875 -0.59375 7.6875 -0.269531 7.625 0 L 5.6875 0 C 5.625 -0.269531 5.59375 -0.59375 5.59375 -0.96875 C 5.59375 -1.351562 5.625 -1.675781 5.6875 -1.9375 L 4.46875 -1.9375 C 4.40625 -2.207031 4.375 -2.53125 4.375 -2.90625 C 4.375 -3.289062 4.40625 -3.613281 4.46875 -3.875 L 3.265625 -3.875 C 3.203125 -4.144531 3.171875 -4.46875 3.171875 -4.84375 C 3.171875 -5.226562 3.203125 -5.550781 3.265625 -5.8125 L 2.0625 -5.8125 C 1.988281 -6.082031 1.953125 -6.398438 1.953125 -6.765625 C 1.953125 -7.160156 1.988281 -7.484375 2.0625 -7.734375 L 3.265625 -7.734375 C 3.203125 -8.015625 3.171875 -8.335938 3.171875 -8.703125 C 3.171875 -9.085938 3.203125 -9.410156 3.265625 -9.671875 L 4.46875 -9.671875 C 4.40625 -9.953125 4.375 -10.273438 4.375 -10.640625 C 4.375 -11.023438 4.40625 -11.347656 4.46875 -11.609375 L 5.6875 -11.609375 C 5.625 -11.878906 5.59375 -12.203125 5.59375 -12.578125 C 5.59375 -12.960938 5.625 -13.285156 5.6875 -13.546875 L 7.625 -13.546875 C 7.6875 -13.285156 7.71875 -12.960938 7.71875 -12.578125 C 7.71875 -12.203125 7.6875 -11.878906 7.625 -11.609375 L 6.40625 -11.609375 C 6.46875 -11.347656 6.5 -11.023438 6.5 -10.640625 C 6.5 -10.273438 6.46875 -9.953125 6.40625 -9.671875 L 5.203125 -9.671875 C 5.265625 -9.410156 5.296875 -9.085938 5.296875 -8.703125 C 5.296875 -8.335938 5.265625 -8.015625 5.203125 -7.734375 L 3.984375 -7.734375 C 4.054688 -7.484375 4.09375 -7.160156 4.09375 -6.765625 C 4.09375 -6.398438 4.054688 -6.082031 3.984375 -5.8125 L 5.203125 -5.8125 C 5.265625 -5.550781 5.296875 -5.226562 5.296875 -4.84375 C 5.296875 -4.46875 5.265625 -4.144531 5.203125 -3.875 L 6.40625 -3.875 C 6.46875 -3.613281 6.5 -3.289062 6.5 -2.90625 C 6.5 -2.53125 6.46875 -2.207031 6.40625 -1.9375 Z M 7.625 -1.9375 "/></g></g></g><g fill="#8c52ff" fill-opacity="1"><g transform="translate(10.155221, 20.322582)"><g><path d="M 8.796875 -14.515625 C 8.796875 -14.140625 8.765625 -13.816406 8.703125 -13.546875 L 7.984375 -13.546875 C 8.046875 -13.285156 8.078125 -12.960938 8.078125 -12.578125 C 8.078125 -12.203125 8.046875 -11.878906 7.984375 -11.609375 L 7.25 -11.609375 C 7.320312 -11.347656 7.359375 -11.023438 7.359375 -10.640625 C 7.359375 -10.273438 7.320312 -9.953125 7.25 -9.671875 L 6.53125 -9.671875 C 6.59375 -9.410156 6.625 -9.085938 6.625 -8.703125 C 6.625 -8.335938 6.59375 -8.015625 6.53125 -7.734375 L 5.8125 -7.734375 C 5.875 -7.484375 5.90625 -7.160156 5.90625 -6.765625 C 5.90625 -6.398438 5.875 -6.082031 5.8125 -5.8125 L 5.078125 -5.8125 C 5.140625 -5.550781 5.171875 -5.226562 5.171875 -4.84375 C 5.171875 -4.46875 5.140625 -4.144531 5.078125 -3.875 L 4.359375 -3.875 C 4.421875 -3.613281 4.453125 -3.289062 4.453125 -2.90625 C 4.453125 -2.53125 4.421875 -2.207031 4.359375 -1.9375 L 3.625 -1.9375 C 3.6875 -1.675781 3.71875 -1.351562 3.71875 -0.96875 C 3.71875 -0.59375 3.6875 -0.269531 3.625 0 L 2.90625 0 C 2.96875 0.257812 3 0.582031 3 0.96875 C 3 1.34375 2.96875 1.664062 2.90625 1.9375 L 0.96875 1.9375 C 0.90625 1.664062 0.875 1.34375 0.875 0.96875 C 0.875 0.582031 0.90625 0.257812 0.96875 0 L 1.6875 0 C 1.625 -0.269531 1.59375 -0.59375 1.59375 -0.96875 C 1.59375 -1.351562 1.625 -1.675781 1.6875 -1.9375 L 2.421875 -1.9375 C 2.359375 -2.207031 2.328125 -2.53125 2.328125 -2.90625 C 2.328125 -3.289062 2.359375 -3.613281 2.421875 -3.875 L 3.140625 -3.875 C 3.078125 -4.144531 3.046875 -4.46875 3.046875 -4.84375 C 3.046875 -5.226562 3.078125 -5.550781 3.140625 -5.8125 L 3.875 -5.8125 C 3.800781 -6.082031 3.765625 -6.398438 3.765625 -6.765625 C 3.765625 -7.160156 3.800781 -7.484375 3.875 -7.734375 L 4.59375 -7.734375 C 4.53125 -8.015625 4.5 -8.335938 4.5 -8.703125 C 4.5 -9.085938 4.53125 -9.410156 4.59375 -9.671875 L 5.328125 -9.671875 C 5.253906 -9.953125 5.21875 -10.273438 5.21875 -10.640625 C 5.21875 -11.023438 5.253906 -11.347656 5.328125 -11.609375 L 6.046875 -11.609375 C 5.984375 -11.878906 5.953125 -12.203125 5.953125 -12.578125 C 5.953125 -12.960938 5.984375 -13.285156 6.046875 -13.546875 L 6.765625 -13.546875 C 6.703125 -13.816406 6.671875 -14.140625 6.671875 -14.515625 C 6.671875 -14.898438 6.703125 -15.222656 6.765625 -15.484375 L 8.703125 -15.484375 C 8.765625 -15.222656 8.796875 -14.898438 8.796875 -14.515625 Z M 8.796875 -14.515625 "/></g></g></g><g fill="#8c52ff" fill-opacity="1"><g transform="translate(19.831109, 20.322582)"><g><path d="M 7.71875 -6.765625 C 7.71875 -6.398438 7.6875 -6.082031 7.625 -5.8125 L 6.40625 -5.8125 C 6.46875 -5.550781 6.5 -5.226562 6.5 -4.84375 C 6.5 -4.46875 6.46875 -4.144531 6.40625 -3.875 L 5.203125 -3.875 C 5.265625 -3.613281 5.296875 -3.289062 5.296875 -2.90625 C 5.296875 -2.53125 5.265625 -2.207031 5.203125 -1.9375 L 3.984375 -1.9375 C 4.054688 -1.675781 4.09375 -1.351562 4.09375 -0.96875 C 4.09375 -0.59375 4.054688 -0.269531 3.984375 0 L 2.0625 0 C 1.988281 -0.269531 1.953125 -0.59375 1.953125 -0.96875 C 1.953125 -1.351562 1.988281 -1.675781 2.0625 -1.9375 L 3.265625 -1.9375 C 3.203125 -2.207031 3.171875 -2.53125 3.171875 -2.90625 C 3.171875 -3.289062 3.203125 -3.613281 3.265625 -3.875 L 4.46875 -3.875 C 4.40625 -4.144531 4.375 -4.46875 4.375 -4.84375 C 4.375 -5.226562 4.40625 -5.550781 4.46875 -5.8125 L 5.6875 -5.8125 C 5.625 -6.082031 5.59375 -6.398438 5.59375 -6.765625 C 5.59375 -7.160156 5.625 -7.484375 5.6875 -7.734375 L 4.46875 -7.734375 C 4.40625 -8.015625 4.375 -8.335938 4.375 -8.703125 C 4.375 -9.085938 4.40625 -9.410156 4.46875 -9.671875 L 3.265625 -9.671875 C 3.203125 -9.953125 3.171875 -10.273438 3.171875 -10.640625 C 3.171875 -11.023438 3.203125 -11.347656 3.265625 -11.609375 L 2.0625 -11.609375 C 1.988281 -11.878906 1.953125 -12.203125 1.953125 -12.578125 C 1.953125 -12.960938 1.988281 -13.285156 2.0625 -13.546875 L 3.984375 -13.546875 C 4.054688 -13.285156 4.09375 -12.960938 4.09375 -12.578125 C 4.09375 -12.203125 4.054688 -11.878906 3.984375 -11.609375 L 5.203125 -11.609375 C 5.265625 -11.347656 5.296875 -11.023438 5.296875 -10.640625 C 5.296875 -10.273438 5.265625 -9.953125 5.203125 -9.671875 L 6.40625 -9.671875 C 6.46875 -9.410156 6.5 -9.085938 6.5 -8.703125 C 6.5 -8.335938 6.46875 -8.015625 6.40625 -7.734375 L 7.625 -7.734375 C 7.6875 -7.484375 7.71875 -7.160156 7.71875 -6.765625 Z M 7.71875 -6.765625 "/></g></g></g><g fill="#ffffff" fill-opacity="1"><g transform="translate(0.479334, 19.11291)"><g><path d="M 7.625 -1.9375 C 7.6875 -1.675781 7.71875 -1.351562 7.71875 -0.96875 C 7.71875 -0.59375 7.6875 -0.269531 7.625 0 L 5.6875 0 C 5.625 -0.269531 5.59375 -0.59375 5.59375 -0.96875 C 5.59375 -1.351562 5.625 -1.675781 5.6875 -1.9375 L 4.46875 -1.9375 C 4.40625 -2.207031 4.375 -2.53125 4.375 -2.90625 C 4.375 -3.289062 4.40625 -3.613281 4.46875 -3.875 L 3.265625 -3.875 C 3.203125 -4.144531 3.171875 -4.46875 3.171875 -4.84375 C 3.171875 -5.226562 3.203125 -5.550781 3.265625 -5.8125 L 2.0625 -5.8125 C 1.988281 -6.082031 1.953125 -6.398438 1.953125 -6.765625 C 1.953125 -7.160156 1.988281 -7.484375 2.0625 -7.734375 L 3.265625 -7.734375 C 3.203125 -8.015625 3.171875 -8.335938 3.171875 -8.703125 C 3.171875 -9.085938 3.203125 -9.410156 3.265625 -9.671875 L 4.46875 -9.671875 C 4.40625 -9.953125 4.375 -10.273438 4.375 -10.640625 C 4.375 -11.023438 4.40625 -11.347656 4.46875 -11.609375 L 5.6875 -11.609375 C 5.625 -11.878906 5.59375 -12.203125 5.59375 -12.578125 C 5.59375 -12.960938 5.625 -13.285156 5.6875 -13.546875 L 7.625 -13.546875 C 7.6875 -13.285156 7.71875 -12.960938 7.71875 -12.578125 C 7.71875 -12.203125 7.6875 -11.878906 7.625 -11.609375 L 6.40625 -11.609375 C 6.46875 -11.347656 6.5 -11.023438 6.5 -10.640625 C 6.5 -10.273438 6.46875 -9.953125 6.40625 -9.671875 L 5.203125 -9.671875 C 5.265625 -9.410156 5.296875 -9.085938 5.296875 -8.703125 C 5.296875 -8.335938 5.265625 -8.015625 5.203125 -7.734375 L 3.984375 -7.734375 C 4.054688 -7.484375 4.09375 -7.160156 4.09375 -6.765625 C 4.09375 -6.398438 4.054688 -6.082031 3.984375 -5.8125 L 5.203125 -5.8125 C 5.265625 -5.550781 5.296875 -5.226562 5.296875 -4.84375 C 5.296875 -4.46875 5.265625 -4.144531 5.203125 -3.875 L 6.40625 -3.875 C 6.46875 -3.613281 6.5 -3.289062 6.5 -2.90625 C 6.5 -2.53125 6.46875 -2.207031 6.40625 -1.9375 Z M 7.625 -1.9375 "/></g></g></g><g fill="#ffffff" fill-opacity="1"><g transform="translate(10.155221, 19.11291)"><g><path d="M 8.796875 -14.515625 C 8.796875 -14.140625 8.765625 -13.816406 8.703125 -13.546875 L 7.984375 -13.546875 C 8.046875 -13.285156 8.078125 -12.960938 8.078125 -12.578125 C 8.078125 -12.203125 8.046875 -11.878906 7.984375 -11.609375 L 7.25 -11.609375 C 7.320312 -11.347656 7.359375 -11.023438 7.359375 -10.640625 C 7.359375 -10.273438 7.320312 -9.953125 7.25 -9.671875 L 6.53125 -9.671875 C 6.59375 -9.410156 6.625 -9.085938 6.625 -8.703125 C 6.625 -8.335938 6.59375 -8.015625 6.53125 -7.734375 L 5.8125 -7.734375 C 5.875 -7.484375 5.90625 -7.160156 5.90625 -6.765625 C 5.90625 -6.398438 5.875 -6.082031 5.8125 -5.8125 L 5.078125 -5.8125 C 5.140625 -5.550781 5.171875 -5.226562 5.171875 -4.84375 C 5.171875 -4.46875 5.140625 -4.144531 5.078125 -3.875 L 4.359375 -3.875 C 4.421875 -3.613281 4.453125 -3.289062 4.453125 -2.90625 C 4.453125 -2.53125 4.421875 -2.207031 4.359375 -1.9375 L 3.625 -1.9375 C 3.6875 -1.675781 3.71875 -1.351562 3.71875 -0.96875 C 3.71875 -0.59375 3.6875 -0.269531 3.625 0 L 2.90625 0 C 2.96875 0.257812 3 0.582031 3 0.96875 C 3 1.34375 2.96875 1.664062 2.90625 1.9375 L 0.96875 1.9375 C 0.90625 1.664062 0.875 1.34375 0.875 0.96875 C 0.875 0.582031 0.90625 0.257812 0.96875 0 L 1.6875 0 C 1.625 -0.269531 1.59375 -0.59375 1.59375 -0.96875 C 1.59375 -1.351562 1.625 -1.675781 1.6875 -1.9375 L 2.421875 -1.9375 C 2.359375 -2.207031 2.328125 -2.53125 2.328125 -2.90625 C 2.328125 -3.289062 2.359375 -3.613281 2.421875 -3.875 L 3.140625 -3.875 C 3.078125 -4.144531 3.046875 -4.46875 3.046875 -4.84375 C 3.046875 -5.226562 3.078125 -5.550781 3.140625 -5.8125 L 3.875 -5.8125 C 3.800781 -6.082031 3.765625 -6.398438 3.765625 -6.765625 C 3.765625 -7.160156 3.800781 -7.484375 3.875 -7.734375 L 4.59375 -7.734375 C 4.53125 -8.015625 4.5 -8.335938 4.5 -8.703125 C 4.5 -9.085938 4.53125 -9.410156 4.59375 -9.671875 L 5.328125 -9.671875 C 5.253906 -9.953125 5.21875 -10.273438 5.21875 -10.640625 C 5.21875 -11.023438 5.253906 -11.347656 5.328125 -11.609375 L 6.046875 -11.609375 C 5.984375 -11.878906 5.953125 -12.203125 5.953125 -12.578125 C 5.953125 -12.960938 5.984375 -13.285156 6.046875 -13.546875 L 6.765625 -13.546875 C 6.703125 -13.816406 6.671875 -14.140625 6.671875 -14.515625 C 6.671875 -14.898438 6.703125 -15.222656 6.765625 -15.484375 L 8.703125 -15.484375 C 8.765625 -15.222656 8.796875 -14.898438 8.796875 -14.515625 Z M 8.796875 -14.515625 "/></g></g></g><g fill="#ffffff" fill-opacity="1"><g transform="translate(19.831109, 19.11291)"><g><path d="M 7.71875 -6.765625 C 7.71875 -6.398438 7.6875 -6.082031 7.625 -5.8125 L 6.40625 -5.8125 C 6.46875 -5.550781 6.5 -5.226562 6.5 -4.84375 C 6.5 -4.46875 6.46875 -4.144531 6.40625 -3.875 L 5.203125 -3.875 C 5.265625 -3.613281 5.296875 -3.289062 5.296875 -2.90625 C 5.296875 -2.53125 5.265625 -2.207031 5.203125 -1.9375 L 3.984375 -1.9375 C 4.054688 -1.675781 4.09375 -1.351562 4.09375 -0.96875 C 4.09375 -0.59375 4.054688 -0.269531 3.984375 0 L 2.0625 0 C 1.988281 -0.269531 1.953125 -0.59375 1.953125 -0.96875 C 1.953125 -1.351562 1.988281 -1.675781 2.0625 -1.9375 L 3.265625 -1.9375 C 3.203125 -2.207031 3.171875 -2.53125 3.171875 -2.90625 C 3.171875 -3.289062 3.203125 -3.613281 3.265625 -3.875 L 4.46875 -3.875 C 4.40625 -4.144531 4.375 -4.46875 4.375 -4.84375 C 4.375 -5.226562 4.40625 -5.550781 4.46875 -5.8125 L 5.6875 -5.8125 C 5.625 -6.082031 5.59375 -6.398438 5.59375 -6.765625 C 5.59375 -7.160156 5.625 -7.484375 5.6875 -7.734375 L 4.46875 -7.734375 C 4.40625 -8.015625 4.375 -8.335938 4.375 -8.703125 C 4.375 -9.085938 4.40625 -9.410156 4.46875 -9.671875 L 3.265625 -9.671875 C 3.203125 -9.953125 3.171875 -10.273438 3.171875 -10.640625 C 3.171875 -11.023438 3.203125 -11.347656 3.265625 -11.609375 L 2.0625 -11.609375 C 1.988281 -11.878906 1.953125 -12.203125 1.953125 -12.578125 C 1.953125 -12.960938 1.988281 -13.285156 2.0625 -13.546875 L 3.984375 -13.546875 C 4.054688 -13.285156 4.09375 -12.960938 4.09375 -12.578125 C 4.09375 -12.203125 4.054688 -11.878906 3.984375 -11.609375 L 5.203125 -11.609375 C 5.265625 -11.347656 5.296875 -11.023438 5.296875 -10.640625 C 5.296875 -10.273438 5.265625 -9.953125 5.203125 -9.671875 L 6.40625 -9.671875 C 6.46875 -9.410156 6.5 -9.085938 6.5 -8.703125 C 6.5 -8.335938 6.46875 -8.015625 6.40625 -7.734375 L 7.625 -7.734375 C 7.6875 -7.484375 7.71875 -7.160156 7.71875 -6.765625 Z M 7.71875 -6.765625 "/></g></g></g></svg>