<svg xmlns="http://www.w3.org/2000/svg" xmlns:xlink="http://www.w3.org/1999/xlink" width="200" zoomAndPan="magnify" viewBox="0 0 150 52.499999" height="70" preserveAspectRatio="xMidYMid meet" version="1.0"><defs><g/></defs><g fill="#5ce1e6" fill-opacity="1"><g transform="translate(0.707549, 39.148385)"><g><path d="M 12.671875 -3.21875 C 12.773438 -2.789062 12.828125 -2.253906 12.828125 -1.609375 C 12.828125 -0.992188 12.773438 -0.457031 12.671875 0 L 9.453125 0 C 9.347656 -0.457031 9.296875 -0.992188 9.296875 -1.609375 C 9.296875 -2.253906 9.347656 -2.789062 9.453125 -3.21875 L 7.4375 -3.21875 C 7.332031 -3.675781 7.28125 -4.210938 7.28125 -4.828125 C 7.28125 -5.472656 7.332031 -6.007812 7.4375 -6.4375 L 5.4375 -6.4375 C 5.320312 -6.894531 5.265625 -7.429688 5.265625 -8.046875 C 5.265625 -8.691406 5.320312 -9.226562 5.4375 -9.65625 L 3.421875 -9.65625 C 3.316406 -10.113281 3.265625 -10.648438 3.265625 -11.265625 C 3.265625 -11.910156 3.316406 -12.445312 3.421875 -12.875 L 5.4375 -12.875 C 5.320312 -13.332031 5.265625 -13.867188 5.265625 -14.484375 C 5.265625 -15.128906 5.320312 -15.664062 5.4375 -16.09375 L 7.4375 -16.09375 C 7.332031 -16.550781 7.28125 -17.085938 7.28125 -17.703125 C 7.28125 -18.347656 7.332031 -18.882812 7.4375 -19.3125 L 9.453125 -19.3125 C 9.347656 -19.769531 9.296875 -20.304688 9.296875 -20.921875 C 9.296875 -21.566406 9.347656 -22.101562 9.453125 -22.53125 L 12.671875 -22.53125 C 12.773438 -22.101562 12.828125 -21.566406 12.828125 -20.921875 C 12.828125 -20.304688 12.773438 -19.769531 12.671875 -19.3125 L 10.65625 -19.3125 C 10.769531 -18.882812 10.828125 -18.347656 10.828125 -17.703125 C 10.828125 -17.085938 10.769531 -16.550781 10.65625 -16.09375 L 8.65625 -16.09375 C 8.757812 -15.664062 8.8125 -15.128906 8.8125 -14.484375 C 8.8125 -13.867188 8.757812 -13.332031 8.65625 -12.875 L 6.640625 -12.875 C 6.742188 -12.445312 6.796875 -11.910156 6.796875 -11.265625 C 6.796875 -10.648438 6.742188 -10.113281 6.640625 -9.65625 L 8.65625 -9.65625 C 8.757812 -9.226562 8.8125 -8.691406 8.8125 -8.046875 C 8.8125 -7.429688 8.757812 -6.894531 8.65625 -6.4375 L 10.65625 -6.4375 C 10.769531 -6.007812 10.828125 -5.472656 10.828125 -4.828125 C 10.828125 -4.210938 10.769531 -3.675781 10.65625 -3.21875 Z M 12.671875 -3.21875 "/></g></g></g><g fill="#5ce1e6" fill-opacity="1"><g transform="translate(16.800124, 39.148385)"><g><path d="M 14.640625 -24.140625 C 14.640625 -23.523438 14.585938 -22.988281 14.484375 -22.53125 L 13.28125 -22.53125 C 13.382812 -22.101562 13.4375 -21.566406 13.4375 -20.921875 C 13.4375 -20.304688 13.382812 -19.769531 13.28125 -19.3125 L 12.0625 -19.3125 C 12.175781 -18.882812 12.234375 -18.347656 12.234375 -17.703125 C 12.234375 -17.085938 12.175781 -16.550781 12.0625 -16.09375 L 10.859375 -16.09375 C 10.972656 -15.664062 11.03125 -15.128906 11.03125 -14.484375 C 11.03125 -13.867188 10.972656 -13.332031 10.859375 -12.875 L 9.65625 -12.875 C 9.757812 -12.445312 9.8125 -11.910156 9.8125 -11.265625 C 9.8125 -10.648438 9.757812 -10.113281 9.65625 -9.65625 L 8.453125 -9.65625 C 8.554688 -9.226562 8.609375 -8.691406 8.609375 -8.046875 C 8.609375 -7.429688 8.554688 -6.894531 8.453125 -6.4375 L 7.234375 -6.4375 C 7.347656 -6.007812 7.40625 -5.472656 7.40625 -4.828125 C 7.40625 -4.210938 7.347656 -3.675781 7.234375 -3.21875 L 6.03125 -3.21875 C 6.144531 -2.789062 6.203125 -2.253906 6.203125 -1.609375 C 6.203125 -0.992188 6.144531 -0.457031 6.03125 0 L 4.828125 0 C 4.929688 0.425781 4.984375 0.960938 4.984375 1.609375 C 4.984375 2.222656 4.929688 2.757812 4.828125 3.21875 L 1.609375 3.21875 C 1.503906 2.757812 1.453125 2.222656 1.453125 1.609375 C 1.453125 0.960938 1.503906 0.425781 1.609375 0 L 2.8125 0 C 2.707031 -0.457031 2.65625 -0.992188 2.65625 -1.609375 C 2.65625 -2.253906 2.707031 -2.789062 2.8125 -3.21875 L 4.015625 -3.21875 C 3.910156 -3.675781 3.859375 -4.210938 3.859375 -4.828125 C 3.859375 -5.472656 3.910156 -6.007812 4.015625 -6.4375 L 5.234375 -6.4375 C 5.117188 -6.894531 5.0625 -7.429688 5.0625 -8.046875 C 5.0625 -8.691406 5.117188 -9.226562 5.234375 -9.65625 L 6.4375 -9.65625 C 6.332031 -10.113281 6.28125 -10.648438 6.28125 -11.265625 C 6.28125 -11.910156 6.332031 -12.445312 6.4375 -12.875 L 7.640625 -12.875 C 7.535156 -13.332031 7.484375 -13.867188 7.484375 -14.484375 C 7.484375 -15.128906 7.535156 -15.664062 7.640625 -16.09375 L 8.84375 -16.09375 C 8.738281 -16.550781 8.6875 -17.085938 8.6875 -17.703125 C 8.6875 -18.347656 8.738281 -18.882812 8.84375 -19.3125 L 10.0625 -19.3125 C 9.945312 -19.769531 9.890625 -20.304688 9.890625 -20.921875 C 9.890625 -21.566406 9.945312 -22.101562 10.0625 -22.53125 L 11.265625 -22.53125 C 11.160156 -22.988281 11.109375 -23.523438 11.109375 -24.140625 C 11.109375 -24.785156 11.160156 -25.320312 11.265625 -25.75 L 14.484375 -25.75 C 14.585938 -25.320312 14.640625 -24.785156 14.640625 -24.140625 Z M 14.640625 -24.140625 "/></g></g></g><g fill="#5ce1e6" fill-opacity="1"><g transform="translate(32.892698, 39.148385)"><g><path d="M 12.828125 -11.265625 C 12.828125 -10.648438 12.773438 -10.113281 12.671875 -9.65625 L 10.65625 -9.65625 C 10.769531 -9.226562 10.828125 -8.691406 10.828125 -8.046875 C 10.828125 -7.429688 10.769531 -6.894531 10.65625 -6.4375 L 8.65625 -6.4375 C 8.757812 -6.007812 8.8125 -5.472656 8.8125 -4.828125 C 8.8125 -4.210938 8.757812 -3.675781 8.65625 -3.21875 L 6.640625 -3.21875 C 6.742188 -2.789062 6.796875 -2.253906 6.796875 -1.609375 C 6.796875 -0.992188 6.742188 -0.457031 6.640625 0 L 3.421875 0 C 3.316406 -0.457031 3.265625 -0.992188 3.265625 -1.609375 C 3.265625 -2.253906 3.316406 -2.789062 3.421875 -3.21875 L 5.4375 -3.21875 C 5.320312 -3.675781 5.265625 -4.210938 5.265625 -4.828125 C 5.265625 -5.472656 5.320312 -6.007812 5.4375 -6.4375 L 7.4375 -6.4375 C 7.332031 -6.894531 7.28125 -7.429688 7.28125 -8.046875 C 7.28125 -8.691406 7.332031 -9.226562 7.4375 -9.65625 L 9.453125 -9.65625 C 9.347656 -10.113281 9.296875 -10.648438 9.296875 -11.265625 C 9.296875 -11.910156 9.347656 -12.445312 9.453125 -12.875 L 7.4375 -12.875 C 7.332031 -13.332031 7.28125 -13.867188 7.28125 -14.484375 C 7.28125 -15.128906 7.332031 -15.664062 7.4375 -16.09375 L 5.4375 -16.09375 C 5.320312 -16.550781 5.265625 -17.085938 5.265625 -17.703125 C 5.265625 -18.347656 5.320312 -18.882812 5.4375 -19.3125 L 3.421875 -19.3125 C 3.316406 -19.769531 3.265625 -20.304688 3.265625 -20.921875 C 3.265625 -21.566406 3.316406 -22.101562 3.421875 -22.53125 L 6.640625 -22.53125 C 6.742188 -22.101562 6.796875 -21.566406 6.796875 -20.921875 C 6.796875 -20.304688 6.742188 -19.769531 6.640625 -19.3125 L 8.65625 -19.3125 C 8.757812 -18.882812 8.8125 -18.347656 8.8125 -17.703125 C 8.8125 -17.085938 8.757812 -16.550781 8.65625 -16.09375 L 10.65625 -16.09375 C 10.769531 -15.664062 10.828125 -15.128906 10.828125 -14.484375 C 10.828125 -13.867188 10.769531 -13.332031 10.65625 -12.875 L 12.671875 -12.875 C 12.773438 -12.445312 12.828125 -11.910156 12.828125 -11.265625 Z M 12.828125 -11.265625 "/></g></g></g><g fill="#8c52ff" fill-opacity="1"><g transform="translate(0.707549, 36.733546)"><g><path d="M 12.671875 -3.21875 C 12.773438 -2.789062 12.828125 -2.253906 12.828125 -1.609375 C 12.828125 -0.992188 12.773438 -0.457031 12.671875 0 L 9.453125 0 C 9.347656 -0.457031 9.296875 -0.992188 9.296875 -1.609375 C 9.296875 -2.253906 9.347656 -2.789062 9.453125 -3.21875 L 7.4375 -3.21875 C 7.332031 -3.675781 7.28125 -4.210938 7.28125 -4.828125 C 7.28125 -5.472656 7.332031 -6.007812 7.4375 -6.4375 L 5.4375 -6.4375 C 5.320312 -6.894531 5.265625 -7.429688 5.265625 -8.046875 C 5.265625 -8.691406 5.320312 -9.226562 5.4375 -9.65625 L 3.421875 -9.65625 C 3.316406 -10.113281 3.265625 -10.648438 3.265625 -11.265625 C 3.265625 -11.910156 3.316406 -12.445312 3.421875 -12.875 L 5.4375 -12.875 C 5.320312 -13.332031 5.265625 -13.867188 5.265625 -14.484375 C 5.265625 -15.128906 5.320312 -15.664062 5.4375 -16.09375 L 7.4375 -16.09375 C 7.332031 -16.550781 7.28125 -17.085938 7.28125 -17.703125 C 7.28125 -18.347656 7.332031 -18.882812 7.4375 -19.3125 L 9.453125 -19.3125 C 9.347656 -19.769531 9.296875 -20.304688 9.296875 -20.921875 C 9.296875 -21.566406 9.347656 -22.101562 9.453125 -22.53125 L 12.671875 -22.53125 C 12.773438 -22.101562 12.828125 -21.566406 12.828125 -20.921875 C 12.828125 -20.304688 12.773438 -19.769531 12.671875 -19.3125 L 10.65625 -19.3125 C 10.769531 -18.882812 10.828125 -18.347656 10.828125 -17.703125 C 10.828125 -17.085938 10.769531 -16.550781 10.65625 -16.09375 L 8.65625 -16.09375 C 8.757812 -15.664062 8.8125 -15.128906 8.8125 -14.484375 C 8.8125 -13.867188 8.757812 -13.332031 8.65625 -12.875 L 6.640625 -12.875 C 6.742188 -12.445312 6.796875 -11.910156 6.796875 -11.265625 C 6.796875 -10.648438 6.742188 -10.113281 6.640625 -9.65625 L 8.65625 -9.65625 C 8.757812 -9.226562 8.8125 -8.691406 8.8125 -8.046875 C 8.8125 -7.429688 8.757812 -6.894531 8.65625 -6.4375 L 10.65625 -6.4375 C 10.769531 -6.007812 10.828125 -5.472656 10.828125 -4.828125 C 10.828125 -4.210938 10.769531 -3.675781 10.65625 -3.21875 Z M 12.671875 -3.21875 "/></g></g></g><g fill="#8c52ff" fill-opacity="1"><g transform="translate(16.800124, 36.733546)"><g><path d="M 14.640625 -24.140625 C 14.640625 -23.523438 14.585938 -22.988281 14.484375 -22.53125 L 13.28125 -22.53125 C 13.382812 -22.101562 13.4375 -21.566406 13.4375 -20.921875 C 13.4375 -20.304688 13.382812 -19.769531 13.28125 -19.3125 L 12.0625 -19.3125 C 12.175781 -18.882812 12.234375 -18.347656 12.234375 -17.703125 C 12.234375 -17.085938 12.175781 -16.550781 12.0625 -16.09375 L 10.859375 -16.09375 C 10.972656 -15.664062 11.03125 -15.128906 11.03125 -14.484375 C 11.03125 -13.867188 10.972656 -13.332031 10.859375 -12.875 L 9.65625 -12.875 C 9.757812 -12.445312 9.8125 -11.910156 9.8125 -11.265625 C 9.8125 -10.648438 9.757812 -10.113281 9.65625 -9.65625 L 8.453125 -9.65625 C 8.554688 -9.226562 8.609375 -8.691406 8.609375 -8.046875 C 8.609375 -7.429688 8.554688 -6.894531 8.453125 -6.4375 L 7.234375 -6.4375 C 7.347656 -6.007812 7.40625 -5.472656 7.40625 -4.828125 C 7.40625 -4.210938 7.347656 -3.675781 7.234375 -3.21875 L 6.03125 -3.21875 C 6.144531 -2.789062 6.203125 -2.253906 6.203125 -1.609375 C 6.203125 -0.992188 6.144531 -0.457031 6.03125 0 L 4.828125 0 C 4.929688 0.425781 4.984375 0.960938 4.984375 1.609375 C 4.984375 2.222656 4.929688 2.757812 4.828125 3.21875 L 1.609375 3.21875 C 1.503906 2.757812 1.453125 2.222656 1.453125 1.609375 C 1.453125 0.960938 1.503906 0.425781 1.609375 0 L 2.8125 0 C 2.707031 -0.457031 2.65625 -0.992188 2.65625 -1.609375 C 2.65625 -2.253906 2.707031 -2.789062 2.8125 -3.21875 L 4.015625 -3.21875 C 3.910156 -3.675781 3.859375 -4.210938 3.859375 -4.828125 C 3.859375 -5.472656 3.910156 -6.007812 4.015625 -6.4375 L 5.234375 -6.4375 C 5.117188 -6.894531 5.0625 -7.429688 5.0625 -8.046875 C 5.0625 -8.691406 5.117188 -9.226562 5.234375 -9.65625 L 6.4375 -9.65625 C 6.332031 -10.113281 6.28125 -10.648438 6.28125 -11.265625 C 6.28125 -11.910156 6.332031 -12.445312 6.4375 -12.875 L 7.640625 -12.875 C 7.535156 -13.332031 7.484375 -13.867188 7.484375 -14.484375 C 7.484375 -15.128906 7.535156 -15.664062 7.640625 -16.09375 L 8.84375 -16.09375 C 8.738281 -16.550781 8.6875 -17.085938 8.6875 -17.703125 C 8.6875 -18.347656 8.738281 -18.882812 8.84375 -19.3125 L 10.0625 -19.3125 C 9.945312 -19.769531 9.890625 -20.304688 9.890625 -20.921875 C 9.890625 -21.566406 9.945312 -22.101562 10.0625 -22.53125 L 11.265625 -22.53125 C 11.160156 -22.988281 11.109375 -23.523438 11.109375 -24.140625 C 11.109375 -24.785156 11.160156 -25.320312 11.265625 -25.75 L 14.484375 -25.75 C 14.585938 -25.320312 14.640625 -24.785156 14.640625 -24.140625 Z M 14.640625 -24.140625 "/></g></g></g><g fill="#8c52ff" fill-opacity="1"><g transform="translate(32.892698, 36.733546)"><g><path d="M 12.828125 -11.265625 C 12.828125 -10.648438 12.773438 -10.113281 12.671875 -9.65625 L 10.65625 -9.65625 C 10.769531 -9.226562 10.828125 -8.691406 10.828125 -8.046875 C 10.828125 -7.429688 10.769531 -6.894531 10.65625 -6.4375 L 8.65625 -6.4375 C 8.757812 -6.007812 8.8125 -5.472656 8.8125 -4.828125 C 8.8125 -4.210938 8.757812 -3.675781 8.65625 -3.21875 L 6.640625 -3.21875 C 6.742188 -2.789062 6.796875 -2.253906 6.796875 -1.609375 C 6.796875 -0.992188 6.742188 -0.457031 6.640625 0 L 3.421875 0 C 3.316406 -0.457031 3.265625 -0.992188 3.265625 -1.609375 C 3.265625 -2.253906 3.316406 -2.789062 3.421875 -3.21875 L 5.4375 -3.21875 C 5.320312 -3.675781 5.265625 -4.210938 5.265625 -4.828125 C 5.265625 -5.472656 5.320312 -6.007812 5.4375 -6.4375 L 7.4375 -6.4375 C 7.332031 -6.894531 7.28125 -7.429688 7.28125 -8.046875 C 7.28125 -8.691406 7.332031 -9.226562 7.4375 -9.65625 L 9.453125 -9.65625 C 9.347656 -10.113281 9.296875 -10.648438 9.296875 -11.265625 C 9.296875 -11.910156 9.347656 -12.445312 9.453125 -12.875 L 7.4375 -12.875 C 7.332031 -13.332031 7.28125 -13.867188 7.28125 -14.484375 C 7.28125 -15.128906 7.332031 -15.664062 7.4375 -16.09375 L 5.4375 -16.09375 C 5.320312 -16.550781 5.265625 -17.085938 5.265625 -17.703125 C 5.265625 -18.347656 5.320312 -18.882812 5.4375 -19.3125 L 3.421875 -19.3125 C 3.316406 -19.769531 3.265625 -20.304688 3.265625 -20.921875 C 3.265625 -21.566406 3.316406 -22.101562 3.421875 -22.53125 L 6.640625 -22.53125 C 6.742188 -22.101562 6.796875 -21.566406 6.796875 -20.921875 C 6.796875 -20.304688 6.742188 -19.769531 6.640625 -19.3125 L 8.65625 -19.3125 C 8.757812 -18.882812 8.8125 -18.347656 8.8125 -17.703125 C 8.8125 -17.085938 8.757812 -16.550781 8.65625 -16.09375 L 10.65625 -16.09375 C 10.769531 -15.664062 10.828125 -15.128906 10.828125 -14.484375 C 10.828125 -13.867188 10.769531 -13.332031 10.65625 -12.875 L 12.671875 -12.875 C 12.773438 -12.445312 12.828125 -11.910156 12.828125 -11.265625 Z M 12.828125 -11.265625 "/></g></g></g><g fill="#ffffff" fill-opacity="1"><g transform="translate(0.707549, 34.318707)"><g><path d="M 12.671875 -3.21875 C 12.773438 -2.789062 12.828125 -2.253906 12.828125 -1.609375 C 12.828125 -0.992188 12.773438 -0.457031 12.671875 0 L 9.453125 0 C 9.347656 -0.457031 9.296875 -0.992188 9.296875 -1.609375 C 9.296875 -2.253906 9.347656 -2.789062 9.453125 -3.21875 L 7.4375 -3.21875 C 7.332031 -3.675781 7.28125 -4.210938 7.28125 -4.828125 C 7.28125 -5.472656 7.332031 -6.007812 7.4375 -6.4375 L 5.4375 -6.4375 C 5.320312 -6.894531 5.265625 -7.429688 5.265625 -8.046875 C 5.265625 -8.691406 5.320312 -9.226562 5.4375 -9.65625 L 3.421875 -9.65625 C 3.316406 -10.113281 3.265625 -10.648438 3.265625 -11.265625 C 3.265625 -11.910156 3.316406 -12.445312 3.421875 -12.875 L 5.4375 -12.875 C 5.320312 -13.332031 5.265625 -13.867188 5.265625 -14.484375 C 5.265625 -15.128906 5.320312 -15.664062 5.4375 -16.09375 L 7.4375 -16.09375 C 7.332031 -16.550781 7.28125 -17.085938 7.28125 -17.703125 C 7.28125 -18.347656 7.332031 -18.882812 7.4375 -19.3125 L 9.453125 -19.3125 C 9.347656 -19.769531 9.296875 -20.304688 9.296875 -20.921875 C 9.296875 -21.566406 9.347656 -22.101562 9.453125 -22.53125 L 12.671875 -22.53125 C 12.773438 -22.101562 12.828125 -21.566406 12.828125 -20.921875 C 12.828125 -20.304688 12.773438 -19.769531 12.671875 -19.3125 L 10.65625 -19.3125 C 10.769531 -18.882812 10.828125 -18.347656 10.828125 -17.703125 C 10.828125 -17.085938 10.769531 -16.550781 10.65625 -16.09375 L 8.65625 -16.09375 C 8.757812 -15.664062 8.8125 -15.128906 8.8125 -14.484375 C 8.8125 -13.867188 8.757812 -13.332031 8.65625 -12.875 L 6.640625 -12.875 C 6.742188 -12.445312 6.796875 -11.910156 6.796875 -11.265625 C 6.796875 -10.648438 6.742188 -10.113281 6.640625 -9.65625 L 8.65625 -9.65625 C 8.757812 -9.226562 8.8125 -8.691406 8.8125 -8.046875 C 8.8125 -7.429688 8.757812 -6.894531 8.65625 -6.4375 L 10.65625 -6.4375 C 10.769531 -6.007812 10.828125 -5.472656 10.828125 -4.828125 C 10.828125 -4.210938 10.769531 -3.675781 10.65625 -3.21875 Z M 12.671875 -3.21875 "/></g></g></g><g fill="#ffffff" fill-opacity="1"><g transform="translate(16.800124, 34.318707)"><g><path d="M 14.640625 -24.140625 C 14.640625 -23.523438 14.585938 -22.988281 14.484375 -22.53125 L 13.28125 -22.53125 C 13.382812 -22.101562 13.4375 -21.566406 13.4375 -20.921875 C 13.4375 -20.304688 13.382812 -19.769531 13.28125 -19.3125 L 12.0625 -19.3125 C 12.175781 -18.882812 12.234375 -18.347656 12.234375 -17.703125 C 12.234375 -17.085938 12.175781 -16.550781 12.0625 -16.09375 L 10.859375 -16.09375 C 10.972656 -15.664062 11.03125 -15.128906 11.03125 -14.484375 C 11.03125 -13.867188 10.972656 -13.332031 10.859375 -12.875 L 9.65625 -12.875 C 9.757812 -12.445312 9.8125 -11.910156 9.8125 -11.265625 C 9.8125 -10.648438 9.757812 -10.113281 9.65625 -9.65625 L 8.453125 -9.65625 C 8.554688 -9.226562 8.609375 -8.691406 8.609375 -8.046875 C 8.609375 -7.429688 8.554688 -6.894531 8.453125 -6.4375 L 7.234375 -6.4375 C 7.347656 -6.007812 7.40625 -5.472656 7.40625 -4.828125 C 7.40625 -4.210938 7.347656 -3.675781 7.234375 -3.21875 L 6.03125 -3.21875 C 6.144531 -2.789062 6.203125 -2.253906 6.203125 -1.609375 C 6.203125 -0.992188 6.144531 -0.457031 6.03125 0 L 4.828125 0 C 4.929688 0.425781 4.984375 0.960938 4.984375 1.609375 C 4.984375 2.222656 4.929688 2.757812 4.828125 3.21875 L 1.609375 3.21875 C 1.503906 2.757812 1.453125 2.222656 1.453125 1.609375 C 1.453125 0.960938 1.503906 0.425781 1.609375 0 L 2.8125 0 C 2.707031 -0.457031 2.65625 -0.992188 2.65625 -1.609375 C 2.65625 -2.253906 2.707031 -2.789062 2.8125 -3.21875 L 4.015625 -3.21875 C 3.910156 -3.675781 3.859375 -4.210938 3.859375 -4.828125 C 3.859375 -5.472656 3.910156 -6.007812 4.015625 -6.4375 L 5.234375 -6.4375 C 5.117188 -6.894531 5.0625 -7.429688 5.0625 -8.046875 C 5.0625 -8.691406 5.117188 -9.226562 5.234375 -9.65625 L 6.4375 -9.65625 C 6.332031 -10.113281 6.28125 -10.648438 6.28125 -11.265625 C 6.28125 -11.910156 6.332031 -12.445312 6.4375 -12.875 L 7.640625 -12.875 C 7.535156 -13.332031 7.484375 -13.867188 7.484375 -14.484375 C 7.484375 -15.128906 7.535156 -15.664062 7.640625 -16.09375 L 8.84375 -16.09375 C 8.738281 -16.550781 8.6875 -17.085938 8.6875 -17.703125 C 8.6875 -18.347656 8.738281 -18.882812 8.84375 -19.3125 L 10.0625 -19.3125 C 9.945312 -19.769531 9.890625 -20.304688 9.890625 -20.921875 C 9.890625 -21.566406 9.945312 -22.101562 10.0625 -22.53125 L 11.265625 -22.53125 C 11.160156 -22.988281 11.109375 -23.523438 11.109375 -24.140625 C 11.109375 -24.785156 11.160156 -25.320312 11.265625 -25.75 L 14.484375 -25.75 C 14.585938 -25.320312 14.640625 -24.785156 14.640625 -24.140625 Z M 14.640625 -24.140625 "/></g></g></g><g fill="#ffffff" fill-opacity="1"><g transform="translate(32.892698, 34.318707)"><g><path d="M 12.828125 -11.265625 C 12.828125 -10.648438 12.773438 -10.113281 12.671875 -9.65625 L 10.65625 -9.65625 C 10.769531 -9.226562 10.828125 -8.691406 10.828125 -8.046875 C 10.828125 -7.429688 10.769531 -6.894531 10.65625 -6.4375 L 8.65625 -6.4375 C 8.757812 -6.007812 8.8125 -5.472656 8.8125 -4.828125 C 8.8125 -4.210938 8.757812 -3.675781 8.65625 -3.21875 L 6.640625 -3.21875 C 6.742188 -2.789062 6.796875 -2.253906 6.796875 -1.609375 C 6.796875 -0.992188 6.742188 -0.457031 6.640625 0 L 3.421875 0 C 3.316406 -0.457031 3.265625 -0.992188 3.265625 -1.609375 C 3.265625 -2.253906 3.316406 -2.789062 3.421875 -3.21875 L 5.4375 -3.21875 C 5.320312 -3.675781 5.265625 -4.210938 5.265625 -4.828125 C 5.265625 -5.472656 5.320312 -6.007812 5.4375 -6.4375 L 7.4375 -6.4375 C 7.332031 -6.894531 7.28125 -7.429688 7.28125 -8.046875 C 7.28125 -8.691406 7.332031 -9.226562 7.4375 -9.65625 L 9.453125 -9.65625 C 9.347656 -10.113281 9.296875 -10.648438 9.296875 -11.265625 C 9.296875 -11.910156 9.347656 -12.445312 9.453125 -12.875 L 7.4375 -12.875 C 7.332031 -13.332031 7.28125 -13.867188 7.28125 -14.484375 C 7.28125 -15.128906 7.332031 -15.664062 7.4375 -16.09375 L 5.4375 -16.09375 C 5.320312 -16.550781 5.265625 -17.085938 5.265625 -17.703125 C 5.265625 -18.347656 5.320312 -18.882812 5.4375 -19.3125 L 3.421875 -19.3125 C 3.316406 -19.769531 3.265625 -20.304688 3.265625 -20.921875 C 3.265625 -21.566406 3.316406 -22.101562 3.421875 -22.53125 L 6.640625 -22.53125 C 6.742188 -22.101562 6.796875 -21.566406 6.796875 -20.921875 C 6.796875 -20.304688 6.742188 -19.769531 6.640625 -19.3125 L 8.65625 -19.3125 C 8.757812 -18.882812 8.8125 -18.347656 8.8125 -17.703125 C 8.8125 -17.085938 8.757812 -16.550781 8.65625 -16.09375 L 10.65625 -16.09375 C 10.769531 -15.664062 10.828125 -15.128906 10.828125 -14.484375 C 10.828125 -13.867188 10.769531 -13.332031 10.65625 -12.875 L 12.671875 -12.875 C 12.773438 -12.445312 12.828125 -11.910156 12.828125 -11.265625 Z M 12.828125 -11.265625 "/></g></g></g><g fill="#5ce1e6" fill-opacity="1"><g transform="translate(49.004318, 34.016808)"><g><path d="M 1.09375 -14.9375 L 5.421875 -14.9375 C 7.492188 -14.9375 9.265625 -14.226562 10.734375 -12.8125 C 12.210938 -11.394531 12.953125 -9.617188 12.953125 -7.484375 C 12.953125 -5.328125 12.21875 -3.539062 10.75 -2.125 C 9.28125 -0.707031 7.503906 0 5.421875 0 L 1.09375 0 Z M 4.484375 -3.046875 L 5.015625 -3.046875 C 6.253906 -3.046875 7.269531 -3.460938 8.0625 -4.296875 C 8.851562 -5.140625 9.253906 -6.195312 9.265625 -7.46875 C 9.265625 -8.726562 8.867188 -9.78125 8.078125 -10.625 C 7.296875 -11.46875 6.273438 -11.890625 5.015625 -11.890625 L 4.484375 -11.890625 Z M 4.484375 -3.046875 "/></g></g></g><g fill="#5ce1e6" fill-opacity="1"><g transform="translate(62.370545, 34.016808)"><g><path d="M 10.484375 -4.203125 L 3.75 -4.203125 C 3.75 -3.546875 3.957031 -3.0625 4.375 -2.75 C 4.800781 -2.4375 5.265625 -2.28125 5.765625 -2.28125 C 6.273438 -2.28125 6.679688 -2.347656 6.984375 -2.484375 C 7.285156 -2.628906 7.628906 -2.90625 8.015625 -3.3125 L 10.34375 -2.15625 C 9.375 -0.539062 7.765625 0.265625 5.515625 0.265625 C 4.117188 0.265625 2.921875 -0.210938 1.921875 -1.171875 C 0.921875 -2.128906 0.421875 -3.285156 0.421875 -4.640625 C 0.421875 -5.992188 0.921875 -7.148438 1.921875 -8.109375 C 2.921875 -9.078125 4.117188 -9.5625 5.515625 -9.5625 C 6.992188 -9.5625 8.191406 -9.132812 9.109375 -8.28125 C 10.035156 -7.4375 10.5 -6.222656 10.5 -4.640625 C 10.5 -4.421875 10.492188 -4.273438 10.484375 -4.203125 Z M 3.84375 -5.96875 L 7.375 -5.96875 C 7.300781 -6.457031 7.109375 -6.832031 6.796875 -7.09375 C 6.492188 -7.351562 6.097656 -7.484375 5.609375 -7.484375 C 5.078125 -7.484375 4.65625 -7.34375 4.34375 -7.0625 C 4.03125 -6.78125 3.863281 -6.414062 3.84375 -5.96875 Z M 3.84375 -5.96875 "/></g></g></g><g fill="#5ce1e6" fill-opacity="1"><g transform="translate(73.291733, 34.016808)"><g><path d="M 1.09375 -14.9375 L 5.71875 -14.9375 C 7.125 -14.9375 8.242188 -14.632812 9.078125 -14.03125 C 9.910156 -13.4375 10.328125 -12.472656 10.328125 -11.140625 C 10.328125 -9.640625 9.703125 -8.570312 8.453125 -7.9375 C 10.578125 -7.5625 11.640625 -6.304688 11.640625 -4.171875 C 11.640625 -2.910156 11.203125 -1.898438 10.328125 -1.140625 C 9.460938 -0.378906 8.269531 0 6.75 0 L 1.09375 0 Z M 4.484375 -9.09375 L 4.765625 -9.09375 C 5.523438 -9.09375 6.09375 -9.222656 6.46875 -9.484375 C 6.84375 -9.753906 7.03125 -10.191406 7.03125 -10.796875 C 7.03125 -11.804688 6.273438 -12.3125 4.765625 -12.3125 L 4.484375 -12.3125 Z M 4.484375 -2.625 L 5.5625 -2.625 C 7.226562 -2.625 8.0625 -3.179688 8.0625 -4.296875 C 8.0625 -4.953125 7.851562 -5.425781 7.4375 -5.71875 C 7.019531 -6.007812 6.394531 -6.15625 5.5625 -6.15625 L 4.484375 -6.15625 Z M 4.484375 -2.625 "/></g></g></g><g fill="#5ce1e6" fill-opacity="1"><g transform="translate(85.353927, 34.016808)"><g><path d="M 4.109375 -9.296875 L 4.109375 -4.875 C 4.109375 -3.957031 4.242188 -3.304688 4.515625 -2.921875 C 4.796875 -2.535156 5.269531 -2.34375 5.9375 -2.34375 C 6.601562 -2.34375 7.070312 -2.535156 7.34375 -2.921875 C 7.625 -3.304688 7.765625 -3.957031 7.765625 -4.875 L 7.765625 -9.296875 L 10.96875 -9.296875 L 10.96875 -4.09375 C 10.96875 -2.550781 10.566406 -1.4375 9.765625 -0.75 C 8.960938 -0.0703125 7.6875 0.265625 5.9375 0.265625 C 4.1875 0.265625 2.910156 -0.0703125 2.109375 -0.75 C 1.304688 -1.4375 0.90625 -2.550781 0.90625 -4.09375 L 0.90625 -9.296875 Z M 4.109375 -9.296875 "/></g></g></g><g fill="#5ce1e6" fill-opacity="1"><g transform="translate(97.235015, 34.016808)"><g><path d="M 0.671875 2.28125 L 3.296875 1 C 3.773438 1.789062 4.613281 2.1875 5.8125 2.1875 C 6.363281 2.1875 6.878906 2.007812 7.359375 1.65625 C 7.835938 1.300781 8.078125 0.753906 8.078125 0.015625 L 8.078125 -0.671875 C 7.503906 -0.046875 6.488281 0.265625 5.03125 0.265625 C 3.695312 0.265625 2.59375 -0.207031 1.71875 -1.15625 C 0.851562 -2.101562 0.421875 -3.265625 0.421875 -4.640625 C 0.421875 -6.015625 0.851562 -7.175781 1.71875 -8.125 C 2.59375 -9.082031 3.695312 -9.5625 5.03125 -9.5625 C 6.226562 -9.5625 7.222656 -9.191406 8.015625 -8.453125 L 8.078125 -8.453125 L 8.078125 -9.296875 L 11.28125 -9.296875 L 11.28125 0.25 C 11.28125 1.757812 10.78125 2.925781 9.78125 3.75 C 8.78125 4.570312 7.457031 4.984375 5.8125 4.984375 C 3.15625 4.984375 1.441406 4.082031 0.671875 2.28125 Z M 4.453125 -6.203125 C 4.035156 -5.796875 3.828125 -5.269531 3.828125 -4.625 C 3.828125 -3.988281 4.023438 -3.46875 4.421875 -3.0625 C 4.816406 -2.664062 5.34375 -2.46875 6 -2.46875 C 6.625 -2.46875 7.140625 -2.671875 7.546875 -3.078125 C 7.953125 -3.484375 8.15625 -4.003906 8.15625 -4.640625 C 8.15625 -5.273438 7.945312 -5.796875 7.53125 -6.203125 C 7.113281 -6.617188 6.601562 -6.828125 6 -6.828125 C 5.382812 -6.828125 4.867188 -6.617188 4.453125 -6.203125 Z M 4.453125 -6.203125 "/></g></g></g><g fill="#5ce1e6" fill-opacity="1"><g transform="translate(109.605116, 34.016808)"><g><path d="M 3.15625 -3.875 C 3.726562 -3.875 4.21875 -3.671875 4.625 -3.265625 C 5.03125 -2.859375 5.234375 -2.367188 5.234375 -1.796875 C 5.234375 -1.222656 5.03125 -0.734375 4.625 -0.328125 C 4.21875 0.0664062 3.726562 0.265625 3.15625 0.265625 C 2.582031 0.265625 2.09375 0.0664062 1.6875 -0.328125 C 1.289062 -0.734375 1.09375 -1.222656 1.09375 -1.796875 C 1.09375 -2.367188 1.289062 -2.859375 1.6875 -3.265625 C 2.09375 -3.671875 2.582031 -3.875 3.15625 -3.875 Z M 3.15625 -3.875 "/></g></g></g><g fill="#5ce1e6" fill-opacity="1"><g transform="translate(115.926007, 34.016808)"><g><path d="M 1.96875 -1.109375 C 0.9375 -2.023438 0.421875 -3.203125 0.421875 -4.640625 C 0.421875 -6.078125 0.957031 -7.253906 2.03125 -8.171875 C 3.101562 -9.097656 4.429688 -9.5625 6.015625 -9.5625 C 7.566406 -9.5625 8.875 -9.09375 9.9375 -8.15625 C 11.007812 -7.226562 11.546875 -6.050781 11.546875 -4.625 C 11.546875 -3.207031 11.023438 -2.035156 9.984375 -1.109375 C 8.941406 -0.191406 7.617188 0.265625 6.015625 0.265625 C 4.347656 0.265625 3 -0.191406 1.96875 -1.109375 Z M 4.453125 -6.203125 C 4.035156 -5.796875 3.828125 -5.269531 3.828125 -4.625 C 3.828125 -3.988281 4.023438 -3.46875 4.421875 -3.0625 C 4.816406 -2.664062 5.34375 -2.46875 6 -2.46875 C 6.625 -2.46875 7.140625 -2.671875 7.546875 -3.078125 C 7.953125 -3.484375 8.15625 -4.003906 8.15625 -4.640625 C 8.15625 -5.273438 7.945312 -5.796875 7.53125 -6.203125 C 7.113281 -6.617188 6.601562 -6.828125 6 -6.828125 C 5.382812 -6.828125 4.867188 -6.617188 4.453125 -6.203125 Z M 4.453125 -6.203125 "/></g></g></g><g fill="#5ce1e6" fill-opacity="1"><g transform="translate(127.897649, 34.016808)"><g><path d="M 1.09375 0 L 1.09375 -9.296875 L 4.296875 -9.296875 L 4.296875 -7.953125 L 4.328125 -7.953125 C 4.347656 -7.992188 4.382812 -8.050781 4.4375 -8.125 C 4.5 -8.195312 4.617188 -8.320312 4.796875 -8.5 C 4.984375 -8.6875 5.175781 -8.851562 5.375 -9 C 5.582031 -9.144531 5.847656 -9.273438 6.171875 -9.390625 C 6.503906 -9.503906 6.835938 -9.5625 7.171875 -9.5625 C 7.523438 -9.5625 7.867188 -9.507812 8.203125 -9.40625 C 8.535156 -9.3125 8.785156 -9.21875 8.953125 -9.125 L 9.203125 -8.984375 L 7.859375 -6.265625 C 7.460938 -6.597656 6.90625 -6.765625 6.1875 -6.765625 C 5.800781 -6.765625 5.46875 -6.679688 5.1875 -6.515625 C 4.914062 -6.347656 4.722656 -6.144531 4.609375 -5.90625 C 4.492188 -5.664062 4.410156 -5.457031 4.359375 -5.28125 C 4.316406 -5.113281 4.296875 -4.984375 4.296875 -4.890625 L 4.296875 0 Z M 1.09375 0 "/></g></g></g><g fill="#5ce1e6" fill-opacity="1"><g transform="translate(136.917136, 34.016808)"><g><path d="M 0.671875 2.28125 L 3.296875 1 C 3.773438 1.789062 4.613281 2.1875 5.8125 2.1875 C 6.363281 2.1875 6.878906 2.007812 7.359375 1.65625 C 7.835938 1.300781 8.078125 0.753906 8.078125 0.015625 L 8.078125 -0.671875 C 7.503906 -0.046875 6.488281 0.265625 5.03125 0.265625 C 3.695312 0.265625 2.59375 -0.207031 1.71875 -1.15625 C 0.851562 -2.101562 0.421875 -3.265625 0.421875 -4.640625 C 0.421875 -6.015625 0.851562 -7.175781 1.71875 -8.125 C 2.59375 -9.082031 3.695312 -9.5625 5.03125 -9.5625 C 6.226562 -9.5625 7.222656 -9.191406 8.015625 -8.453125 L 8.078125 -8.453125 L 8.078125 -9.296875 L 11.28125 -9.296875 L 11.28125 0.25 C 11.28125 1.757812 10.78125 2.925781 9.78125 3.75 C 8.78125 4.570312 7.457031 4.984375 5.8125 4.984375 C 3.15625 4.984375 1.441406 4.082031 0.671875 2.28125 Z M 4.453125 -6.203125 C 4.035156 -5.796875 3.828125 -5.269531 3.828125 -4.625 C 3.828125 -3.988281 4.023438 -3.46875 4.421875 -3.0625 C 4.816406 -2.664062 5.34375 -2.46875 6 -2.46875 C 6.625 -2.46875 7.140625 -2.671875 7.546875 -3.078125 C 7.953125 -3.484375 8.15625 -4.003906 8.15625 -4.640625 C 8.15625 -5.273438 7.945312 -5.796875 7.53125 -6.203125 C 7.113281 -6.617188 6.601562 -6.828125 6 -6.828125 C 5.382812 -6.828125 4.867188 -6.617188 4.453125 -6.203125 Z M 4.453125 -6.203125 "/></g></g></g><g fill="#8c52ff" fill-opacity="1"><g transform="translate(49.004318, 32.356651)"><g><path d="M 1.09375 -14.9375 L 5.421875 -14.9375 C 7.492188 -14.9375 9.265625 -14.226562 10.734375 -12.8125 C 12.210938 -11.394531 12.953125 -9.617188 12.953125 -7.484375 C 12.953125 -5.328125 12.21875 -3.539062 10.75 -2.125 C 9.28125 -0.707031 7.503906 0 5.421875 0 L 1.09375 0 Z M 4.484375 -3.046875 L 5.015625 -3.046875 C 6.253906 -3.046875 7.269531 -3.460938 8.0625 -4.296875 C 8.851562 -5.140625 9.253906 -6.195312 9.265625 -7.46875 C 9.265625 -8.726562 8.867188 -9.78125 8.078125 -10.625 C 7.296875 -11.46875 6.273438 -11.890625 5.015625 -11.890625 L 4.484375 -11.890625 Z M 4.484375 -3.046875 "/></g></g></g><g fill="#8c52ff" fill-opacity="1"><g transform="translate(62.370545, 32.356651)"><g><path d="M 10.484375 -4.203125 L 3.75 -4.203125 C 3.75 -3.546875 3.957031 -3.0625 4.375 -2.75 C 4.800781 -2.4375 5.265625 -2.28125 5.765625 -2.28125 C 6.273438 -2.28125 6.679688 -2.347656 6.984375 -2.484375 C 7.285156 -2.628906 7.628906 -2.90625 8.015625 -3.3125 L 10.34375 -2.15625 C 9.375 -0.539062 7.765625 0.265625 5.515625 0.265625 C 4.117188 0.265625 2.921875 -0.210938 1.921875 -1.171875 C 0.921875 -2.128906 0.421875 -3.285156 0.421875 -4.640625 C 0.421875 -5.992188 0.921875 -7.148438 1.921875 -8.109375 C 2.921875 -9.078125 4.117188 -9.5625 5.515625 -9.5625 C 6.992188 -9.5625 8.191406 -9.132812 9.109375 -8.28125 C 10.035156 -7.4375 10.5 -6.222656 10.5 -4.640625 C 10.5 -4.421875 10.492188 -4.273438 10.484375 -4.203125 Z M 3.84375 -5.96875 L 7.375 -5.96875 C 7.300781 -6.457031 7.109375 -6.832031 6.796875 -7.09375 C 6.492188 -7.351562 6.097656 -7.484375 5.609375 -7.484375 C 5.078125 -7.484375 4.65625 -7.34375 4.34375 -7.0625 C 4.03125 -6.78125 3.863281 -6.414062 3.84375 -5.96875 Z M 3.84375 -5.96875 "/></g></g></g><g fill="#8c52ff" fill-opacity="1"><g transform="translate(73.291733, 32.356651)"><g><path d="M 1.09375 -14.9375 L 5.71875 -14.9375 C 7.125 -14.9375 8.242188 -14.632812 9.078125 -14.03125 C 9.910156 -13.4375 10.328125 -12.472656 10.328125 -11.140625 C 10.328125 -9.640625 9.703125 -8.570312 8.453125 -7.9375 C 10.578125 -7.5625 11.640625 -6.304688 11.640625 -4.171875 C 11.640625 -2.910156 11.203125 -1.898438 10.328125 -1.140625 C 9.460938 -0.378906 8.269531 0 6.75 0 L 1.09375 0 Z M 4.484375 -9.09375 L 4.765625 -9.09375 C 5.523438 -9.09375 6.09375 -9.222656 6.46875 -9.484375 C 6.84375 -9.753906 7.03125 -10.191406 7.03125 -10.796875 C 7.03125 -11.804688 6.273438 -12.3125 4.765625 -12.3125 L 4.484375 -12.3125 Z M 4.484375 -2.625 L 5.5625 -2.625 C 7.226562 -2.625 8.0625 -3.179688 8.0625 -4.296875 C 8.0625 -4.953125 7.851562 -5.425781 7.4375 -5.71875 C 7.019531 -6.007812 6.394531 -6.15625 5.5625 -6.15625 L 4.484375 -6.15625 Z M 4.484375 -2.625 "/></g></g></g><g fill="#8c52ff" fill-opacity="1"><g transform="translate(85.353927, 32.356651)"><g><path d="M 4.109375 -9.296875 L 4.109375 -4.875 C 4.109375 -3.957031 4.242188 -3.304688 4.515625 -2.921875 C 4.796875 -2.535156 5.269531 -2.34375 5.9375 -2.34375 C 6.601562 -2.34375 7.070312 -2.535156 7.34375 -2.921875 C 7.625 -3.304688 7.765625 -3.957031 7.765625 -4.875 L 7.765625 -9.296875 L 10.96875 -9.296875 L 10.96875 -4.09375 C 10.96875 -2.550781 10.566406 -1.4375 9.765625 -0.75 C 8.960938 -0.0703125 7.6875 0.265625 5.9375 0.265625 C 4.1875 0.265625 2.910156 -0.0703125 2.109375 -0.75 C 1.304688 -1.4375 0.90625 -2.550781 0.90625 -4.09375 L 0.90625 -9.296875 Z M 4.109375 -9.296875 "/></g></g></g><g fill="#8c52ff" fill-opacity="1"><g transform="translate(97.235015, 32.356651)"><g><path d="M 0.671875 2.28125 L 3.296875 1 C 3.773438 1.789062 4.613281 2.1875 5.8125 2.1875 C 6.363281 2.1875 6.878906 2.007812 7.359375 1.65625 C 7.835938 1.300781 8.078125 0.753906 8.078125 0.015625 L 8.078125 -0.671875 C 7.503906 -0.046875 6.488281 0.265625 5.03125 0.265625 C 3.695312 0.265625 2.59375 -0.207031 1.71875 -1.15625 C 0.851562 -2.101562 0.421875 -3.265625 0.421875 -4.640625 C 0.421875 -6.015625 0.851562 -7.175781 1.71875 -8.125 C 2.59375 -9.082031 3.695312 -9.5625 5.03125 -9.5625 C 6.226562 -9.5625 7.222656 -9.191406 8.015625 -8.453125 L 8.078125 -8.453125 L 8.078125 -9.296875 L 11.28125 -9.296875 L 11.28125 0.25 C 11.28125 1.757812 10.78125 2.925781 9.78125 3.75 C 8.78125 4.570312 7.457031 4.984375 5.8125 4.984375 C 3.15625 4.984375 1.441406 4.082031 0.671875 2.28125 Z M 4.453125 -6.203125 C 4.035156 -5.796875 3.828125 -5.269531 3.828125 -4.625 C 3.828125 -3.988281 4.023438 -3.46875 4.421875 -3.0625 C 4.816406 -2.664062 5.34375 -2.46875 6 -2.46875 C 6.625 -2.46875 7.140625 -2.671875 7.546875 -3.078125 C 7.953125 -3.484375 8.15625 -4.003906 8.15625 -4.640625 C 8.15625 -5.273438 7.945312 -5.796875 7.53125 -6.203125 C 7.113281 -6.617188 6.601562 -6.828125 6 -6.828125 C 5.382812 -6.828125 4.867188 -6.617188 4.453125 -6.203125 Z M 4.453125 -6.203125 "/></g></g></g><g fill="#8c52ff" fill-opacity="1"><g transform="translate(109.605116, 32.356651)"><g><path d="M 3.15625 -3.875 C 3.726562 -3.875 4.21875 -3.671875 4.625 -3.265625 C 5.03125 -2.859375 5.234375 -2.367188 5.234375 -1.796875 C 5.234375 -1.222656 5.03125 -0.734375 4.625 -0.328125 C 4.21875 0.0664062 3.726562 0.265625 3.15625 0.265625 C 2.582031 0.265625 2.09375 0.0664062 1.6875 -0.328125 C 1.289062 -0.734375 1.09375 -1.222656 1.09375 -1.796875 C 1.09375 -2.367188 1.289062 -2.859375 1.6875 -3.265625 C 2.09375 -3.671875 2.582031 -3.875 3.15625 -3.875 Z M 3.15625 -3.875 "/></g></g></g><g fill="#8c52ff" fill-opacity="1"><g transform="translate(115.926007, 32.356651)"><g><path d="M 1.96875 -1.109375 C 0.9375 -2.023438 0.421875 -3.203125 0.421875 -4.640625 C 0.421875 -6.078125 0.957031 -7.253906 2.03125 -8.171875 C 3.101562 -9.097656 4.429688 -9.5625 6.015625 -9.5625 C 7.566406 -9.5625 8.875 -9.09375 9.9375 -8.15625 C 11.007812 -7.226562 11.546875 -6.050781 11.546875 -4.625 C 11.546875 -3.207031 11.023438 -2.035156 9.984375 -1.109375 C 8.941406 -0.191406 7.617188 0.265625 6.015625 0.265625 C 4.347656 0.265625 3 -0.191406 1.96875 -1.109375 Z M 4.453125 -6.203125 C 4.035156 -5.796875 3.828125 -5.269531 3.828125 -4.625 C 3.828125 -3.988281 4.023438 -3.46875 4.421875 -3.0625 C 4.816406 -2.664062 5.34375 -2.46875 6 -2.46875 C 6.625 -2.46875 7.140625 -2.671875 7.546875 -3.078125 C 7.953125 -3.484375 8.15625 -4.003906 8.15625 -4.640625 C 8.15625 -5.273438 7.945312 -5.796875 7.53125 -6.203125 C 7.113281 -6.617188 6.601562 -6.828125 6 -6.828125 C 5.382812 -6.828125 4.867188 -6.617188 4.453125 -6.203125 Z M 4.453125 -6.203125 "/></g></g></g><g fill="#8c52ff" fill-opacity="1"><g transform="translate(127.897649, 32.356651)"><g><path d="M 1.09375 0 L 1.09375 -9.296875 L 4.296875 -9.296875 L 4.296875 -7.953125 L 4.328125 -7.953125 C 4.347656 -7.992188 4.382812 -8.050781 4.4375 -8.125 C 4.5 -8.195312 4.617188 -8.320312 4.796875 -8.5 C 4.984375 -8.6875 5.175781 -8.851562 5.375 -9 C 5.582031 -9.144531 5.847656 -9.273438 6.171875 -9.390625 C 6.503906 -9.503906 6.835938 -9.5625 7.171875 -9.5625 C 7.523438 -9.5625 7.867188 -9.507812 8.203125 -9.40625 C 8.535156 -9.3125 8.785156 -9.21875 8.953125 -9.125 L 9.203125 -8.984375 L 7.859375 -6.265625 C 7.460938 -6.597656 6.90625 -6.765625 6.1875 -6.765625 C 5.800781 -6.765625 5.46875 -6.679688 5.1875 -6.515625 C 4.914062 -6.347656 4.722656 -6.144531 4.609375 -5.90625 C 4.492188 -5.664062 4.410156 -5.457031 4.359375 -5.28125 C 4.316406 -5.113281 4.296875 -4.984375 4.296875 -4.890625 L 4.296875 0 Z M 1.09375 0 "/></g></g></g><g fill="#8c52ff" fill-opacity="1"><g transform="translate(136.917136, 32.356651)"><g><path d="M 0.671875 2.28125 L 3.296875 1 C 3.773438 1.789062 4.613281 2.1875 5.8125 2.1875 C 6.363281 2.1875 6.878906 2.007812 7.359375 1.65625 C 7.835938 1.300781 8.078125 0.753906 8.078125 0.015625 L 8.078125 -0.671875 C 7.503906 -0.046875 6.488281 0.265625 5.03125 0.265625 C 3.695312 0.265625 2.59375 -0.207031 1.71875 -1.15625 C 0.851562 -2.101562 0.421875 -3.265625 0.421875 -4.640625 C 0.421875 -6.015625 0.851562 -7.175781 1.71875 -8.125 C 2.59375 -9.082031 3.695312 -9.5625 5.03125 -9.5625 C 6.226562 -9.5625 7.222656 -9.191406 8.015625 -8.453125 L 8.078125 -8.453125 L 8.078125 -9.296875 L 11.28125 -9.296875 L 11.28125 0.25 C 11.28125 1.757812 10.78125 2.925781 9.78125 3.75 C 8.78125 4.570312 7.457031 4.984375 5.8125 4.984375 C 3.15625 4.984375 1.441406 4.082031 0.671875 2.28125 Z M 4.453125 -6.203125 C 4.035156 -5.796875 3.828125 -5.269531 3.828125 -4.625 C 3.828125 -3.988281 4.023438 -3.46875 4.421875 -3.0625 C 4.816406 -2.664062 5.34375 -2.46875 6 -2.46875 C 6.625 -2.46875 7.140625 -2.671875 7.546875 -3.078125 C 7.953125 -3.484375 8.15625 -4.003906 8.15625 -4.640625 C 8.15625 -5.273438 7.945312 -5.796875 7.53125 -6.203125 C 7.113281 -6.617188 6.601562 -6.828125 6 -6.828125 C 5.382812 -6.828125 4.867188 -6.617188 4.453125 -6.203125 Z M 4.453125 -6.203125 "/></g></g></g><g fill="#ffffff" fill-opacity="1"><g transform="translate(49.004318, 30.998258)"><g><path d="M 1.09375 -14.9375 L 5.421875 -14.9375 C 7.492188 -14.9375 9.265625 -14.226562 10.734375 -12.8125 C 12.210938 -11.394531 12.953125 -9.617188 12.953125 -7.484375 C 12.953125 -5.328125 12.21875 -3.539062 10.75 -2.125 C 9.28125 -0.707031 7.503906 0 5.421875 0 L 1.09375 0 Z M 4.484375 -3.046875 L 5.015625 -3.046875 C 6.253906 -3.046875 7.269531 -3.460938 8.0625 -4.296875 C 8.851562 -5.140625 9.253906 -6.195312 9.265625 -7.46875 C 9.265625 -8.726562 8.867188 -9.78125 8.078125 -10.625 C 7.296875 -11.46875 6.273438 -11.890625 5.015625 -11.890625 L 4.484375 -11.890625 Z M 4.484375 -3.046875 "/></g></g></g><g fill="#ffffff" fill-opacity="1"><g transform="translate(62.370545, 30.998258)"><g><path d="M 10.484375 -4.203125 L 3.75 -4.203125 C 3.75 -3.546875 3.957031 -3.0625 4.375 -2.75 C 4.800781 -2.4375 5.265625 -2.28125 5.765625 -2.28125 C 6.273438 -2.28125 6.679688 -2.347656 6.984375 -2.484375 C 7.285156 -2.628906 7.628906 -2.90625 8.015625 -3.3125 L 10.34375 -2.15625 C 9.375 -0.539062 7.765625 0.265625 5.515625 0.265625 C 4.117188 0.265625 2.921875 -0.210938 1.921875 -1.171875 C 0.921875 -2.128906 0.421875 -3.285156 0.421875 -4.640625 C 0.421875 -5.992188 0.921875 -7.148438 1.921875 -8.109375 C 2.921875 -9.078125 4.117188 -9.5625 5.515625 -9.5625 C 6.992188 -9.5625 8.191406 -9.132812 9.109375 -8.28125 C 10.035156 -7.4375 10.5 -6.222656 10.5 -4.640625 C 10.5 -4.421875 10.492188 -4.273438 10.484375 -4.203125 Z M 3.84375 -5.96875 L 7.375 -5.96875 C 7.300781 -6.457031 7.109375 -6.832031 6.796875 -7.09375 C 6.492188 -7.351562 6.097656 -7.484375 5.609375 -7.484375 C 5.078125 -7.484375 4.65625 -7.34375 4.34375 -7.0625 C 4.03125 -6.78125 3.863281 -6.414062 3.84375 -5.96875 Z M 3.84375 -5.96875 "/></g></g></g><g fill="#ffffff" fill-opacity="1"><g transform="translate(73.291733, 30.998258)"><g><path d="M 1.09375 -14.9375 L 5.71875 -14.9375 C 7.125 -14.9375 8.242188 -14.632812 9.078125 -14.03125 C 9.910156 -13.4375 10.328125 -12.472656 10.328125 -11.140625 C 10.328125 -9.640625 9.703125 -8.570312 8.453125 -7.9375 C 10.578125 -7.5625 11.640625 -6.304688 11.640625 -4.171875 C 11.640625 -2.910156 11.203125 -1.898438 10.328125 -1.140625 C 9.460938 -0.378906 8.269531 0 6.75 0 L 1.09375 0 Z M 4.484375 -9.09375 L 4.765625 -9.09375 C 5.523438 -9.09375 6.09375 -9.222656 6.46875 -9.484375 C 6.84375 -9.753906 7.03125 -10.191406 7.03125 -10.796875 C 7.03125 -11.804688 6.273438 -12.3125 4.765625 -12.3125 L 4.484375 -12.3125 Z M 4.484375 -2.625 L 5.5625 -2.625 C 7.226562 -2.625 8.0625 -3.179688 8.0625 -4.296875 C 8.0625 -4.953125 7.851562 -5.425781 7.4375 -5.71875 C 7.019531 -6.007812 6.394531 -6.15625 5.5625 -6.15625 L 4.484375 -6.15625 Z M 4.484375 -2.625 "/></g></g></g><g fill="#ffffff" fill-opacity="1"><g transform="translate(85.353927, 30.998258)"><g><path d="M 4.109375 -9.296875 L 4.109375 -4.875 C 4.109375 -3.957031 4.242188 -3.304688 4.515625 -2.921875 C 4.796875 -2.535156 5.269531 -2.34375 5.9375 -2.34375 C 6.601562 -2.34375 7.070312 -2.535156 7.34375 -2.921875 C 7.625 -3.304688 7.765625 -3.957031 7.765625 -4.875 L 7.765625 -9.296875 L 10.96875 -9.296875 L 10.96875 -4.09375 C 10.96875 -2.550781 10.566406 -1.4375 9.765625 -0.75 C 8.960938 -0.0703125 7.6875 0.265625 5.9375 0.265625 C 4.1875 0.265625 2.910156 -0.0703125 2.109375 -0.75 C 1.304688 -1.4375 0.90625 -2.550781 0.90625 -4.09375 L 0.90625 -9.296875 Z M 4.109375 -9.296875 "/></g></g></g><g fill="#ffffff" fill-opacity="1"><g transform="translate(97.235015, 30.998258)"><g><path d="M 0.671875 2.28125 L 3.296875 1 C 3.773438 1.789062 4.613281 2.1875 5.8125 2.1875 C 6.363281 2.1875 6.878906 2.007812 7.359375 1.65625 C 7.835938 1.300781 8.078125 0.753906 8.078125 0.015625 L 8.078125 -0.671875 C 7.503906 -0.046875 6.488281 0.265625 5.03125 0.265625 C 3.695312 0.265625 2.59375 -0.207031 1.71875 -1.15625 C 0.851562 -2.101562 0.421875 -3.265625 0.421875 -4.640625 C 0.421875 -6.015625 0.851562 -7.175781 1.71875 -8.125 C 2.59375 -9.082031 3.695312 -9.5625 5.03125 -9.5625 C 6.226562 -9.5625 7.222656 -9.191406 8.015625 -8.453125 L 8.078125 -8.453125 L 8.078125 -9.296875 L 11.28125 -9.296875 L 11.28125 0.25 C 11.28125 1.757812 10.78125 2.925781 9.78125 3.75 C 8.78125 4.570312 7.457031 4.984375 5.8125 4.984375 C 3.15625 4.984375 1.441406 4.082031 0.671875 2.28125 Z M 4.453125 -6.203125 C 4.035156 -5.796875 3.828125 -5.269531 3.828125 -4.625 C 3.828125 -3.988281 4.023438 -3.46875 4.421875 -3.0625 C 4.816406 -2.664062 5.34375 -2.46875 6 -2.46875 C 6.625 -2.46875 7.140625 -2.671875 7.546875 -3.078125 C 7.953125 -3.484375 8.15625 -4.003906 8.15625 -4.640625 C 8.15625 -5.273438 7.945312 -5.796875 7.53125 -6.203125 C 7.113281 -6.617188 6.601562 -6.828125 6 -6.828125 C 5.382812 -6.828125 4.867188 -6.617188 4.453125 -6.203125 Z M 4.453125 -6.203125 "/></g></g></g><g fill="#ffffff" fill-opacity="1"><g transform="translate(109.605116, 30.998258)"><g><path d="M 3.15625 -3.875 C 3.726562 -3.875 4.21875 -3.671875 4.625 -3.265625 C 5.03125 -2.859375 5.234375 -2.367188 5.234375 -1.796875 C 5.234375 -1.222656 5.03125 -0.734375 4.625 -0.328125 C 4.21875 0.0664062 3.726562 0.265625 3.15625 0.265625 C 2.582031 0.265625 2.09375 0.0664062 1.6875 -0.328125 C 1.289062 -0.734375 1.09375 -1.222656 1.09375 -1.796875 C 1.09375 -2.367188 1.289062 -2.859375 1.6875 -3.265625 C 2.09375 -3.671875 2.582031 -3.875 3.15625 -3.875 Z M 3.15625 -3.875 "/></g></g></g><g fill="#ffffff" fill-opacity="1"><g transform="translate(115.926007, 30.998258)"><g><path d="M 1.96875 -1.109375 C 0.9375 -2.023438 0.421875 -3.203125 0.421875 -4.640625 C 0.421875 -6.078125 0.957031 -7.253906 2.03125 -8.171875 C 3.101562 -9.097656 4.429688 -9.5625 6.015625 -9.5625 C 7.566406 -9.5625 8.875 -9.09375 9.9375 -8.15625 C 11.007812 -7.226562 11.546875 -6.050781 11.546875 -4.625 C 11.546875 -3.207031 11.023438 -2.035156 9.984375 -1.109375 C 8.941406 -0.191406 7.617188 0.265625 6.015625 0.265625 C 4.347656 0.265625 3 -0.191406 1.96875 -1.109375 Z M 4.453125 -6.203125 C 4.035156 -5.796875 3.828125 -5.269531 3.828125 -4.625 C 3.828125 -3.988281 4.023438 -3.46875 4.421875 -3.0625 C 4.816406 -2.664062 5.34375 -2.46875 6 -2.46875 C 6.625 -2.46875 7.140625 -2.671875 7.546875 -3.078125 C 7.953125 -3.484375 8.15625 -4.003906 8.15625 -4.640625 C 8.15625 -5.273438 7.945312 -5.796875 7.53125 -6.203125 C 7.113281 -6.617188 6.601562 -6.828125 6 -6.828125 C 5.382812 -6.828125 4.867188 -6.617188 4.453125 -6.203125 Z M 4.453125 -6.203125 "/></g></g></g><g fill="#ffffff" fill-opacity="1"><g transform="translate(127.897649, 30.998258)"><g><path d="M 1.09375 0 L 1.09375 -9.296875 L 4.296875 -9.296875 L 4.296875 -7.953125 L 4.328125 -7.953125 C 4.347656 -7.992188 4.382812 -8.050781 4.4375 -8.125 C 4.5 -8.195312 4.617188 -8.320312 4.796875 -8.5 C 4.984375 -8.6875 5.175781 -8.851562 5.375 -9 C 5.582031 -9.144531 5.847656 -9.273438 6.171875 -9.390625 C 6.503906 -9.503906 6.835938 -9.5625 7.171875 -9.5625 C 7.523438 -9.5625 7.867188 -9.507812 8.203125 -9.40625 C 8.535156 -9.3125 8.785156 -9.21875 8.953125 -9.125 L 9.203125 -8.984375 L 7.859375 -6.265625 C 7.460938 -6.597656 6.90625 -6.765625 6.1875 -6.765625 C 5.800781 -6.765625 5.46875 -6.679688 5.1875 -6.515625 C 4.914062 -6.347656 4.722656 -6.144531 4.609375 -5.90625 C 4.492188 -5.664062 4.410156 -5.457031 4.359375 -5.28125 C 4.316406 -5.113281 4.296875 -4.984375 4.296875 -4.890625 L 4.296875 0 Z M 1.09375 0 "/></g></g></g><g fill="#ffffff" fill-opacity="1"><g transform="translate(136.917136, 30.998258)"><g><path d="M 0.671875 2.28125 L 3.296875 1 C 3.773438 1.789062 4.613281 2.1875 5.8125 2.1875 C 6.363281 2.1875 6.878906 2.007812 7.359375 1.65625 C 7.835938 1.300781 8.078125 0.753906 8.078125 0.015625 L 8.078125 -0.671875 C 7.503906 -0.046875 6.488281 0.265625 5.03125 0.265625 C 3.695312 0.265625 2.59375 -0.207031 1.71875 -1.15625 C 0.851562 -2.101562 0.421875 -3.265625 0.421875 -4.640625 C 0.421875 -6.015625 0.851562 -7.175781 1.71875 -8.125 C 2.59375 -9.082031 3.695312 -9.5625 5.03125 -9.5625 C 6.226562 -9.5625 7.222656 -9.191406 8.015625 -8.453125 L 8.078125 -8.453125 L 8.078125 -9.296875 L 11.28125 -9.296875 L 11.28125 0.25 C 11.28125 1.757812 10.78125 2.925781 9.78125 3.75 C 8.78125 4.570312 7.457031 4.984375 5.8125 4.984375 C 3.15625 4.984375 1.441406 4.082031 0.671875 2.28125 Z M 4.453125 -6.203125 C 4.035156 -5.796875 3.828125 -5.269531 3.828125 -4.625 C 3.828125 -3.988281 4.023438 -3.46875 4.421875 -3.0625 C 4.816406 -2.664062 5.34375 -2.46875 6 -2.46875 C 6.625 -2.46875 7.140625 -2.671875 7.546875 -3.078125 C 7.953125 -3.484375 8.15625 -4.003906 8.15625 -4.640625 C 8.15625 -5.273438 7.945312 -5.796875 7.53125 -6.203125 C 7.113281 -6.617188 6.601562 -6.828125 6 -6.828125 C 5.382812 -6.828125 4.867188 -6.617188 4.453125 -6.203125 Z M 4.453125 -6.203125 "/></g></g></g></svg>