<svg xmlns="http://www.w3.org/2000/svg" xmlns:xlink="http://www.w3.org/1999/xlink" width="300" zoomAndPan="magnify" viewBox="0 0 224.87999 74.999997" height="100" preserveAspectRatio="xMidYMid meet" version="1.0"><defs><clipPath id="565d8eb743"><path d="M 6.207031 23 L 62 23 L 62 52 L 6.207031 52 Z M 6.207031 23 " clip-rule="nonzero"/></clipPath><clipPath id="0ce5dd9cb6"><path d="M 137 23 L 218.34375 23 L 218.34375 51 L 137 51 Z M 137 23 " clip-rule="nonzero"/></clipPath></defs><g clip-path="url(#565d8eb743)"><path fill="#3b72b9" d="M 48.148438 23.566406 L 46.039062 23.472656 C 39.667969 23.472656 35.546875 26.859375 33.257812 30.789062 L 27.710938 40.574219 C 26.242188 42.90625 24.273438 43.910156 21.617188 43.910156 C 17.816406 43.910156 14.699219 41.03125 14.699219 37.511719 C 14.699219 33.992188 17.828125 31.105469 21.609375 31.105469 C 23.855469 31.105469 25.507812 31.699219 26.835938 33.164062 L 30.914062 26.445312 C 29.542969 25.464844 28.058594 24.714844 26.453125 24.199219 C 24.847656 23.683594 23.203125 23.425781 21.515625 23.425781 C 13.128906 23.425781 6.304688 29.6875 6.304688 37.460938 C 6.304688 44 11.160156 49.484375 17.761719 51.019531 C 18.953125 51.292969 20.234375 51.476562 21.519531 51.476562 L 21.839844 51.476562 C 26.835938 51.382812 31.601562 49.785156 33.9375 45.582031 L 40.078125 34.566406 C 41.226562 32.785156 42.28125 32.003906 43.878906 31.5 C 44.640625 31.257812 45.421875 31.136719 46.21875 31.136719 C 50.019531 31.136719 53.136719 34.015625 53.136719 37.535156 C 53.136719 41.054688 50.023438 43.933594 46.21875 43.933594 C 43.101562 43.933594 41.175781 43.15625 39.324219 40.867188 L 35.386719 47.3125 C 38.136719 49.917969 42.03125 51.566406 46.292969 51.566406 C 54.679688 51.566406 61.503906 45.304688 61.503906 37.53125 C 61.550781 30.308594 55.683594 24.367188 48.125 23.542969 Z M 48.148438 23.566406 " fill-opacity="1" fill-rule="nonzero"/></g><path fill="#3b72b9" d="M 77.339844 50.71875 C 75.371094 50.71875 73.628906 50.492188 71.976562 49.988281 C 70.328125 49.578125 69 48.84375 67.855469 47.792969 C 66.707031 46.742188 65.792969 45.507812 65.148438 43.953125 C 64.507812 42.402344 64.234375 40.527344 64.234375 38.378906 L 64.234375 24.023438 L 73.308594 24.023438 L 73.308594 38.332031 C 73.308594 39.976562 73.722656 41.121094 74.453125 41.847656 C 75.1875 42.574219 76.195312 42.992188 77.433594 42.992188 C 78.667969 42.992188 79.585938 42.671875 80.410156 41.941406 C 81.144531 41.210938 81.558594 40.066406 81.558594 38.511719 L 81.558594 24.023438 L 90.632812 24.023438 L 90.632812 38.238281 C 90.632812 40.523438 90.308594 42.398438 89.714844 43.953125 C 89.074219 45.503906 88.160156 46.832031 87.011719 47.792969 C 85.863281 48.84375 84.445312 49.574219 82.886719 49.988281 C 81.144531 50.535156 79.3125 50.71875 77.34375 50.71875 Z M 77.339844 50.71875 " fill-opacity="1" fill-rule="evenodd"/><g clip-path="url(#0ce5dd9cb6)"><path fill="#3b72b9" d="M 166.660156 37.460938 C 166.660156 28.621094 161.390625 23.152344 152.222656 23.152344 C 143.5625 23.152344 137.558594 28.320312 137.558594 36.914062 C 137.558594 45.753906 144.066406 50.582031 152.820312 50.582031 C 158.824219 50.582031 164.777344 47.882812 166.246094 41.742188 L 157.265625 41.742188 C 156.210938 43.523438 154.789062 44.097656 152.820312 44.097656 C 148.878906 44.097656 146.953125 42.132812 146.953125 38.386719 L 166.660156 38.386719 Z M 147.183594 33.210938 C 147.824219 30.605469 150.070312 29.1875 152.773438 29.1875 C 155.246094 29.1875 157.632812 30.738281 158.042969 33.210938 Z M 209.097656 24.113281 L 209.097656 26.46875 C 207.128906 24.277344 203.917969 23.132812 200.941406 23.132812 C 193.101562 23.132812 187.746094 29.441406 187.746094 36.804688 C 187.746094 44.164062 193.203125 50.5625 201.035156 50.5625 C 204.152344 50.5625 207.3125 49.417969 208.964844 46.8125 L 209.054688 46.8125 L 209.054688 49.695312 L 218.453125 49.695312 L 218.453125 24.09375 Z M 203.320312 42.765625 C 199.519531 42.765625 197.320312 40.296875 197.320312 36.957031 C 197.320312 33.851562 199.609375 31.152344 203.320312 31.152344 C 207.125 31.152344 209.324219 33.757812 209.324219 36.957031 C 209.28125 40.25 207.125 42.765625 203.320312 42.765625 Z M 203.320312 42.765625 " fill-opacity="1" fill-rule="nonzero"/></g><path fill="#3b72b9" d="M 131.644531 30.742188 C 130.175781 30.011719 128.253906 29.507812 126.601562 29.507812 C 125.546875 29.507812 123.714844 29.921875 123.714844 31.289062 C 123.714844 33.070312 126.601562 33.253906 127.929688 33.574219 C 132.261719 34.398438 135.582031 36.457031 135.582031 41.257812 C 135.582031 48.132812 129.304688 50.90625 123.117188 50.90625 C 119.40625 50.90625 115.691406 49.851562 112.484375 47.886719 L 115.878906 41.441406 C 117.757812 42.769531 120.917969 44.046875 123.304688 44.046875 C 124.449219 44.046875 126.191406 43.542969 126.191406 42.082031 C 126.191406 40.117188 123.304688 40.027344 120.324219 39.203125 C 117.4375 38.472656 114.460938 37.007812 114.460938 32.324219 C 114.460938 26.019531 120.324219 23.230469 126.082031 23.230469 C 129.058594 23.230469 132.082031 23.640625 134.742188 24.875 Z M 115.375 23.703125 L 112.214844 23.703125 C 112.214844 23.703125 105.523438 25.164062 103.644531 28.273438 L 103.554688 28.273438 L 103.554688 24.113281 L 94.15625 24.113281 L 94.15625 49.894531 L 103.554688 49.894531 L 103.554688 39.5625 C 103.554688 35.128906 105.707031 31.792969 110.980469 31.792969 L 115.378906 23.703125 Z M 190.257812 23.703125 L 187.09375 23.703125 C 187.09375 23.703125 180.40625 25.164062 178.527344 28.273438 L 178.433594 28.273438 L 178.433594 24.113281 L 169.039062 24.113281 L 169.039062 49.894531 L 178.433594 49.894531 L 178.433594 39.5625 C 178.433594 35.128906 180.589844 31.792969 185.859375 31.792969 L 190.261719 23.703125 Z M 190.257812 23.703125 " fill-opacity="1" fill-rule="evenodd"/></svg>